<svg version="1.1" id="Layer_1" xmlns="http://www.w3.org/2000/svg" xmlns:xlink="http://www.w3.org/1999/xlink" x="0px" y="0px"
	 width="100%" viewBox="0 0 2500 439" enable-background="new 0 0 2500 439" xml:space="preserve">
<path fill="#FFFFFF" opacity="1.000000" stroke="none" 
	d="
M2501.000000,58.000008 
	C2501.000000,185.312943 2501.000000,312.625885 2501.000000,440.000000 
	C1791.633911,440.000000 1082.267822,440.000000 372.383881,439.748413 
	C371.855469,439.323547 371.845001,439.150299 372.076233,438.731567 
	C379.602448,427.681366 386.886993,416.876709 394.456909,405.901489 
	C410.682404,382.227264 426.622559,358.723572 442.797546,335.003143 
	C468.455017,297.514771 493.877625,260.243164 519.300232,222.971558 
	C518.999756,222.680710 518.699341,222.389862 518.398865,222.099030 
	C511.917786,225.962265 505.425354,229.806580 498.957703,233.692200 
	C478.884216,245.751999 458.820129,257.827484 438.414856,269.958130 
	C422.695435,279.289307 407.313568,288.559296 391.587158,297.906281 
	C379.148132,305.282745 367.053711,312.582214 354.612305,319.950928 
	C342.770447,326.973694 331.275543,333.927185 319.440674,340.940369 
	C316.401367,342.476166 313.701996,343.952209 310.912170,345.073395 
	C299.591156,329.032562 288.360565,313.346619 277.048279,297.337097 
	C269.754669,286.958618 262.542725,276.903625 255.212555,266.519592 
	C247.842072,256.072479 240.589798,245.954391 233.217926,235.508240 
	C229.694443,230.438889 226.290543,225.697601 222.911118,220.712708 
	C222.935577,220.469086 222.935059,219.979401 223.177368,219.743942 
	C226.662384,214.807709 229.905075,210.106918 233.443298,205.217194 
	C240.205353,195.778534 246.671875,186.528793 253.430664,177.096985 
	C260.867218,166.712891 268.011475,156.510834 275.447845,146.126480 
	C287.500214,129.294189 299.260498,112.644188 311.381195,96.001480 
	C319.440826,100.371979 327.140015,104.735191 335.050781,109.368347 
	C343.132111,114.246849 351.001862,118.855408 359.091553,123.704651 
	C366.849335,128.359314 374.387177,132.773285 382.115906,137.460297 
	C389.880524,142.149689 397.454193,146.566040 405.228271,151.253311 
	C413.231628,156.051636 421.034607,160.579025 429.034668,165.385696 
	C437.471405,170.486954 445.711029,175.308929 454.156799,180.392517 
	C462.555786,185.449448 470.748657,190.244766 479.148010,195.307755 
	C481.888550,197.144257 484.386322,198.775742 486.963165,200.270966 
	C497.259094,206.245163 507.579620,212.176971 517.994019,218.284882 
	C518.297974,218.412262 518.498962,218.379227 518.699951,218.346207 
	C518.538330,218.163376 518.376770,217.980530 518.194092,217.440216 
	C515.759766,213.322205 513.440674,209.497116 510.916351,205.812622 
	C501.340973,191.836411 491.699219,177.905685 481.951538,163.640030 
	C473.236145,150.834854 464.651489,138.347626 455.997498,125.525177 
	C448.030579,113.752296 440.132935,102.314613 432.132874,90.542755 
	C424.000854,78.503433 415.971191,66.798309 407.837128,54.767662 
	C399.974213,43.219784 392.215668,31.997427 384.328094,20.445526 
	C380.132721,13.743988 376.066345,7.371994 372.000000,1.000000 
	C1081.666626,1.000000 1791.333374,1.000000 2501.000000,1.000000 
	C2501.000000,16.103745 2501.000000,31.100967 2500.658447,46.405056 
	C2497.053711,34.079746 2486.602295,26.735895 2473.593506,27.934277 
	C2462.339355,28.971027 2452.873047,38.931816 2452.077637,50.574093 
	C2451.273682,62.343578 2459.518066,73.489555 2470.891357,76.009354 
	C2483.192871,78.734764 2494.592041,72.646820 2499.446533,60.795177 
	C2499.847900,59.815746 2500.477051,58.929588 2501.000000,58.000008 
M2277.902832,160.163544 
	C2289.450195,173.031296 2294.674316,188.213531 2294.654785,205.392548 
	C2294.610840,244.223099 2294.641602,283.053711 2294.641846,321.884308 
	C2294.641846,323.675018 2294.641846,325.465729 2294.641846,327.465759 
	C2307.053955,327.465759 2318.955566,327.465759 2330.999512,327.465759 
	C2331.083740,326.040070 2331.210449,324.893860 2331.210693,323.747650 
	C2331.218018,283.583832 2331.248291,243.419922 2331.165283,203.256256 
	C2331.155273,198.443634 2330.792725,193.594650 2330.133789,188.826065 
	C2322.127197,130.885834 2265.482666,91.812416 2208.406494,104.682709 
	C2192.935791,108.171219 2179.068604,114.906403 2165.835938,125.267586 
	C2165.835938,118.705025 2165.835938,113.020790 2165.835938,107.416107 
	C2153.311768,107.416107 2141.392090,107.416107 2129.423584,107.416107 
	C2129.423584,180.933426 2129.423584,254.155960 2129.423584,327.494080 
	C2141.663818,327.494080 2153.582031,327.494080 2165.941895,327.494080 
	C2165.941895,325.454803 2165.941895,323.659149 2165.942139,321.863464 
	C2165.943115,282.366241 2165.900635,242.868958 2165.964600,203.371857 
	C2165.996094,183.948990 2173.484619,167.762009 2187.967773,154.923599 
	C2212.772949,132.935303 2252.528809,133.837097 2274.060791,157.545486 
	C2275.143066,158.324600 2276.225586,159.103714 2277.902832,160.163544 
M1789.999146,145.213928 
	C1790.048340,146.282578 1790.097656,147.351242 1789.911621,149.020050 
	C1750.074951,191.844955 1710.518433,234.936798 1670.183838,277.287598 
	C1661.257324,286.660217 1656.218018,295.830444 1658.055786,308.812073 
	C1658.899414,314.770355 1658.199585,320.947083 1658.199585,326.979095 
	C1719.885986,326.979095 1780.797729,326.979095 1841.802246,326.979095 
	C1841.802246,314.783447 1841.802246,302.863861 1841.802246,290.314209 
	C1796.763672,290.314209 1751.951172,290.314209 1706.215088,290.314209 
	C1708.141968,288.175812 1709.323975,286.832611 1710.539062,285.519989 
	C1752.989258,239.663101 1795.418579,193.786789 1837.951416,148.006577 
	C1840.703613,145.044174 1842.687744,142.152557 1842.728760,137.911758 
	C1843.022339,137.594345 1843.316040,137.276947 1843.609619,136.959457 
	C1843.131470,136.639557 1842.653198,136.319641 1842.028931,135.072632 
	C1842.028931,125.981628 1842.028931,116.890625 1842.028931,107.754044 
	C1780.546875,107.754044 1719.535767,107.754044 1658.477783,107.754044 
	C1658.477783,119.991592 1658.477783,131.899963 1658.477783,144.186035 
	C1660.556519,144.186035 1662.359375,144.186020 1664.162231,144.186020 
	C1695.792236,144.186020 1727.422241,144.167953 1759.052246,144.196396 
	C1769.366211,144.205673 1779.680298,144.336273 1789.999146,145.213928 
M1312.934204,318.784546 
	C1313.289429,317.588745 1313.954468,316.393188 1313.955444,315.197083 
	C1314.005371,247.800125 1314.010376,180.403107 1313.923584,113.006256 
	C1313.921875,111.670029 1312.779053,110.335274 1311.914917,108.198647 
	C1299.785767,108.198647 1287.656738,108.198647 1274.946289,108.198647 
	C1274.946289,115.899162 1274.946289,123.908379 1274.946289,132.397659 
	C1225.240234,88.581200 1157.389282,95.576973 1117.759644,133.630020 
	C1076.802124,172.958145 1069.690186,235.092087 1101.177856,281.367218 
	C1120.904053,310.357330 1148.465576,327.427673 1183.259888,331.538727 
	C1217.839233,335.624359 1248.414673,325.334991 1275.335327,302.589691 
	C1274.992920,313.736877 1275.079590,324.700775 1272.830322,335.162476 
	C1264.509399,373.864014 1227.314087,400.828644 1187.902466,397.174500 
	C1161.396484,394.716919 1141.872803,381.308868 1128.829346,358.202820 
	C1128.036865,356.798981 1126.477539,354.850677 1125.241455,354.825775 
	C1112.785156,354.574829 1100.321777,354.672943 1087.245605,354.672943 
	C1088.078613,357.302216 1088.644531,359.359741 1089.375610,361.356812 
	C1117.210205,437.394531 1215.397583,459.180176 1274.948364,402.483734 
	C1298.779175,379.795227 1310.782715,351.741760 1312.934204,318.784546 
M2055.086182,304.426056 
	C2055.086182,312.171722 2055.086182,319.917389 2055.086182,327.522034 
	C2067.828857,327.522034 2079.756836,327.522034 2091.680908,327.522034 
	C2091.680908,253.984390 2091.680908,180.746689 2091.680908,107.408615 
	C2079.450684,107.408615 2067.526123,107.408615 2054.883789,107.408615 
	C2054.883789,115.453445 2054.883789,123.295914 2054.883789,132.286453 
	C2052.343750,130.230286 2050.837891,128.976852 2049.296387,127.768677 
	C2020.917236,105.525070 1988.892456,97.103218 1953.614868,104.621712 
	C1891.450317,117.870453 1852.904175,176.112473 1864.076172,238.662018 
	C1874.984009,299.731049 1936.133545,341.759918 1997.196045,330.328918 
	C2017.794678,326.472839 2036.028076,317.903503 2052.038574,304.441895 
	C2052.765625,303.830597 2054.051514,303.884064 2055.086182,304.426056 
M850.903320,157.411835 
	C836.525879,181.266983 831.084167,207.082138 835.327393,234.541153 
	C843.744751,289.010895 887.728210,328.796844 942.661316,332.257385 
	C1004.049194,336.124603 1058.468994,289.359070 1063.848999,228.114899 
	C1069.716675,161.318054 1017.949036,103.115440 950.917480,102.423302 
	C908.040710,101.980568 874.827942,120.968414 850.903320,157.411835 
M1441.300171,139.605667 
	C1478.691040,134.194672 1513.630249,163.715836 1513.964233,201.574692 
	C1514.318481,241.729156 1514.061768,281.889008 1514.072021,322.046509 
	C1514.072510,323.817627 1514.072021,325.588745 1514.072021,327.375549 
	C1526.705322,327.375549 1538.746704,327.375549 1550.838745,327.375549 
	C1550.894043,326.172302 1550.965454,325.343811 1550.965576,324.515350 
	C1550.966675,283.857910 1551.001953,243.200394 1550.905884,202.543182 
	C1550.894165,197.563995 1550.535522,192.527191 1549.728516,187.617172 
	C1539.058594,122.693031 1472.067139,85.165771 1411.298950,110.288986 
	C1402.370728,113.980125 1394.186401,119.470268 1385.313965,124.315903 
	C1385.313965,118.876900 1385.313965,113.171440 1385.313965,107.443085 
	C1372.842896,107.443085 1360.942871,107.443085 1349.156372,107.443085 
	C1349.156372,180.986740 1349.156372,254.209595 1349.156372,327.523315 
	C1361.278442,327.523315 1373.043457,327.523315 1385.386841,327.523315 
	C1385.386841,325.519470 1385.386963,323.740387 1385.386963,321.961273 
	C1385.387573,282.970093 1385.290894,243.978607 1385.417969,204.987854 
	C1385.527588,171.326859 1408.716187,143.976501 1441.300171,139.605667 
M628.922852,227.334686 
	C628.667725,224.182983 628.213257,221.032867 628.188110,217.879318 
	C627.920410,184.339722 649.470093,154.014145 681.207153,143.161270 
	C712.608459,132.423203 748.441406,143.437546 768.830078,170.129059 
	C772.440308,174.855423 774.994812,181.636337 779.740540,183.905838 
	C784.757874,186.305222 791.811401,184.447418 797.975464,184.448181 
	C804.052063,184.448929 810.128723,184.448349 816.394409,184.448349 
	C803.626221,138.191879 755.425354,96.082268 693.237610,103.298332 
	C633.767883,110.198990 589.406250,161.615829 591.393616,220.202728 
	C593.480408,281.720581 640.268921,329.830963 701.906616,332.558899 
	C763.538818,335.286621 806.239258,290.544250 816.180420,250.814590 
	C804.455139,250.814590 792.841553,250.908981 781.231628,250.747559 
	C778.365845,250.707733 776.913269,251.630600 775.520203,254.178513 
	C759.259216,283.920929 726.264282,300.314453 694.304565,294.711029 
	C659.641541,288.633636 634.416077,262.952789 628.922852,227.334686 
M2417.921143,325.584534 
	C2429.675537,328.315704 2441.547363,327.947784 2453.689453,327.511505 
	C2453.689453,315.611542 2453.693604,304.292847 2453.678223,292.974182 
	C2453.677490,292.341919 2453.514404,291.709839 2453.353271,290.546814 
	C2448.472412,290.546814 2443.678711,290.675598 2438.895752,290.506927 
	C2434.915527,290.366547 2430.834961,290.358215 2426.993652,289.458893 
	C2409.591064,285.384583 2398.683594,271.073425 2398.623291,252.151596 
	C2398.511230,216.995667 2398.590820,181.839096 2398.598877,146.682800 
	C2398.598877,145.903824 2398.702148,145.124863 2398.799316,143.750885 
	C2417.148682,143.750885 2435.234619,143.750885 2453.488770,143.750885 
	C2453.488770,131.245605 2453.488770,119.362434 2453.488770,106.999382 
	C2435.107422,106.999382 2417.034668,106.999382 2398.579102,106.999382 
	C2398.579102,86.928680 2398.579102,67.337044 2398.579102,47.614525 
	C2386.158691,47.614525 2374.134277,47.614525 2362.066650,47.614525 
	C2361.989990,48.642109 2361.897705,49.302204 2361.897705,49.962288 
	C2361.900635,118.608650 2361.738037,187.255646 2361.995117,255.901093 
	C2362.117676,288.615295 2385.268555,317.250885 2417.921143,325.584534 
M1621.113647,131.500031 
	C1621.113647,123.580879 1621.113647,115.661728 1621.113647,107.722328 
	C1608.537476,107.722328 1596.622925,107.722328 1584.636597,107.722328 
	C1584.636597,181.193451 1584.636597,254.363449 1584.636597,327.550720 
	C1596.915161,327.550720 1608.832397,327.550720 1621.113647,327.550720 
	C1621.113647,262.350647 1621.113647,197.425339 1621.113647,131.500031 
M1619.857788,34.629730 
	C1610.298584,26.498104 1598.608643,25.445942 1589.088745,31.860445 
	C1579.919678,38.038506 1575.926147,49.615849 1579.701416,59.979465 
	C1583.281128,69.806702 1590.435303,75.365303 1600.894531,76.338402 
	C1610.638550,77.244949 1619.763428,72.091988 1624.330200,63.349163 
	C1629.208374,54.010136 1627.822266,44.140659 1619.857788,34.629730 
z"/>
<path fill="#FFFFFF" opacity="1.000000" stroke="none" 
	d="
M1.000000,220.000000 
	C1.000000,147.086151 1.000000,74.172302 1.000000,1.000000 
	C51.353931,1.000000 101.708305,1.000000 152.524597,1.240196 
	C152.986496,1.480392 152.999130,1.960807 152.752899,2.193033 
	C149.694824,6.623258 146.882950,10.821258 143.793457,15.212385 
	C137.686630,23.939714 131.857422,32.473915 125.742935,41.187950 
	C119.633698,49.910416 113.809738,58.453049 107.695526,67.168137 
	C101.768402,75.605606 96.131531,83.870628 90.225517,92.356354 
	C83.935471,101.372719 77.914551,110.168381 71.597137,119.128853 
	C65.414009,127.922279 59.527382,136.550903 53.356308,145.394684 
	C46.616676,155.036743 40.161491,164.463638 33.428684,174.069031 
	C22.678709,189.488068 12.206355,204.728592 1.544269,219.828644 
	C1.354535,219.688171 1.000000,220.000000 1.000000,220.000000 
z"/>
<path fill="#FFFFFF" opacity="1.000000" stroke="none" 
	d="
M153.000000,440.000000 
	C102.393127,440.000000 51.786259,440.000000 1.000000,440.000000 
	C1.000000,367.312531 1.000000,294.624939 1.166436,221.618576 
	C1.332872,221.299835 1.736141,221.104691 1.838378,221.438522 
	C10.289827,233.813583 18.606968,245.877213 26.999184,257.888397 
	C32.887699,266.316193 38.878532,274.672485 44.910522,283.397736 
	C54.208458,296.882812 63.419552,310.030884 72.750153,323.508453 
	C82.167038,337.085571 91.464417,350.333221 100.851852,363.895538 
	C108.177887,374.529663 115.413864,384.849091 122.769241,395.497620 
	C129.853775,405.721252 136.818924,415.615784 143.875824,425.826233 
	C146.978394,430.761475 149.989197,435.380737 153.000000,440.000000 
z"/>
<path fill="#3992CF" opacity="1.000000" stroke="none" 
	d="
M153.250000,440.000000 
	C149.989197,435.380737 146.978394,430.761475 144.050385,425.397766 
	C144.422119,422.374390 144.961884,420.095612 144.963501,417.816406 
	C145.010406,352.219788 145.003403,286.623138 145.473114,221.018341 
	C152.295135,221.016174 158.649155,221.022156 165.002014,221.493942 
	C165.000565,286.716064 165.000259,351.472412 165.000046,416.228729 
	C165.000046,419.724579 164.705246,423.257446 165.136459,426.699341 
	C165.328186,428.229614 166.984955,429.576355 167.778931,431.277588 
	C163.768646,433.724884 159.956177,435.901001 155.855530,438.163452 
	C155.044907,438.833160 154.522461,439.416595 154.000000,440.000000 
	C154.000000,440.000000 153.500000,440.000000 153.250000,440.000000 
z"/>
<path fill="#76B6DB" opacity="1.000000" stroke="none" 
	d="
M381.925018,137.187256 
	C374.387177,132.773285 366.849335,128.359314 359.133606,123.239838 
	C359.303772,119.921829 359.950745,117.309799 359.955048,114.696724 
	C360.016693,77.139526 359.991791,39.582188 360.435242,2.018110 
	C363.921844,1.674227 366.960938,1.337113 370.000000,1.000000 
	C370.444458,1.000000 370.888885,1.000000 371.666687,1.000000 
	C376.066345,7.371994 380.132721,13.743988 383.950562,20.712086 
	C383.468048,23.249638 383.032257,25.190845 383.029938,27.132572 
	C382.988586,61.555382 383.020233,95.978302 382.953857,130.401031 
	C382.949524,132.663757 382.283356,134.925201 381.925018,137.187256 
z"/>
<path fill="#141456" opacity="1.000000" stroke="none" 
	d="
M2501.000000,57.541939 
	C2500.477051,58.929588 2499.847900,59.815746 2499.446533,60.795177 
	C2494.592041,72.646820 2483.192871,78.734764 2470.891357,76.009354 
	C2459.518066,73.489555 2451.273682,62.343578 2452.077637,50.574093 
	C2452.873047,38.931816 2462.339355,28.971027 2473.593506,27.934277 
	C2486.602295,26.735895 2497.053711,34.079746 2500.658447,46.855961 
	C2501.000000,50.361286 2501.000000,53.722576 2501.000000,57.541939 
M2459.851074,39.455376 
	C2454.054199,48.167824 2454.000488,57.454666 2459.702881,64.999657 
	C2465.078369,72.111977 2474.486084,75.090805 2482.914307,72.349365 
	C2491.462646,69.568771 2497.256836,61.975250 2497.708008,52.961815 
	C2498.119385,44.738960 2492.918457,36.481449 2485.151367,33.024731 
	C2476.447021,29.150879 2467.699951,31.203440 2459.851074,39.455376 
z"/>
<path fill="#49839F" opacity="1.000000" stroke="none" 
	d="
M154.468658,440.000000 
	C154.522461,439.416595 155.044907,438.833160 156.115616,438.474365 
	C157.645264,438.814026 158.626678,439.029907 159.608017,439.029419 
	C187.068893,439.015564 214.529770,438.979889 242.459778,438.971069 
	C256.949371,438.976196 270.969818,438.957977 285.459137,438.959534 
	C297.614807,438.965240 309.301636,438.951233 321.457458,438.955841 
	C333.279449,438.961639 344.632446,438.948822 356.452515,438.953918 
	C361.891235,438.973602 366.862915,438.975342 371.834564,438.977081 
	C371.845001,439.150299 371.855469,439.323547 371.932983,439.748413 
	C299.645782,440.000000 227.291550,440.000000 154.468658,440.000000 
z"/>
<path fill="#749AD9" opacity="1.000000" stroke="none" 
	d="
M152.999130,1.960807 
	C152.999130,1.960807 152.986496,1.480392 152.993256,1.240196 
	C192.020889,1.000000 231.041794,1.000000 270.537354,1.243371 
	C271.012054,1.486741 271.030518,1.973281 270.563843,1.986056 
	C266.058563,2.011956 262.019928,2.025081 257.514587,2.029476 
	C248.360840,2.025994 239.673782,2.031242 230.519501,2.026683 
	C221.365051,2.021663 212.677872,2.026451 203.523056,2.020334 
	C189.117401,1.993740 175.179245,1.947097 161.241486,2.001601 
	C159.502243,2.008402 157.765121,2.550563 155.716064,2.770832 
	C154.603119,2.451603 153.801117,2.206205 152.999130,1.960807 
z"/>
<path fill="#5566B7" opacity="1.000000" stroke="none" 
	d="
M1.736141,221.104691 
	C1.736141,221.104691 1.332872,221.299835 1.166436,221.149918 
	C1.000000,221.000000 1.000000,220.500000 1.000000,220.250000 
	C1.000000,220.000000 1.354535,219.688171 2.029763,219.862244 
	C13.800275,219.985672 24.895559,219.935028 36.457413,219.933060 
	C42.945442,219.945938 48.966900,219.910141 55.455223,219.921051 
	C61.943630,219.934265 67.965179,219.900787 74.453522,219.911774 
	C80.608490,219.924438 86.296677,219.892670 92.451889,219.903458 
	C98.606659,219.917053 104.294403,219.888062 110.387062,219.898758 
	C111.876396,219.998886 112.960808,220.059326 114.030014,220.333557 
	C114.014809,220.547363 113.993240,220.975494 113.533279,220.979919 
	C109.380486,220.994400 105.687645,221.004425 101.526756,221.005661 
	C92.372215,221.004868 83.685730,221.012878 74.530731,221.012360 
	C65.042892,221.009613 56.023579,221.015427 46.535217,221.013229 
	C31.289495,221.038376 16.512819,221.071533 1.736141,221.104691 
z"/>
<path fill="#89B8DF" opacity="1.000000" stroke="none" 
	d="
M271.030518,1.973281 
	C271.030518,1.973281 271.012054,1.486741 271.006042,1.243371 
	C303.687561,1.000000 336.375122,1.000000 369.531342,1.000000 
	C366.960938,1.337113 363.921844,1.674227 359.968018,2.012116 
	C351.698975,2.016830 344.344635,2.020768 336.522705,2.018056 
	C328.034454,2.014438 320.013885,2.017469 311.525421,2.013043 
	C302.370880,2.007143 293.684235,2.008700 284.533173,2.002752 
	C279.722687,1.987924 275.376617,1.980603 271.030518,1.973281 
z"/>
<path fill="#010149" opacity="1.000000" stroke="none" 
	d="
M1312.168335,319.000214 
	C1310.782715,351.741760 1298.779175,379.795227 1274.948364,402.483734 
	C1215.397583,459.180176 1117.210205,437.394531 1089.375610,361.356812 
	C1088.644531,359.359741 1088.078613,357.302216 1087.245605,354.672943 
	C1100.321777,354.672943 1112.785156,354.574829 1125.241455,354.825775 
	C1126.477539,354.850677 1128.036865,356.798981 1128.829346,358.202820 
	C1141.872803,381.308868 1161.396484,394.716919 1187.902466,397.174500 
	C1227.314087,400.828644 1264.509399,373.864014 1272.830322,335.162476 
	C1275.079590,324.700775 1274.992920,313.736877 1275.335327,302.589691 
	C1248.414673,325.334991 1217.839233,335.624359 1183.259888,331.538727 
	C1148.465576,327.427673 1120.904053,310.357330 1101.177856,281.367218 
	C1069.690186,235.092087 1076.802124,172.958145 1117.759644,133.630020 
	C1157.389282,95.576973 1225.240234,88.581200 1274.946289,132.397659 
	C1274.946289,123.908379 1274.946289,115.899162 1274.946289,108.198647 
	C1287.656738,108.198647 1299.785767,108.198647 1311.965820,109.062462 
	C1312.012207,177.625671 1312.006226,245.325073 1312.009888,313.024475 
	C1312.010010,315.016388 1312.113159,317.008301 1312.168335,319.000214 
M1130.494507,176.048798 
	C1114.218994,204.196091 1113.649658,232.724792 1131.327637,259.987579 
	C1148.992188,287.229401 1175.138306,298.829010 1207.574951,295.059418 
	C1251.932495,289.904510 1283.337646,245.046799 1273.442627,201.286270 
	C1266.198242,169.248444 1242.065308,145.369873 1209.617065,140.479309 
	C1176.426758,135.476852 1150.009277,147.733383 1130.494507,176.048798 
z"/>
<path fill="#020249" opacity="1.000000" stroke="none" 
	d="
M2055.081543,304.026978 
	C2054.051514,303.884064 2052.765625,303.830597 2052.038574,304.441895 
	C2036.028076,317.903503 2017.794678,326.472839 1997.196045,330.328918 
	C1936.133545,341.759918 1874.984009,299.731049 1864.076172,238.662018 
	C1852.904175,176.112473 1891.450317,117.870453 1953.614868,104.621712 
	C1988.892456,97.103218 2020.917236,105.525070 2049.296387,127.768677 
	C2050.837891,128.976852 2052.343750,130.230286 2054.883789,132.286453 
	C2054.883789,123.295914 2054.883789,115.453445 2054.883789,107.408615 
	C2067.526123,107.408615 2079.450684,107.408615 2091.680908,107.408615 
	C2091.680908,180.746689 2091.680908,253.984390 2091.680908,327.522034 
	C2079.756836,327.522034 2067.828857,327.522034 2055.086182,327.522034 
	C2055.086182,319.917389 2055.086182,312.171722 2055.081543,304.026978 
M1947.838379,144.200836 
	C1911.839722,159.985184 1893.158203,193.952255 1900.008179,231.824600 
	C1906.617188,268.366211 1940.630127,297.861389 1982.952393,295.135742 
	C2019.842651,292.759857 2052.207275,261.112854 2054.902344,223.688080 
	C2059.094727,165.468826 2003.203247,123.565361 1947.838379,144.200836 
M2054.486084,131.003571 
	C2054.450684,131.300812 2054.415283,131.598038 2054.379883,131.895325 
	C2054.574951,131.765015 2054.769775,131.634720 2054.486084,131.003571 
z"/>
<path fill="#020249" opacity="1.000000" stroke="none" 
	d="
M851.075317,157.091705 
	C874.827942,120.968414 908.040710,101.980568 950.917480,102.423302 
	C1017.949036,103.115440 1069.716675,161.318054 1063.848999,228.114899 
	C1058.468994,289.359070 1004.049194,336.124603 942.661316,332.257385 
	C887.728210,328.796844 843.744751,289.010895 835.327393,234.541153 
	C831.084167,207.082138 836.525879,181.266983 851.075317,157.091705 
M963.546387,294.155670 
	C1000.951660,287.460388 1028.353149,253.523453 1027.517090,214.927429 
	C1026.634766,174.193695 992.691223,140.013138 952.153748,139.037735 
	C902.438843,137.841492 865.274414,179.523773 871.893799,229.054443 
	C877.607117,271.805328 920.428467,302.583557 963.546387,294.155670 
z"/>
<path fill="#020249" opacity="1.000000" stroke="none" 
	d="
M1842.168945,138.000168 
	C1842.687744,142.152557 1840.703613,145.044174 1837.951416,148.006577 
	C1795.418579,193.786789 1752.989258,239.663101 1710.539062,285.519989 
	C1709.323975,286.832611 1708.141968,288.175812 1706.215088,290.314209 
	C1751.951172,290.314209 1796.763672,290.314209 1841.802246,290.314209 
	C1841.802246,302.863861 1841.802246,314.783447 1841.802246,326.979095 
	C1780.797729,326.979095 1719.885986,326.979095 1658.199585,326.979095 
	C1658.199585,320.947083 1658.899414,314.770355 1658.055786,308.812073 
	C1656.218018,295.830444 1661.257324,286.660217 1670.183838,277.287598 
	C1710.518433,234.936798 1750.074951,191.844955 1790.333252,148.566589 
	C1791.751343,146.963409 1792.747803,145.813675 1794.232788,144.100403 
	C1792.217773,144.248260 1791.105957,144.329834 1789.994263,144.411407 
	C1779.680298,144.336273 1769.366211,144.205673 1759.052246,144.196396 
	C1727.422241,144.167953 1695.792236,144.186020 1664.162231,144.186020 
	C1662.359375,144.186020 1660.556519,144.186035 1658.477783,144.186035 
	C1658.477783,131.899963 1658.477783,119.991592 1658.477783,107.754044 
	C1719.535767,107.754044 1780.546875,107.754044 1842.028931,107.754044 
	C1842.028931,116.890625 1842.028931,125.981628 1842.024536,135.866425 
	C1842.069824,137.106857 1842.119385,137.553513 1842.168945,138.000168 
z"/>
<path fill="#020249" opacity="1.000000" stroke="none" 
	d="
M2274.102051,156.731079 
	C2252.528809,133.837097 2212.772949,132.935303 2187.967773,154.923599 
	C2173.484619,167.762009 2165.996094,183.948990 2165.964600,203.371857 
	C2165.900635,242.868958 2165.943115,282.366241 2165.942139,321.863464 
	C2165.941895,323.659149 2165.941895,325.454803 2165.941895,327.494080 
	C2153.582031,327.494080 2141.663818,327.494080 2129.423584,327.494080 
	C2129.423584,254.155960 2129.423584,180.933426 2129.423584,107.416107 
	C2141.392090,107.416107 2153.311768,107.416107 2165.835938,107.416107 
	C2165.835938,113.020790 2165.835938,118.705025 2165.835938,125.267586 
	C2179.068604,114.906403 2192.935791,108.171219 2208.406494,104.682709 
	C2265.482666,91.812416 2322.127197,130.885834 2330.133789,188.826065 
	C2330.792725,193.594650 2331.155273,198.443634 2331.165283,203.256256 
	C2331.248291,243.419922 2331.218018,283.583832 2331.210693,323.747650 
	C2331.210449,324.893860 2331.083740,326.040070 2330.999512,327.465759 
	C2318.955566,327.465759 2307.053955,327.465759 2294.641846,327.465759 
	C2294.641846,325.465729 2294.641846,323.675018 2294.641846,321.884308 
	C2294.641602,283.053711 2294.610840,244.223099 2294.654785,205.392548 
	C2294.674316,188.213531 2289.450195,173.031296 2277.479980,159.719040 
	C2276.072021,158.426712 2275.086914,157.578903 2274.102051,156.731079 
z"/>
<path fill="#010149" opacity="1.000000" stroke="none" 
	d="
M1440.863525,139.679932 
	C1408.716187,143.976501 1385.527588,171.326859 1385.417969,204.987854 
	C1385.290894,243.978607 1385.387573,282.970093 1385.386963,321.961273 
	C1385.386963,323.740387 1385.386841,325.519470 1385.386841,327.523315 
	C1373.043457,327.523315 1361.278442,327.523315 1349.156372,327.523315 
	C1349.156372,254.209595 1349.156372,180.986740 1349.156372,107.443085 
	C1360.942871,107.443085 1372.842896,107.443085 1385.313965,107.443085 
	C1385.313965,113.171440 1385.313965,118.876900 1385.313965,124.315903 
	C1394.186401,119.470268 1402.370728,113.980125 1411.298950,110.288986 
	C1472.067139,85.165771 1539.058594,122.693031 1549.728516,187.617172 
	C1550.535522,192.527191 1550.894165,197.563995 1550.905884,202.543182 
	C1551.001953,243.200394 1550.966675,283.857910 1550.965576,324.515350 
	C1550.965454,325.343811 1550.894043,326.172302 1550.838745,327.375549 
	C1538.746704,327.375549 1526.705322,327.375549 1514.072021,327.375549 
	C1514.072021,325.588745 1514.072510,323.817627 1514.072021,322.046509 
	C1514.061768,281.889008 1514.318481,241.729156 1513.964233,201.574692 
	C1513.630249,163.715836 1478.691040,134.194672 1440.863525,139.679932 
z"/>
<path fill="#020249" opacity="1.000000" stroke="none" 
	d="
M628.960693,227.780319 
	C634.416077,262.952789 659.641541,288.633636 694.304565,294.711029 
	C726.264282,300.314453 759.259216,283.920929 775.520203,254.178513 
	C776.913269,251.630600 778.365845,250.707733 781.231628,250.747559 
	C792.841553,250.908981 804.455139,250.814590 816.180420,250.814590 
	C806.239258,290.544250 763.538818,335.286621 701.906616,332.558899 
	C640.268921,329.830963 593.480408,281.720581 591.393616,220.202728 
	C589.406250,161.615829 633.767883,110.198990 693.237610,103.298332 
	C755.425354,96.082268 803.626221,138.191879 816.394409,184.448349 
	C810.128723,184.448349 804.052063,184.448929 797.975464,184.448181 
	C791.811401,184.447418 784.757874,186.305222 779.740540,183.905838 
	C774.994812,181.636337 772.440308,174.855423 768.830078,170.129059 
	C748.441406,143.437546 712.608459,132.423203 681.207153,143.161270 
	C649.470093,154.014145 627.920410,184.339722 628.188110,217.879318 
	C628.213257,221.032867 628.667725,224.182983 628.960693,227.780319 
z"/>
<path fill="#03034A" opacity="1.000000" stroke="none" 
	d="
M2417.535645,325.443878 
	C2385.268555,317.250885 2362.117676,288.615295 2361.995117,255.901093 
	C2361.738037,187.255646 2361.900635,118.608650 2361.897705,49.962288 
	C2361.897705,49.302204 2361.989990,48.642109 2362.066650,47.614525 
	C2374.134277,47.614525 2386.158691,47.614525 2398.579102,47.614525 
	C2398.579102,67.337044 2398.579102,86.928680 2398.579102,106.999382 
	C2417.034668,106.999382 2435.107422,106.999382 2453.488770,106.999382 
	C2453.488770,119.362434 2453.488770,131.245605 2453.488770,143.750885 
	C2435.234619,143.750885 2417.148682,143.750885 2398.799316,143.750885 
	C2398.702148,145.124863 2398.598877,145.903824 2398.598877,146.682800 
	C2398.590820,181.839096 2398.511230,216.995667 2398.623291,252.151596 
	C2398.683594,271.073425 2409.591064,285.384583 2426.993652,289.458893 
	C2430.834961,290.358215 2434.915527,290.366547 2438.895752,290.506927 
	C2443.678711,290.675598 2448.472412,290.546814 2453.353271,290.546814 
	C2453.514404,291.709839 2453.677490,292.341919 2453.678223,292.974182 
	C2453.693604,304.292847 2453.689453,315.611542 2453.689453,327.511505 
	C2441.547363,327.947784 2429.675537,328.315704 2417.535645,325.443878 
z"/>
<path fill="#03034A" opacity="1.000000" stroke="none" 
	d="
M1621.113647,132.000031 
	C1621.113647,197.425339 1621.113647,262.350647 1621.113647,327.550720 
	C1608.832397,327.550720 1596.915161,327.550720 1584.636597,327.550720 
	C1584.636597,254.363449 1584.636597,181.193451 1584.636597,107.722328 
	C1596.622925,107.722328 1608.537476,107.722328 1621.113647,107.722328 
	C1621.113647,115.661728 1621.113647,123.580879 1621.113647,132.000031 
z"/>
<path fill="#217C8F" opacity="1.000000" stroke="none" 
	d="
M372.076233,438.731567 
	C366.862915,438.975342 361.891235,438.973602 356.457947,438.492310 
	C355.997528,429.030548 356.077148,420.047546 355.985687,411.066315 
	C355.676208,380.671112 355.306183,350.276520 354.959290,319.881714 
	C367.053711,312.582214 379.148132,305.282745 391.754639,298.303040 
	C392.511139,300.746124 392.965485,302.869110 392.968536,304.992767 
	C393.014008,336.820007 392.980286,368.647400 393.050079,400.474548 
	C393.054199,402.341187 393.781036,404.206268 394.171539,406.072052 
	C386.886993,416.876709 379.602448,427.681366 372.076233,438.731567 
z"/>
<path fill="#238593" opacity="1.000000" stroke="none" 
	d="
M394.456909,405.901489 
	C393.781036,404.206268 393.054199,402.341187 393.050079,400.474548 
	C392.980286,368.647400 393.014008,336.820007 392.968536,304.992767 
	C392.965485,302.869110 392.511139,300.746124 392.099243,298.226044 
	C407.313568,288.559296 422.695435,279.289307 438.828918,270.058777 
	C440.053711,271.887146 440.928009,273.673767 440.938049,275.465271 
	C441.039703,293.594879 440.956512,311.725555 441.068390,329.855011 
	C441.079437,331.646301 442.041870,333.431763 442.562683,335.219910 
	C426.622559,358.723572 410.682404,382.227264 394.456909,405.901489 
z"/>
<path fill="#246C9F" opacity="1.000000" stroke="none" 
	d="
M233.147766,205.406143 
	C229.905075,210.106918 226.662384,214.807709 222.721008,219.741364 
	C218.341339,219.945267 214.660370,219.916306 210.987000,219.430359 
	C210.988892,158.029648 210.983170,97.085899 211.301758,36.245537 
	C216.701996,39.244732 221.777939,42.140541 226.991852,45.259541 
	C227.424896,45.656616 227.719971,45.830505 228.226059,46.040890 
	C228.437073,46.077385 228.854263,46.174255 229.028503,46.444740 
	C230.462326,47.527245 231.721924,48.339264 232.987061,49.610428 
	C232.995087,68.717178 232.982330,87.364792 233.003342,106.012383 
	C233.040695,139.143646 233.098511,172.274887 233.147766,205.406143 
z"/>
<path fill="#1F748D" opacity="1.000000" stroke="none" 
	d="
M354.612305,319.950958 
	C355.306183,350.276520 355.676208,380.671112 355.985687,411.066315 
	C356.077148,420.047546 355.997528,429.030548 355.990845,438.474365 
	C344.632446,438.948822 333.279449,438.961639 321.461731,438.494049 
	C320.998016,407.487122 321.020233,376.960571 320.947784,346.434235 
	C320.943390,344.582153 320.187103,342.731812 319.780640,340.880676 
	C331.275543,333.927185 342.770447,326.973694 354.612305,319.950958 
z"/>
<path fill="#37ABCF" opacity="1.000000" stroke="none" 
	d="
M222.886658,220.956314 
	C226.290543,225.697601 229.694443,230.438889 232.869232,235.731400 
	C232.093460,238.306778 231.073349,240.330017 231.069534,242.355209 
	C230.979904,289.780029 230.968597,337.205170 231.089432,384.629852 
	C231.095749,387.109222 232.398239,389.585327 232.889999,392.332703 
	C225.498001,396.769897 218.313293,400.937317 210.811386,404.810852 
	C210.329453,402.551819 210.021667,400.586761 210.020782,398.621582 
	C209.994446,339.422241 209.998367,280.222900 210.460114,221.013321 
	C214.910645,220.987488 218.898651,220.971909 222.886658,220.956314 
z"/>
<path fill="#1D6D8A" opacity="1.000000" stroke="none" 
	d="
M319.440674,340.940369 
	C320.187103,342.731812 320.943390,344.582153 320.947784,346.434235 
	C321.020233,376.960571 320.998016,407.487122 320.992737,438.475433 
	C309.301636,438.951233 297.614807,438.965240 285.462769,438.497406 
	C284.998352,415.059265 285.054504,392.102631 284.914886,369.147186 
	C284.900818,366.834747 283.702454,364.529572 283.400848,362.129578 
	C292.832886,356.501495 301.917755,350.964874 311.002625,345.428253 
	C313.701996,343.952209 316.401367,342.476166 319.440674,340.940369 
z"/>
<path fill="#37B3CF" opacity="1.000000" stroke="none" 
	d="
M233.097305,392.062958 
	C232.398239,389.585327 231.095749,387.109222 231.089432,384.629852 
	C230.968597,337.205170 230.979904,289.780029 231.069534,242.355209 
	C231.073349,240.330017 232.093460,238.306778 232.988831,236.059479 
	C240.589798,245.954391 247.842072,256.072479 254.832458,266.709900 
	C254.047073,268.875397 253.071152,270.520416 253.066833,272.167969 
	C252.978104,306.068634 252.970398,339.969666 253.086578,373.870178 
	C253.092453,375.587708 254.355896,377.300934 254.838745,379.295715 
	C250.098694,382.397125 245.553711,385.218994 240.682343,388.146729 
	C237.936417,389.522736 235.516861,390.792847 233.097305,392.062958 
z"/>
<path fill="#279197" opacity="1.000000" stroke="none" 
	d="
M442.797577,335.003143 
	C442.041870,333.431763 441.079437,331.646301 441.068390,329.855011 
	C440.956512,311.725555 441.039703,293.594879 440.938049,275.465271 
	C440.928009,273.673767 440.053711,271.887146 439.166473,269.997559 
	C458.820129,257.827484 478.884216,245.751999 498.957703,233.692200 
	C505.425354,229.806580 511.917786,225.962265 518.398865,222.099030 
	C518.699341,222.389862 518.999756,222.680710 519.300232,222.971558 
	C493.877625,260.243164 468.455017,297.514771 442.797577,335.003143 
z"/>
<path fill="#71AED9" opacity="1.000000" stroke="none" 
	d="
M336.990326,2.024706 
	C344.344635,2.020768 351.698975,2.016830 359.520477,2.018886 
	C359.991791,39.582188 360.016693,77.139526 359.955048,114.696724 
	C359.950745,117.309799 359.303772,119.921829 358.913635,122.999146 
	C351.001862,118.855408 343.132111,114.246849 335.411926,109.167931 
	C336.041016,106.696762 336.933502,104.696976 336.938446,102.695000 
	C337.021423,69.138397 336.993561,35.581520 336.990326,2.024706 
z"/>
<path fill="#7CBEDC" opacity="1.000000" stroke="none" 
	d="
M382.115906,137.460297 
	C382.283356,134.925201 382.949524,132.663757 382.953857,130.401031 
	C383.020233,95.978302 382.988586,61.555382 383.029938,27.132572 
	C383.032257,25.190845 383.468048,23.249638 384.079590,21.041630 
	C392.215668,31.997427 399.974213,43.219784 407.676941,55.143761 
	C407.414093,57.800587 407.029510,59.755535 407.026733,61.711029 
	C406.987488,89.413261 407.041840,117.115746 406.914978,144.817444 
	C406.905579,146.875275 405.685242,148.927536 405.027893,150.982391 
	C397.454193,146.566040 389.880524,142.149689 382.115906,137.460297 
z"/>
<path fill="#2776A2" opacity="1.000000" stroke="none" 
	d="
M233.443298,205.217194 
	C233.098511,172.274887 233.040695,139.143646 233.003342,106.012383 
	C232.982330,87.364792 232.995087,68.717178 233.303833,49.719894 
	C240.134506,53.551899 246.653946,57.733574 252.849136,62.195259 
	C252.350006,63.604332 252.023209,64.733284 252.022354,65.862473 
	C251.995422,101.245369 251.983978,136.628311 252.048615,172.011108 
	C252.051819,173.767746 252.759003,175.523102 253.138397,177.279053 
	C246.671875,186.528793 240.205353,195.778534 233.443298,205.217194 
z"/>
<path fill="#6BA6D8" opacity="1.000000" stroke="none" 
	d="
M336.522705,2.018056 
	C336.993561,35.581520 337.021423,69.138397 336.938446,102.695000 
	C336.933502,104.696976 336.041016,106.696762 335.200378,108.897987 
	C327.140015,104.735191 319.440826,100.371979 311.209412,95.765053 
	C310.094421,95.021461 309.511597,94.521584 309.309387,93.949249 
	C310.459991,91.145309 311.883179,88.417641 311.899139,85.681755 
	C312.061859,57.795437 311.995544,29.907782 311.993286,2.020501 
	C320.013885,2.017469 328.034454,2.014438 336.522705,2.018056 
z"/>
<path fill="#37BCCF" opacity="1.000000" stroke="none" 
	d="
M255.033813,379.016144 
	C254.355896,377.300934 253.092453,375.587708 253.086578,373.870178 
	C252.970398,339.969666 252.978104,306.068634 253.066833,272.167969 
	C253.071152,270.520416 254.047073,268.875397 254.950684,267.038940 
	C262.542725,276.903625 269.754669,286.958618 276.972046,297.778198 
	C276.651672,300.818268 276.053436,303.092499 276.043274,305.369354 
	C275.964752,322.968262 275.958130,340.567871 276.045624,358.166687 
	C276.058594,360.775330 276.682037,363.380920 276.819824,366.262054 
	C269.422302,370.696136 262.228058,374.856140 255.033813,379.016144 
z"/>
<path fill="#82C6DE" opacity="1.000000" stroke="none" 
	d="
M405.228271,151.253311 
	C405.685242,148.927536 406.905579,146.875275 406.914978,144.817444 
	C407.041840,117.115746 406.987488,89.413261 407.026733,61.711029 
	C407.029510,59.755535 407.414093,57.800587 407.781311,55.469284 
	C415.971191,66.798309 424.000854,78.503433 431.793213,90.822739 
	C431.370636,93.225304 431.027405,95.013397 431.024139,96.802124 
	C430.986389,117.546692 431.059814,138.291794 430.905640,159.035278 
	C430.890564,161.064011 429.558380,163.082932 428.837585,165.106415 
	C421.034607,160.579025 413.231628,156.051636 405.228271,151.253311 
z"/>
<path fill="#2A7FA4" opacity="1.000000" stroke="none" 
	d="
M253.430664,177.096985 
	C252.759003,175.523102 252.051819,173.767746 252.048615,172.011108 
	C251.983978,136.628311 251.995422,101.245369 252.022354,65.862473 
	C252.023209,64.733284 252.350006,63.604332 253.176788,62.217049 
	C254.487076,62.014034 255.145432,62.069233 255.996521,62.409149 
	C262.126434,66.457100 268.063629,70.220337 274.000488,74.453255 
	C274.000122,96.470421 273.966034,118.018028 274.050598,139.565170 
	C274.059448,141.814453 274.770538,144.060974 275.155762,146.308777 
	C268.011475,156.510834 260.867218,166.712891 253.430664,177.096985 
z"/>
<path fill="#02024A" opacity="1.000000" stroke="none" 
	d="
M1620.113281,34.885620 
	C1627.822266,44.140659 1629.208374,54.010136 1624.330200,63.349163 
	C1619.763428,72.091988 1610.638550,77.244949 1600.894531,76.338402 
	C1590.435303,75.365303 1583.281128,69.806702 1579.701416,59.979465 
	C1575.926147,49.615849 1579.919678,38.038506 1589.088745,31.860445 
	C1598.608643,25.445942 1610.298584,26.498104 1620.113281,34.885620 
z"/>
<path fill="#87CEE0" opacity="1.000000" stroke="none" 
	d="
M429.034668,165.385696 
	C429.558380,163.082932 430.890564,161.064011 430.905640,159.035278 
	C431.059814,138.291794 430.986389,117.546692 431.024139,96.802124 
	C431.027405,95.013397 431.370636,93.225304 431.895630,91.156921 
	C440.132935,102.314613 448.030579,113.752296 455.928040,125.952805 
	C455.618591,128.825211 455.054047,130.933258 455.041473,133.044617 
	C454.960388,146.647491 455.044464,160.251373 454.953125,173.854095 
	C454.939087,175.948517 454.300446,178.038742 453.950684,180.130905 
	C445.711029,175.308929 437.471405,170.486954 429.034668,165.385696 
z"/>
<path fill="#2D8BA7" opacity="1.000000" stroke="none" 
	d="
M275.447876,146.126480 
	C274.770538,144.060974 274.059448,141.814453 274.050598,139.565170 
	C273.966034,118.018028 274.000122,96.470421 274.347870,74.501877 
	C277.472870,75.698380 280.250122,77.315933 283.331787,79.095070 
	C292.067047,84.178337 300.497894,89.100029 308.928772,94.021713 
	C309.511597,94.521584 310.094421,95.021461 310.848999,95.757767 
	C299.260498,112.644188 287.500214,129.294189 275.447876,146.126480 
z"/>
<path fill="#37C5CF" opacity="1.000000" stroke="none" 
	d="
M277.023071,365.987946 
	C276.682037,363.380920 276.058594,360.775330 276.045624,358.166687 
	C275.958130,340.567871 275.964752,322.968262 276.043274,305.369354 
	C276.053436,303.092499 276.651672,300.818268 277.053741,298.101746 
	C288.360565,313.346619 299.591156,329.032562 310.912170,345.073395 
	C301.917755,350.964874 292.832886,356.501495 283.075256,362.171082 
	C280.609314,363.531982 278.816193,364.759979 277.023071,365.987946 
z"/>
<path fill="#8ED7E1" opacity="1.000000" stroke="none" 
	d="
M454.156799,180.392517 
	C454.300446,178.038742 454.939087,175.948517 454.953125,173.854095 
	C455.044464,160.251373 454.960388,146.647491 455.041473,133.044617 
	C455.054047,130.933258 455.618591,128.825211 455.997345,126.288010 
	C464.651489,138.347626 473.236145,150.834854 481.638672,163.928635 
	C481.304382,172.823517 481.270630,181.117020 480.911041,189.396378 
	C480.828278,191.302536 479.627716,193.160156 478.941589,195.040100 
	C470.748657,190.244766 462.555786,185.449448 454.156799,180.392517 
z"/>
<path fill="#94DFE3" opacity="1.000000" stroke="none" 
	d="
M479.148010,195.307770 
	C479.627716,193.160156 480.828278,191.302536 480.911041,189.396378 
	C481.270630,181.117020 481.304382,172.823517 481.769409,164.246567 
	C491.699219,177.905685 501.340973,191.836411 510.916351,205.812622 
	C513.440674,209.497116 515.759766,213.322205 518.111450,217.520294 
	C518.049866,217.957840 517.891052,218.124466 517.891052,218.124481 
	C507.579620,212.176971 497.259094,206.245163 486.963165,200.270966 
	C484.386322,198.775742 481.888550,197.144257 479.148010,195.307770 
z"/>
<path fill="#FFFFFF" opacity="1.000000" stroke="none" 
	d="
M1312.551270,318.892395 
	C1312.113159,317.008301 1312.010010,315.016388 1312.009888,313.024475 
	C1312.006226,245.325073 1312.012207,177.625671 1312.092773,109.463058 
	C1312.779053,110.335274 1313.921875,111.670029 1313.923584,113.006256 
	C1314.010376,180.403107 1314.005371,247.800125 1313.955444,315.197083 
	C1313.954468,316.393188 1313.289429,317.588745 1312.551270,318.892395 
z"/>
<path fill="#5B8BBE" opacity="1.000000" stroke="none" 
	d="
M222.911102,220.712708 
	C218.898651,220.971909 214.910645,220.987488 209.991943,221.000946 
	C202.040497,221.007797 195.019775,221.016754 187.530594,221.015823 
	C179.709137,221.013336 172.356155,221.020737 165.003159,221.028137 
	C158.649155,221.022156 152.295135,221.016174 145.004227,221.008118 
	C137.714249,221.011765 131.361191,221.017456 124.549240,221.013367 
	C120.724648,220.994232 117.358948,220.984863 113.993240,220.975494 
	C113.993240,220.975494 114.014809,220.547363 114.489670,220.304077 
	C119.307556,220.010666 123.650574,219.960556 128.460205,219.953461 
	C134.614990,219.965195 140.303162,219.933899 146.458710,219.943146 
	C153.279846,219.953964 159.633606,219.924240 166.455811,219.936523 
	C173.943497,219.948532 180.962738,219.918564 188.450409,219.925095 
	C196.272354,219.936859 203.625870,219.912109 210.979401,219.887344 
	C214.660370,219.916306 218.341339,219.945267 222.478683,219.976822 
	C222.935059,219.979401 222.935577,220.469086 222.911102,220.712708 
z"/>
<path fill="#FFFFFF" opacity="1.000000" stroke="none" 
	d="
M1789.996704,144.812683 
	C1791.105957,144.329834 1792.217773,144.248260 1794.232788,144.100403 
	C1792.747803,145.813675 1791.751343,146.963409 1790.450928,148.266510 
	C1790.097656,147.351242 1790.048340,146.282578 1789.996704,144.812683 
z"/>
<path fill="#FFFFFF" opacity="1.000000" stroke="none" 
	d="
M2274.081543,157.138290 
	C2275.086914,157.578903 2276.072021,158.426712 2277.182373,159.578674 
	C2276.225586,159.103714 2275.143066,158.324600 2274.081543,157.138290 
z"/>
<path fill="#FFFFFF" opacity="1.000000" stroke="none" 
	d="
M1842.448853,137.955963 
	C1842.119385,137.553513 1842.069824,137.106857 1842.097656,136.329971 
	C1842.653198,136.319641 1843.131470,136.639557 1843.609619,136.959503 
	C1843.316040,137.276947 1843.022339,137.594345 1842.448853,137.955963 
z"/>
<path fill="#94DFE3" opacity="1.000000" stroke="none" 
	d="
M518.132507,217.877762 
	C518.376770,217.980530 518.538330,218.163376 518.699951,218.346207 
	C518.498962,218.379227 518.297974,218.412262 517.994019,218.284882 
	C517.891052,218.124466 518.049866,217.957840 518.132507,217.877762 
z"/>
<path fill="#1C4C98" opacity="1.000000" stroke="none" 
	d="
M165.987366,219.894531 
	C159.633606,219.924240 153.279846,219.953964 146.461853,219.484116 
	C145.998398,209.173065 145.999863,199.361557 145.999908,189.550064 
	C146.000122,133.175522 146.017868,76.800949 145.918915,20.426580 
	C145.915756,18.623062 144.714050,16.821648 144.071075,15.019255 
	C146.882950,10.821258 149.694824,6.623258 152.752899,2.193033 
	C153.801117,2.206205 154.603119,2.451603 155.894104,3.070333 
	C159.914642,5.650592 163.446213,7.857519 166.975067,10.481095 
	C166.648239,13.846877 166.043732,16.795769 166.041168,19.745180 
	C165.983398,86.461601 165.991577,153.178070 165.987366,219.894531 
z"/>
<path fill="#1A4396" opacity="1.000000" stroke="none" 
	d="
M143.793457,15.212383 
	C144.714050,16.821648 145.915756,18.623062 145.918915,20.426580 
	C146.017868,76.800949 146.000122,133.175522 145.999908,189.550064 
	C145.999863,199.361557 145.998398,209.173065 145.994476,219.443573 
	C140.303162,219.933899 134.614990,219.965195 128.462463,219.493546 
	C127.998741,161.455566 128.017166,103.920486 127.917145,46.385624 
	C127.914032,44.592033 126.685471,42.800571 126.028214,41.008118 
	C131.857422,32.473915 137.686630,23.939714 143.793457,15.212383 
z"/>
<path fill="#183A94" opacity="1.000000" stroke="none" 
	d="
M125.742935,41.187950 
	C126.685471,42.800571 127.914032,44.592033 127.917145,46.385624 
	C128.017166,103.920486 127.998741,161.455566 127.995857,219.450531 
	C123.650574,219.960556 119.307556,220.010666 114.504875,220.090271 
	C112.960808,220.059326 111.876396,219.998886 110.393608,219.444122 
	C109.996811,170.080612 110.019661,121.211365 109.915054,72.342392 
	C109.911232,70.558792 108.657181,68.777855 107.985779,66.995682 
	C113.809738,58.453049 119.633698,49.910416 125.742935,41.187950 
z"/>
<path fill="#163192" opacity="1.000000" stroke="none" 
	d="
M107.695526,67.168137 
	C108.657181,68.777855 109.911232,70.558792 109.915054,72.342392 
	C110.019661,121.211365 109.996811,170.080612 109.988686,219.404449 
	C104.294403,219.888062 98.606659,219.917053 92.457375,219.448456 
	C91.997215,179.589432 92.030388,140.227936 91.935074,100.866745 
	C91.928024,97.955231 90.996429,95.045959 90.494644,92.135651 
	C96.131531,83.870628 101.768402,75.605606 107.695526,67.168137 
z"/>
<path fill="#14288F" opacity="1.000000" stroke="none" 
	d="
M90.225510,92.356354 
	C90.996429,95.045959 91.928024,97.955231 91.935074,100.866745 
	C92.030388,140.227936 91.997215,179.589432 91.990341,219.405884 
	C86.296677,219.892670 80.608490,219.924438 74.458328,219.455933 
	C73.997559,187.386795 74.032600,155.817795 73.910088,124.249435 
	C73.903236,122.485054 72.595749,120.725723 71.893631,118.964043 
	C77.914551,110.168381 83.935471,101.372719 90.225510,92.356354 
z"/>
<path fill="#111F8D" opacity="1.000000" stroke="none" 
	d="
M71.597137,119.128853 
	C72.595749,120.725723 73.903236,122.485054 73.910088,124.249435 
	C74.032600,155.817795 73.997559,187.386795 73.991547,219.411469 
	C67.965179,219.900787 61.943630,219.934265 55.459358,219.464355 
	C54.997753,197.467484 55.053169,175.973709 54.939465,154.480835 
	C54.923050,151.378204 54.093838,148.279846 53.640755,145.179520 
	C59.527382,136.550903 65.414009,127.922279 71.597137,119.128853 
z"/>
<path fill="#0F168B" opacity="1.000000" stroke="none" 
	d="
M53.356308,145.394684 
	C54.093838,148.279846 54.923050,151.378204 54.939465,154.480835 
	C55.053169,175.973709 54.997753,197.467484 54.992500,219.417664 
	C48.966900,219.910141 42.945442,219.945938 36.460655,219.475235 
	C35.998142,205.501785 36.073891,192.033844 35.898804,178.569183 
	C35.878403,177.000397 34.470795,175.449661 33.706306,173.890549 
	C40.161491,164.463638 46.616676,155.036743 53.356308,145.394684 
z"/>
<path fill="#0E0D89" opacity="1.000000" stroke="none" 
	d="
M33.428688,174.069031 
	C34.470795,175.449661 35.878403,177.000397 35.898804,178.569183 
	C36.073891,192.033844 35.998142,205.501785 35.994087,219.426559 
	C24.895559,219.935028 13.800275,219.985672 2.219496,220.002716 
	C12.206355,204.728592 22.678709,189.488068 33.428688,174.069031 
z"/>
<path fill="#398ACE" opacity="1.000000" stroke="none" 
	d="
M125.008118,221.023148 
	C131.361191,221.017456 137.714249,221.011765 144.536224,221.016296 
	C145.003403,286.623138 145.010406,352.219788 144.963501,417.816406 
	C144.961884,420.095612 144.422119,422.374390 143.958618,425.081848 
	C136.818924,415.615784 129.853775,405.721252 123.149849,395.305603 
	C123.940704,392.638214 124.929573,390.492676 124.932945,388.345551 
	C125.020386,332.571503 125.005409,276.797302 125.008118,221.023148 
z"/>
<path fill="#3A82CE" opacity="1.000000" stroke="none" 
	d="
M124.549240,221.013367 
	C125.005409,276.797302 125.020386,332.571503 124.932945,388.345551 
	C124.929573,390.492676 123.940704,392.638214 123.030457,394.976501 
	C115.413864,384.849091 108.177887,374.529663 101.026245,363.460876 
	C101.407051,360.600067 101.959991,358.488892 101.962242,356.377106 
	C102.010269,311.256256 101.996536,266.135376 101.994812,221.014465 
	C105.687645,221.004425 109.380486,220.994400 113.533279,220.979919 
	C117.358948,220.984863 120.724648,220.994232 124.549240,221.013367 
z"/>
<path fill="#3B79CE" opacity="1.000000" stroke="none" 
	d="
M101.526756,221.005676 
	C101.996536,266.135376 102.010269,311.256256 101.962242,356.377106 
	C101.959991,358.488892 101.407051,360.600067 100.936188,363.146179 
	C91.464417,350.333221 82.167038,337.085571 73.132286,323.316315 
	C73.929939,320.818756 74.925262,318.844269 74.931267,316.866730 
	C75.028236,284.918335 74.999496,252.969574 74.999245,221.020889 
	C83.685730,221.012878 92.372215,221.004868 101.526756,221.005676 
z"/>
<path fill="#3C6ECE" opacity="1.000000" stroke="none" 
	d="
M74.530731,221.012360 
	C74.999496,252.969574 75.028236,284.918335 74.931267,316.866730 
	C74.925262,318.844269 73.929939,320.818756 73.012779,322.986816 
	C63.419552,310.030884 54.208458,296.882812 45.320274,283.305023 
	C46.095455,281.072113 46.931496,279.270874 46.940838,277.465393 
	C47.038242,258.651062 47.002838,239.836044 47.004261,221.021240 
	C56.023579,221.015427 65.042892,221.009613 74.530731,221.012360 
z"/>
<path fill="#3D64CE" opacity="1.000000" stroke="none" 
	d="
M46.535217,221.013214 
	C47.002838,239.836044 47.038242,258.651062 46.940838,277.465393 
	C46.931496,279.270874 46.095455,281.072113 45.233429,282.968018 
	C38.878532,274.672485 32.887699,266.316193 26.999184,257.888397 
	C18.606968,245.877213 10.289827,233.813583 1.838378,221.438522 
	C16.512819,221.071533 31.289495,221.038376 46.535217,221.013214 
z"/>
<path fill="#389ACF" opacity="1.000000" stroke="none" 
	d="
M165.002014,221.493942 
	C172.356155,221.020737 179.709137,221.013336 187.530914,221.481613 
	C188.007843,287.640472 188.015991,353.323639 187.823578,419.281036 
	C181.074265,423.372314 174.525497,427.189362 167.976746,431.006409 
	C166.984955,429.576355 165.328186,428.229614 165.136459,426.699341 
	C164.705246,423.257446 165.000046,419.724579 165.000046,416.228729 
	C165.000259,351.472412 165.000565,286.716064 165.002014,221.493942 
z"/>
<path fill="#185984" opacity="1.000000" stroke="none" 
	d="
M167.778931,431.277588 
	C174.525497,427.189362 181.074265,423.372314 188.146271,419.150360 
	C189.624420,418.162170 190.577957,417.576630 191.534500,416.996033 
	C198.065521,413.031708 204.597153,409.068390 211.128601,405.104736 
	C218.313293,400.937317 225.498001,396.769897 232.889999,392.332703 
	C235.516861,390.792847 237.936417,389.522736 240.851105,388.525299 
	C241.564148,390.584625 241.965439,392.370728 241.971146,394.158051 
	C242.018845,409.087830 241.993774,424.017822 241.990646,438.947754 
	C214.529770,438.979889 187.068893,439.015564 159.608017,439.029419 
	C158.626678,439.029907 157.645264,438.814026 156.403809,438.388031 
	C159.956177,435.901001 163.768646,433.724884 167.778931,431.277588 
z"/>
<path fill="#F5F5F8" opacity="1.000000" stroke="none" 
	d="
M2460.063477,39.158653 
	C2467.699951,31.203440 2476.447021,29.150879 2485.151367,33.024731 
	C2492.918457,36.481449 2498.119385,44.738960 2497.708008,52.961815 
	C2497.256836,61.975250 2491.462646,69.568771 2482.914307,72.349365 
	C2474.486084,75.090805 2465.078369,72.111977 2459.702881,64.999657 
	C2454.000488,57.454666 2454.054199,48.167824 2460.063477,39.158653 
M2484.675537,65.751808 
	C2485.658203,65.751808 2486.640869,65.751808 2488.289551,65.751808 
	C2485.787598,61.702435 2483.567871,58.109631 2481.369141,54.550980 
	C2485.890869,50.531681 2486.827881,48.020828 2485.379395,44.144295 
	C2483.703125,39.656918 2480.112793,38.563133 2475.799561,38.657257 
	C2473.201904,38.713940 2470.602051,38.667675 2467.631104,38.667675 
	C2467.631104,40.703274 2467.630615,42.163212 2467.630859,43.623146 
	C2467.632080,50.103195 2467.478516,56.590603 2467.785156,63.056190 
	C2467.837158,64.157928 2469.862305,65.166161 2470.975830,66.217598 
	C2471.404053,65.836128 2471.832031,65.454651 2472.260254,65.073181 
	C2472.260254,61.797710 2472.260254,58.522236 2472.260254,53.642151 
	C2474.766357,55.440193 2476.531006,56.296711 2477.728271,57.653847 
	C2479.968262,60.192539 2481.878906,63.021652 2484.675537,65.751808 
z"/>
<path fill="#1B6488" opacity="1.000000" stroke="none" 
	d="
M242.459778,438.971069 
	C241.993774,424.017822 242.018845,409.087830 241.971146,394.158051 
	C241.965439,392.370728 241.564148,390.584625 241.177490,388.419403 
	C245.553711,385.218994 250.098694,382.397125 254.838745,379.295715 
	C262.228058,374.856140 269.422302,370.696136 276.819824,366.262054 
	C278.816193,364.759979 280.609314,363.531982 282.728088,362.262512 
	C283.702454,364.529572 284.900818,366.834747 284.914886,369.147186 
	C285.054504,392.102631 284.998352,415.059265 284.993896,438.477661 
	C270.969818,438.957977 256.949371,438.976196 242.459778,438.971069 
z"/>
<path fill="#5E94D4" opacity="1.000000" stroke="none" 
	d="
M283.027405,78.933487 
	C280.250122,77.315933 277.472870,75.698380 274.348206,74.032196 
	C268.063629,70.220337 262.126434,66.457100 256.317322,62.158329 
	C256.963593,59.059158 257.911682,56.498676 257.930573,53.931377 
	C258.057556,36.634464 257.987518,19.336100 257.981293,2.038206 
	C262.019928,2.025081 266.058563,2.011956 270.563843,1.986056 
	C275.376617,1.980603 279.722687,1.987924 284.534027,2.470266 
	C284.999512,26.191130 285.049988,49.437267 284.914215,72.682304 
	C284.902039,74.769630 283.684937,76.849922 283.027405,78.933487 
z"/>
<path fill="#588BD2" opacity="1.000000" stroke="none" 
	d="
M257.514587,2.029476 
	C257.987518,19.336100 258.057556,36.634464 257.930573,53.931377 
	C257.911682,56.498676 256.963593,59.059158 256.124603,61.873615 
	C255.145432,62.069233 254.487076,62.014034 253.501068,61.937042 
	C246.653946,57.733574 240.134506,53.551899 233.298279,49.260750 
	C231.721924,48.339264 230.462326,47.527245 229.227539,46.085339 
	C229.834885,43.458591 230.897385,41.467537 230.921631,39.463917 
	C231.072647,26.989674 230.991150,14.512616 230.986740,2.036491 
	C239.673782,2.031242 248.360840,2.025994 257.514587,2.029476 
z"/>
<path fill="#5181D0" opacity="1.000000" stroke="none" 
	d="
M230.519501,2.026683 
	C230.991150,14.512616 231.072647,26.989674 230.921631,39.463917 
	C230.897385,41.467537 229.834885,43.458591 229.053314,45.814854 
	C228.854263,46.174255 228.437073,46.077385 228.099731,45.808922 
	C227.459549,45.372425 227.156708,45.204391 226.853882,45.036354 
	C221.777939,42.140541 216.701996,39.244732 210.999359,36.071381 
	C206.896271,33.534145 203.419891,31.274446 200.353043,29.000652 
	C201.841263,27.479904 203.784515,26.010752 203.851776,24.460218 
	C204.175568,16.995930 203.993317,9.509688 203.990677,2.031238 
	C212.677872,2.026451 221.365051,2.021663 230.519501,2.026683 
z"/>
<path fill="#4B78CE" opacity="1.000000" stroke="none" 
	d="
M203.523056,2.020334 
	C203.993317,9.509688 204.175568,16.995930 203.851776,24.460218 
	C203.784515,26.010752 201.841263,27.479904 200.007690,28.955046 
	C195.511337,26.920862 191.769867,24.918192 187.818176,22.659147 
	C180.731232,18.289997 173.854507,14.177221 166.977768,10.064446 
	C163.446213,7.857519 159.914642,5.650592 156.205048,3.144163 
	C157.765121,2.550563 159.502243,2.008402 161.241486,2.001601 
	C175.179245,1.947097 189.117401,1.993740 203.523056,2.020334 
z"/>
<path fill="#659DD6" opacity="1.000000" stroke="none" 
	d="
M283.331787,79.095062 
	C283.684937,76.849922 284.902039,74.769630 284.914215,72.682304 
	C285.049988,49.437267 284.999512,26.191130 284.998413,2.477772 
	C293.684235,2.008700 302.370880,2.007143 311.525421,2.013043 
	C311.995544,29.907782 312.061859,57.795437 311.899139,85.681755 
	C311.883179,88.417641 310.459991,91.145309 309.309387,93.949249 
	C300.497894,89.100029 292.067047,84.178337 283.331787,79.095062 
z"/>
<path fill="#FEFEFE" opacity="1.000000" stroke="none" 
	d="
M1130.700928,175.750534 
	C1150.009277,147.733383 1176.426758,135.476852 1209.617065,140.479309 
	C1242.065308,145.369873 1266.198242,169.248444 1273.442627,201.286270 
	C1283.337646,245.046799 1251.932495,289.904510 1207.574951,295.059418 
	C1175.138306,298.829010 1148.992188,287.229401 1131.327637,259.987579 
	C1113.649658,232.724792 1114.218994,204.196091 1130.700928,175.750534 
z"/>
<path fill="#FEFEFE" opacity="1.000000" stroke="none" 
	d="
M1948.209839,144.088486 
	C2003.203247,123.565361 2059.094727,165.468826 2054.902344,223.688080 
	C2052.207275,261.112854 2019.842651,292.759857 1982.952393,295.135742 
	C1940.630127,297.861389 1906.617188,268.366211 1900.008179,231.824600 
	C1893.158203,193.952255 1911.839722,159.985184 1948.209839,144.088486 
z"/>
<path fill="#FFFFFF" opacity="1.000000" stroke="none" 
	d="
M2054.725586,131.253998 
	C2054.769775,131.634720 2054.574951,131.765015 2054.379883,131.895294 
	C2054.415283,131.598038 2054.450684,131.300812 2054.725586,131.253998 
z"/>
<path fill="#FEFEFE" opacity="1.000000" stroke="none" 
	d="
M963.117554,294.234894 
	C920.428467,302.583557 877.607117,271.805328 871.893799,229.054443 
	C865.274414,179.523773 902.438843,137.841492 952.153748,139.037735 
	C992.691223,140.013138 1026.634766,174.193695 1027.517090,214.927429 
	C1028.353149,253.523453 1000.951660,287.460388 963.117554,294.234894 
z"/>
<path fill="#22619D" opacity="1.000000" stroke="none" 
	d="
M188.028381,22.915522 
	C191.769867,24.918192 195.511337,26.920862 199.598175,28.969139 
	C203.419891,31.274446 206.896271,33.534145 210.675049,35.967999 
	C210.983170,97.085899 210.988892,158.029648 210.987000,219.430359 
	C203.625870,219.912109 196.272354,219.936859 188.456985,219.467804 
	C188.006226,153.621185 188.017303,88.268356 188.028381,22.915522 
z"/>
<path fill="#588BD2" opacity="1.000000" stroke="none" 
	d="
M226.991852,45.259544 
	C227.156708,45.204391 227.459549,45.372425 227.888718,45.772423 
	C227.719971,45.830505 227.424896,45.656616 226.991852,45.259544 
z"/>
<path fill="#38A3CF" opacity="1.000000" stroke="none" 
	d="
M210.811401,404.810852 
	C204.597153,409.068390 198.065521,413.031708 191.534500,416.996033 
	C190.577957,417.576630 189.624420,418.162170 188.346832,418.876129 
	C188.015991,353.323639 188.007843,287.640472 187.999374,221.491501 
	C195.019775,221.016754 202.040497,221.007797 209.529388,221.011200 
	C209.998367,280.222900 209.994446,339.422241 210.020782,398.621582 
	C210.021667,400.586761 210.329453,402.551819 210.811401,404.810852 
z"/>
<path fill="#1F569A" opacity="1.000000" stroke="none" 
	d="
M187.818176,22.659147 
	C188.017303,88.268356 188.006226,153.621185 187.988571,219.431305 
	C180.962738,219.918564 173.943497,219.948532 166.455811,219.936523 
	C165.991577,153.178070 165.983398,86.461601 166.041168,19.745180 
	C166.043732,16.795769 166.648239,13.846877 166.975067,10.481095 
	C173.854507,14.177221 180.731232,18.289997 187.818176,22.659147 
z"/>
<path fill="#0B0B50" opacity="1.000000" stroke="none" 
	d="
M2484.301025,65.740875 
	C2481.878906,63.021652 2479.968262,60.192539 2477.728271,57.653847 
	C2476.531006,56.296711 2474.766357,55.440193 2472.260254,53.642151 
	C2472.260254,58.522236 2472.260254,61.797710 2472.260254,65.073181 
	C2471.832031,65.454651 2471.404053,65.836128 2470.975830,66.217598 
	C2469.862305,65.166161 2467.837158,64.157928 2467.785156,63.056190 
	C2467.478516,56.590603 2467.632080,50.103195 2467.630859,43.623146 
	C2467.630615,42.163212 2467.631104,40.703274 2467.631104,38.667675 
	C2470.602051,38.667675 2473.201904,38.713940 2475.799561,38.657257 
	C2480.112793,38.563133 2483.703125,39.656918 2485.379395,44.144295 
	C2486.827881,48.020828 2485.890869,50.531681 2481.369141,54.550980 
	C2483.567871,58.109631 2485.787598,61.702435 2488.289551,65.751808 
	C2486.640869,65.751808 2485.658203,65.751808 2484.301025,65.740875 
M2472.809814,50.871899 
	C2475.421143,50.320786 2478.099609,49.952103 2480.578857,49.041054 
	C2480.997803,48.887123 2480.885498,45.292591 2480.461670,45.166920 
	C2477.954346,44.423691 2475.282715,44.235313 2472.251221,43.800705 
	C2472.251221,45.967739 2472.251221,48.082321 2472.809814,50.871899 
z"/>
<path fill="#EEEEF3" opacity="1.000000" stroke="none" 
	d="
M2472.530518,50.534401 
	C2472.251221,48.082321 2472.251221,45.967739 2472.251221,43.800705 
	C2475.282715,44.235313 2477.954346,44.423691 2480.461670,45.166920 
	C2480.885498,45.292591 2480.997803,48.887123 2480.578857,49.041054 
	C2478.099609,49.952103 2475.421143,50.320786 2472.530518,50.534401 
z"/>
</svg>