<svg version="1.1" id="Layer_1" xmlns="http://www.w3.org/2000/svg" xmlns:xlink="http://www.w3.org/1999/xlink" x="0px" y="0px"
	 width="100%" viewBox="0 0 322 282" enable-background="new 0 0 322 282" xml:space="preserve">
<path fill="#FDFEFE" opacity="1.000000" stroke="none" 
	d="
M323.000000,101.000000 
	C323.000000,161.999985 323.000000,222.499985 323.000000,283.000000 
	C215.666702,283.000000 108.333397,283.000000 1.000068,283.000000 
	C1.000045,189.000046 1.000045,95.000092 1.000023,1.000105 
	C108.333275,1.000070 215.666550,1.000070 322.999908,1.000035 
	C323.000000,34.166668 323.000000,67.333336 323.000000,101.000000 
M75.858582,241.101837 
	C75.858582,241.101837 75.774109,241.152863 75.886894,241.701675 
	C76.189323,241.885956 76.491753,242.070236 76.708260,242.218857 
	C76.708260,242.218857 76.689407,242.309952 76.775780,242.967438 
	C78.089439,244.716888 79.403099,246.466354 80.734375,248.263916 
	C80.734375,248.263916 80.705139,248.306000 80.825363,248.969894 
	C84.197487,253.865524 87.409927,258.882568 91.004486,263.609039 
	C93.007446,266.242706 95.646309,268.392731 98.834389,270.882446 
	C100.216980,270.796234 101.599579,270.709991 103.892120,270.876465 
	C134.602951,270.824158 165.313766,270.771851 196.617691,270.992615 
	C197.035370,270.911682 197.453049,270.830750 198.814178,270.892548 
	C206.574112,270.846741 214.334061,270.800934 222.457596,270.949890 
	C222.457596,270.949890 222.831497,270.775696 223.523514,270.817444 
	C226.060852,267.326538 228.598175,263.835632 231.718170,259.962250 
	C239.025482,249.032425 246.332794,238.102600 254.188797,226.892639 
	C255.725449,224.897003 257.262085,222.901352 259.540405,220.895554 
	C260.652466,218.884186 261.764526,216.872818 262.969208,214.985855 
	C262.969208,214.985855 262.848053,214.889038 263.580475,214.893463 
	C267.278778,213.585159 267.981689,210.539062 268.047882,207.061813 
	C268.047882,207.061813 268.132690,207.063461 268.792877,206.938904 
	C270.578949,204.868469 272.618774,202.961029 274.081787,200.683121 
	C275.637970,198.260208 276.647644,195.486313 277.983551,192.963730 
	C277.983551,192.963730 277.867249,192.902374 278.581024,192.914185 
	C284.860718,189.370865 287.546143,183.544098 288.893646,176.921326 
	C288.893646,176.921326 288.765320,176.874924 289.359711,176.673035 
	C289.570099,176.112122 289.780487,175.551208 290.000000,175.000000 
	C290.000000,175.000000 289.990082,174.991348 290.769226,174.987778 
	C291.468536,173.610565 292.167847,172.233337 292.935486,171.001266 
	C292.935486,171.001266 292.833527,170.877380 293.566956,170.861954 
	C294.013336,169.870728 294.459717,168.879517 294.973358,167.994934 
	C294.973358,167.994934 294.876953,167.913651 295.609406,167.908356 
	C296.723816,165.918228 297.838257,163.928116 299.001312,161.993286 
	C299.001312,161.993286 298.935730,161.960022 299.646332,161.885254 
	C300.086304,160.899933 300.526276,159.914612 301.065674,158.477066 
	C301.203308,158.177063 301.429840,157.978546 302.504852,157.890945 
	C307.212769,156.608856 307.657959,152.801025 307.957886,148.998871 
	C307.957886,148.998871 307.835114,148.871140 308.521912,148.950272 
	C309.174500,148.710419 309.827118,148.470566 310.479706,148.230713 
	C309.994019,147.823441 309.508331,147.416183 309.123444,146.384079 
	C309.387970,145.597977 309.652527,144.811874 310.618256,143.956009 
	C313.383423,141.407471 311.576477,136.629105 306.815918,134.485931 
	C306.298309,134.204926 305.780731,133.923935 305.204651,133.030121 
	C304.823517,132.344482 304.442352,131.658859 303.958893,130.292923 
	C302.692169,128.755875 301.425476,127.218842 300.139221,125.329208 
	C300.139221,125.329208 300.012268,124.999687 299.936249,124.334717 
	C299.014832,123.508018 298.093445,122.681313 297.126373,121.842613 
	C297.126373,121.842613 297.147522,121.884529 297.166992,121.199997 
	C296.467041,120.089844 295.767090,118.979698 294.957947,117.210144 
	C293.666504,115.461754 292.375061,113.713364 290.972107,111.331856 
	C290.379059,110.759933 289.786011,110.188011 289.112335,109.096565 
	C288.788696,108.705368 288.465057,108.314178 288.018402,107.230034 
	C283.508148,101.051079 278.997894,94.872116 274.434570,88.326981 
	C274.434570,88.326981 274.208832,88.033821 274.172699,87.321182 
	C273.166992,85.856270 272.161255,84.391357 271.019592,82.236313 
	C267.088806,76.709702 263.158020,71.183090 259.190826,65.304237 
	C259.190826,65.304237 259.016724,64.995865 258.945251,64.355995 
	C258.358734,63.767078 257.772217,63.178162 257.061523,61.924633 
	C253.387695,56.610558 249.713867,51.296482 245.924820,45.295868 
	C239.254822,35.363201 232.638290,25.393641 225.843643,15.547000 
	C225.041458,14.384502 223.299240,13.295818 221.928925,13.211575 
	C218.301147,12.988544 214.638321,13.335333 210.209427,13.242181 
	C209.150024,13.337706 208.090607,13.433230 206.119614,13.258457 
	C200.413086,13.340588 194.706573,13.422719 188.111069,13.269203 
	C184.748154,13.357394 181.385254,13.445585 177.135391,13.282099 
	C174.410660,13.388022 171.685944,13.493946 168.070251,13.309647 
	C161.718216,13.400124 155.366180,13.490602 148.115112,13.299594 
	C143.748520,13.404590 139.381927,13.509584 134.333633,13.365381 
	C133.872650,13.473053 133.411682,13.580725 132.070358,13.369397 
	C122.687065,13.417721 113.303780,13.466044 103.501060,13.323159 
	C103.501060,13.323159 103.082062,13.515315 102.322945,13.333734 
	C101.834137,13.473413 101.345329,13.613094 100.179878,13.496155 
	C98.177933,14.317011 95.637169,14.634057 94.293823,16.070726 
	C91.981110,18.544092 90.414131,21.714745 88.015869,24.994295 
	C80.783234,35.285786 73.523186,45.558277 66.357292,55.896030 
	C65.578278,57.019863 65.342934,58.520565 64.146675,59.880810 
	C57.395466,69.547852 50.644257,79.214890 43.414032,89.181152 
	C43.141357,89.669334 42.868687,90.157516 42.065510,91.038414 
	C38.696663,96.013741 35.327816,100.989075 31.388672,106.281860 
	C30.204159,108.119240 29.019646,109.956627 27.227821,112.103241 
	C21.082146,121.029663 14.959741,129.972275 8.773186,138.870285 
	C7.359886,140.903015 6.001886,142.773712 8.798293,145.253906 
	C20.973438,162.755112 33.148582,180.256302 45.591137,198.315109 
	C46.690014,199.578400 47.788887,200.841690 48.933708,202.816269 
	C50.927917,205.577286 52.922131,208.338303 54.947227,210.993195 
	C54.947227,210.993195 54.881195,211.081848 54.979908,211.702484 
	C55.638855,212.489578 56.297798,213.276672 56.996876,214.007782 
	C56.996876,214.007782 56.929890,214.023804 56.997967,214.573898 
	C57.349262,214.963943 57.700562,215.353989 58.130478,216.301697 
	C58.395889,216.548904 58.661301,216.796112 59.057484,217.685257 
	C60.008099,218.873032 60.958714,220.060822 62.036957,221.916443 
	C65.622192,226.807022 69.207420,231.697601 72.681412,236.787872 
	C72.681412,236.787872 72.812195,236.975372 72.873390,237.534866 
	C73.008476,237.665070 73.143562,237.795258 73.368103,238.441452 
	C73.840546,238.944794 74.312988,239.448135 74.927872,240.536270 
	C75.239708,240.757660 75.551544,240.979034 75.858582,241.101837 
z"/>
<path fill="#4089CA" opacity="1.000000" stroke="none" 
	d="
M74.785431,239.951462 
	C74.312988,239.448135 73.840546,238.944794 73.441528,238.044022 
	C73.280693,237.422852 73.046448,237.199112 72.812195,236.975372 
	C72.812195,236.975372 72.681412,236.787872 72.855591,236.346710 
	C73.356125,235.270035 73.682480,234.634521 74.399261,233.992950 
	C78.230469,233.654678 78.976738,231.411636 79.025253,228.391922 
	C79.305466,210.952728 79.444221,193.506714 80.079254,176.079361 
	C80.492554,164.737000 76.668991,153.275009 81.333832,142.014771 
	C82.103439,141.919495 82.542473,141.860611 83.356735,141.856049 
	C84.488945,141.956192 85.245918,142.002045 86.257156,142.328979 
	C88.674423,142.410797 90.837433,142.211533 93.401611,141.993118 
	C94.873772,141.995682 95.944763,142.017395 96.966721,142.405212 
	C95.945229,148.319962 94.196457,153.859726 94.132790,159.418793 
	C93.834564,185.457199 94.063843,211.501312 93.902885,237.542130 
	C93.886627,240.172134 92.940781,243.030441 91.651306,245.352402 
	C90.374405,247.651764 89.509186,249.266769 91.745064,251.432465 
	C92.377090,252.044662 92.051094,253.645935 92.164482,254.793594 
	C90.850945,254.763535 89.265251,255.183731 88.289886,254.594193 
	C86.943649,253.780487 86.184738,252.055679 84.939293,250.997711 
	C83.676765,249.925232 82.128342,249.189331 80.705139,248.306000 
	C80.705139,248.306000 80.734375,248.263916 80.814316,247.852722 
	C80.527130,244.883331 80.441963,242.094101 76.689407,242.309952 
	C76.689407,242.309952 76.708260,242.218857 76.707092,241.957336 
	C76.395309,241.514816 76.084709,241.333847 75.774109,241.152863 
	C75.774109,241.152863 75.858582,241.101837 75.784210,240.868042 
	C75.401703,240.406647 75.093567,240.179062 74.785431,239.951462 
z"/>
<path fill="#4191C7" opacity="1.000000" stroke="none" 
	d="
M80.765251,248.637939 
	C82.128342,249.189331 83.676765,249.925232 84.939293,250.997711 
	C86.184738,252.055679 86.943649,253.780487 88.289886,254.594193 
	C89.265251,255.183731 90.850945,254.763535 92.164482,254.793594 
	C92.051094,253.645935 92.377090,252.044662 91.745064,251.432465 
	C89.509186,249.266769 90.374405,247.651764 91.651306,245.352402 
	C92.940781,243.030441 93.886627,240.172134 93.902885,237.542130 
	C94.063843,211.501312 93.834564,185.457199 94.132790,159.418793 
	C94.196457,153.859726 95.945229,148.319962 96.939407,142.344345 
	C96.961136,141.917389 96.932114,141.787964 97.379814,141.855530 
	C100.213394,141.886948 102.599266,141.850815 105.441422,141.863220 
	C109.257607,141.878616 112.617516,141.845459 116.313652,141.856720 
	C117.100647,141.937653 117.551430,141.974167 117.925697,142.382904 
	C116.378624,143.280045 114.941940,143.947678 113.431854,144.306030 
	C105.207527,146.257782 104.999916,146.481232 104.999825,154.827911 
	C104.999481,184.899078 105.083527,214.970688 104.922821,245.041000 
	C104.893715,250.486694 108.356117,256.327881 103.589996,261.561432 
	C108.428879,260.052734 113.267761,258.544006 117.943787,257.340393 
	C116.693474,258.359467 115.602928,259.068848 114.519096,259.788300 
	C109.011330,263.444336 103.505264,267.102966 97.998611,270.760681 
	C95.646309,268.392731 93.007446,266.242706 91.004486,263.609039 
	C87.409927,258.882568 84.197487,253.865524 80.765251,248.637939 
z"/>
<path fill="#28808E" opacity="1.000000" stroke="none" 
	d="
M258.798737,220.905701 
	C257.262085,222.901352 255.725449,224.897003 253.528397,227.011795 
	C251.102814,228.998352 249.405777,230.937134 247.549744,232.709381 
	C246.190582,234.007187 244.622528,235.086243 242.866898,236.486679 
	C242.402496,231.671692 241.807281,228.059860 241.756927,224.440445 
	C241.655243,217.128159 242.498947,209.739441 241.695328,202.522263 
	C241.151352,197.636795 240.153275,193.529617 246.548355,191.207367 
	C243.505554,189.503265 241.262131,188.246857 239.008545,186.716553 
	C238.987854,186.260071 238.977356,186.077515 239.024231,185.689835 
	C239.081604,185.484695 239.130615,185.061508 239.406006,185.010284 
	C240.123108,184.637985 240.564804,184.316940 241.315536,183.984818 
	C242.025101,183.880341 242.425629,183.786957 243.012146,183.985489 
	C246.483398,184.894989 247.327972,184.223618 247.298798,180.836487 
	C247.318848,180.639313 247.328857,180.243073 247.266266,180.208313 
	C247.203674,180.173553 247.261932,180.304352 247.547379,180.282349 
	C248.204407,180.173691 248.575989,180.087006 249.256378,180.127014 
	C252.141418,181.399567 252.838699,180.041916 252.896545,177.822021 
	C252.934387,177.862183 252.824127,177.857285 253.208862,177.899109 
	C255.031143,176.906006 256.468689,175.871078 257.932770,174.879913 
	C257.959290,174.923676 257.860260,174.897858 258.243896,174.928009 
	C260.041077,173.903229 261.454559,172.848312 262.894989,171.839127 
	C262.921906,171.884857 262.817566,171.904312 263.070190,171.848175 
	C263.555573,171.547363 263.788330,171.302689 264.135498,170.867523 
	C264.463959,170.431107 264.732056,170.333374 265.182495,170.530380 
	C265.515045,170.848358 265.748474,170.957123 266.361572,171.036041 
	C267.749329,171.042175 269.501831,171.369110 269.716187,170.935547 
	C272.718719,164.862900 275.648773,170.250778 278.768372,171.121307 
	C276.896423,172.609848 275.024445,174.098389 273.044159,175.673050 
	C273.521210,176.756348 273.736877,177.795441 274.336700,178.513702 
	C277.045685,181.757370 277.994537,184.972702 275.121338,188.705933 
	C274.053894,190.092880 273.307556,191.846832 272.883423,193.550110 
	C272.713348,194.233109 273.804871,195.230255 274.167450,196.402496 
	C272.052734,200.168198 270.092712,203.615829 268.132690,207.063461 
	C268.132690,207.063461 268.047882,207.061813 267.764435,207.243134 
	C265.936676,209.912659 264.392365,212.400848 262.848053,214.889038 
	C262.848053,214.889038 262.969208,214.985855 262.630432,215.083893 
	C261.127319,217.089859 259.963043,218.997787 258.798737,220.905701 
z"/>
<path fill="#22728A" opacity="1.000000" stroke="none" 
	d="
M231.135513,260.344727 
	C228.598175,263.835632 226.060852,267.326538 223.099579,270.617493 
	C222.471069,270.230377 222.230042,270.136353 221.593842,269.930206 
	C218.013397,269.324341 214.791687,268.923798 211.264511,268.485291 
	C210.577759,264.010498 209.671829,259.643951 209.317245,255.233047 
	C209.097168,252.495453 210.129425,249.653152 209.883560,246.922318 
	C208.665283,233.391357 208.291138,219.936417 211.831787,206.640823 
	C211.949478,206.198898 211.291031,205.550278 211.103027,204.740936 
	C211.481720,203.996368 211.751724,203.508865 212.378113,202.976868 
	C215.822617,201.619370 218.910721,200.306366 222.238647,199.275238 
	C227.350021,201.496155 223.924957,205.526855 224.664383,208.675598 
	C225.356522,208.675598 225.981522,208.675598 226.606506,208.675598 
	C227.321609,208.675598 228.036697,208.675598 229.378754,208.675598 
	C228.856018,217.576660 228.362381,225.982376 227.868744,234.388092 
	C227.446136,234.399155 227.023544,234.410217 226.600937,234.421280 
	C226.151993,232.794937 225.703064,231.168610 225.254120,229.542282 
	C224.836075,229.601776 224.418045,229.661285 224.000000,229.720795 
	C224.000000,231.483795 223.899002,233.253708 224.018845,235.008530 
	C224.384445,240.361511 222.051422,246.724792 229.365341,249.582901 
	C229.730789,249.725708 229.827133,250.742676 229.917831,251.371506 
	C230.348618,254.358978 230.733994,257.353027 231.135513,260.344727 
z"/>
<path fill="#26788C" opacity="1.000000" stroke="none" 
	d="
M231.426849,260.153503 
	C230.733994,257.353027 230.348618,254.358978 229.917831,251.371506 
	C229.827133,250.742676 229.730789,249.725708 229.365341,249.582901 
	C222.051422,246.724792 224.384445,240.361511 224.018845,235.008530 
	C223.899002,233.253708 224.000000,231.483795 224.000000,229.720795 
	C224.418045,229.661285 224.836075,229.601776 225.254120,229.542282 
	C225.703064,231.168610 226.151993,232.794937 226.600937,234.421280 
	C227.023544,234.410217 227.446136,234.399155 227.868744,234.388092 
	C228.362381,225.982376 228.856018,217.576660 229.378754,208.675598 
	C228.036697,208.675598 227.321609,208.675598 226.606506,208.675598 
	C225.981522,208.675598 225.356522,208.675598 224.664383,208.675598 
	C223.924957,205.526855 227.350021,201.496155 222.405853,198.960892 
	C226.529343,195.155579 230.725449,191.946503 235.022720,188.462769 
	C235.950165,187.742004 236.776459,187.295914 237.955261,186.899902 
	C238.544754,186.963470 238.781723,186.976959 239.018707,186.990463 
	C241.262131,188.246857 243.505554,189.503265 246.548355,191.207367 
	C240.153275,193.529617 241.151352,197.636795 241.695328,202.522263 
	C242.498947,209.739441 241.655243,217.128159 241.756927,224.440445 
	C241.807281,228.059860 242.402496,231.671692 242.866898,236.486679 
	C244.622528,235.086243 246.190582,234.007187 247.549744,232.709381 
	C249.405777,230.937134 251.102814,228.998352 253.254044,227.151855 
	C246.332794,238.102600 239.025482,249.032425 231.426849,260.153503 
M227.359848,243.610168 
	C227.911133,242.349289 228.462433,241.088409 229.013733,239.827545 
	C228.298080,239.666550 227.582428,239.505569 226.866776,239.344589 
	C226.797302,240.733261 226.727844,242.121918 227.359848,243.610168 
z"/>
<path fill="#206D88" opacity="1.000000" stroke="none" 
	d="
M210.994370,204.998016 
	C211.291031,205.550278 211.949478,206.198898 211.831787,206.640823 
	C208.291138,219.936417 208.665283,233.391357 209.883560,246.922318 
	C210.129425,249.653152 209.097168,252.495453 209.317245,255.233047 
	C209.671829,259.643951 210.577759,264.010498 211.264511,268.485291 
	C214.791687,268.923798 218.013397,269.324341 221.611725,270.088440 
	C221.988358,270.452026 222.093994,270.755157 222.093994,270.755157 
	C214.334061,270.800934 206.574112,270.846741 198.185074,270.611633 
	C197.045502,270.192291 196.535034,270.053894 195.772385,269.665161 
	C194.344772,269.276154 193.169327,269.137482 192.003937,268.628052 
	C192.553909,265.966980 195.129684,263.821259 192.357040,261.251892 
	C192.016602,260.936401 192.820831,259.508698 192.917465,258.578033 
	C193.433334,253.609421 194.476944,248.605682 194.229431,243.669662 
	C193.892563,236.951355 190.858948,230.180786 194.165237,223.613098 
	C195.613083,220.737061 195.211105,218.510941 194.315704,215.841324 
	C200.082077,212.121506 205.538223,208.559753 210.994370,204.998016 
z"/>
<path fill="#6399D1" opacity="1.000000" stroke="none" 
	d="
M178.022339,13.533778 
	C181.385254,13.445585 184.748154,13.357394 188.687561,13.709754 
	C190.957825,14.617546 192.651611,15.084788 194.343994,15.554704 
	C195.548294,19.667845 197.581223,23.735775 197.795197,27.897230 
	C198.312790,37.963707 198.460159,48.108353 197.734940,58.147671 
	C197.479538,61.683117 199.173965,66.817528 193.685928,68.881927 
	C192.235123,68.897659 191.094025,69.049545 189.676636,69.190758 
	C189.035400,69.228470 188.670502,69.276855 188.107086,69.009445 
	C185.266968,66.810936 182.625351,64.928207 180.023178,62.681213 
	C179.716629,59.297287 179.036987,56.272411 179.084122,53.258904 
	C179.260696,41.968571 179.775620,30.683096 179.903488,19.392857 
	C179.925522,17.447180 178.681519,15.487168 178.022339,13.533778 
z"/>
<path fill="#6DA8D3" opacity="1.000000" stroke="none" 
	d="
M207.031204,13.528755 
	C208.090607,13.433230 209.150024,13.337706 210.724396,13.671971 
	C211.800934,14.390226 212.338882,14.864473 212.927643,14.939450 
	C222.674454,16.180658 223.301682,16.895212 223.006500,26.608315 
	C222.976273,27.602797 223.001266,28.598969 223.001266,29.594357 
	C223.001190,46.184166 223.008255,62.773983 222.990753,79.363777 
	C222.988937,81.089119 222.841553,82.814323 222.765854,84.450233 
	C220.712891,84.823082 217.905838,80.998055 217.655670,85.815201 
	C214.535660,84.206085 211.746094,82.658813 208.864151,80.893456 
	C208.473785,80.313293 208.175812,79.951202 207.918243,79.195351 
	C207.965134,78.540939 207.971573,78.280289 208.276337,77.726913 
	C209.049759,71.205315 209.823410,64.981697 209.933060,58.746410 
	C210.117950,48.232117 210.148666,37.699013 209.699432,27.197124 
	C209.503265,22.611347 207.961761,18.083118 207.031204,13.528755 
z"/>
<path fill="#4177C8" opacity="1.000000" stroke="none" 
	d="
M74.008827,233.999008 
	C73.682480,234.634521 73.356125,235.270035 72.911217,236.246857 
	C69.207420,231.697601 65.622192,226.807022 61.973793,221.213654 
	C60.915993,219.355026 59.921356,218.199173 58.926712,217.043320 
	C58.661301,216.796112 58.395889,216.548904 58.035034,215.756287 
	C57.603020,214.815201 57.266457,214.419495 56.929893,214.023804 
	C56.929890,214.023804 56.996876,214.007782 56.980331,213.670471 
	C56.269588,212.582733 55.575390,211.832291 54.881195,211.081848 
	C54.881195,211.081848 54.947227,210.993195 54.951527,210.662872 
	C53.633110,207.556778 52.310398,204.781006 51.264793,201.775970 
	C53.746143,197.420151 52.714638,193.335663 52.377819,188.890732 
	C51.665997,179.496872 52.716358,169.972351 52.990387,160.499893 
	C53.175968,154.084946 51.677979,147.322189 57.439644,142.002182 
	C59.911816,141.901001 61.947849,141.828491 64.430313,141.818207 
	C67.577301,141.845123 70.277870,141.809814 73.235519,141.840973 
	C73.663589,141.953339 73.834564,141.999237 73.952393,142.420807 
	C72.584854,143.531479 71.309204,144.803024 69.948837,144.901260 
	C65.807098,145.200287 64.067650,147.238983 63.977707,151.270737 
	C63.711781,163.190689 63.104073,175.107681 63.080318,187.026718 
	C63.064320,195.057037 63.636051,203.102631 64.264244,211.116333 
	C64.943062,219.775848 67.877670,227.599808 74.008827,233.999008 
z"/>
<path fill="#7CBBD7" opacity="1.000000" stroke="none" 
	d="
M246.040039,45.982403 
	C249.713867,51.296482 253.387695,56.610558 257.094177,62.622505 
	C257.756775,63.878876 258.386749,64.437370 259.016724,64.995865 
	C259.016724,64.995865 259.190826,65.304237 259.022583,65.782974 
	C258.593750,67.164909 257.937317,68.171974 258.142273,68.952965 
	C258.947571,72.021408 260.596893,74.971115 260.852844,78.054558 
	C261.162354,81.783302 260.319519,85.599213 260.078979,89.383980 
	C259.641235,96.270721 259.279846,103.162308 258.605560,109.917923 
	C257.558929,109.511879 256.793365,109.239792 256.013916,108.982529 
	C256.000000,108.997368 256.027710,108.972443 255.892426,108.646912 
	C253.848022,107.534325 251.938919,106.747261 250.013794,105.978073 
	C249.997787,105.995949 250.034058,105.968170 249.876999,105.668228 
	C246.112762,102.973549 242.505585,100.578804 239.265808,98.097176 
	C243.970459,96.873428 244.436401,92.925636 244.526871,89.739792 
	C244.940567,75.174301 244.875412,60.595219 245.246689,46.010307 
	C245.687393,45.993874 245.863708,45.988140 246.040039,45.982403 
z"/>
<path fill="#6AA1D2" opacity="1.000000" stroke="none" 
	d="
M206.575409,13.393606 
	C207.961761,18.083118 209.503265,22.611347 209.699432,27.197124 
	C210.148666,37.699013 210.117950,48.232117 209.933060,58.746410 
	C209.823410,64.981697 209.049759,71.205315 207.926880,77.686859 
	C203.819473,76.330376 200.359833,74.721207 196.910599,73.127319 
	C196.921005,73.142586 196.883011,73.141510 196.885223,72.806259 
	C195.923492,71.320038 194.959579,70.169060 193.995651,69.018082 
	C199.173965,66.817528 197.479538,61.683117 197.734940,58.147671 
	C198.460159,48.108353 198.312790,37.963707 197.795197,27.897230 
	C197.581223,23.735775 195.548294,19.667845 194.343994,15.554704 
	C192.651611,15.084788 190.957825,14.617546 189.132050,13.827578 
	C194.706573,13.422719 200.413086,13.340588 206.575409,13.393606 
z"/>
<path fill="#5D90CE" opacity="1.000000" stroke="none" 
	d="
M177.578857,13.407939 
	C178.681519,15.487168 179.925522,17.447180 179.903488,19.392857 
	C179.775620,30.683096 179.260696,41.968571 179.084122,53.258904 
	C179.036987,56.272411 179.716629,59.297287 179.667267,62.641941 
	C174.532806,60.614670 169.793686,58.262398 165.038666,55.603455 
	C165.002396,54.886616 164.982025,54.476452 164.973694,53.601654 
	C165.323837,42.563267 165.485123,31.978813 166.123688,21.423233 
	C166.284317,18.767944 167.974152,16.205164 168.961212,13.599871 
	C171.685944,13.493946 174.410660,13.388022 177.578857,13.407939 
z"/>
<path fill="#348A92" opacity="1.000000" stroke="none" 
	d="
M274.322144,196.084412 
	C273.804871,195.230255 272.713348,194.233109 272.883423,193.550110 
	C273.307556,191.846832 274.053894,190.092880 275.121338,188.705933 
	C277.994537,184.972702 277.045685,181.757370 274.336700,178.513702 
	C273.736877,177.795441 273.521210,176.756348 273.044159,175.673050 
	C275.024445,174.098389 276.896423,172.609848 278.768372,171.121307 
	C275.648773,170.250778 272.718719,164.862900 269.716187,170.935547 
	C269.501831,171.369110 267.749329,171.042175 266.356018,170.776978 
	C266.000793,170.312393 266.001648,170.139664 266.193970,169.687714 
	C273.589874,164.939728 280.794250,160.470963 287.999329,156.001099 
	C288.000000,156.000000 288.002594,155.999542 288.301331,155.971954 
	C289.193512,155.470306 289.786896,154.996216 290.405090,154.483582 
	C290.429901,154.445007 290.520386,154.459839 290.850464,154.407928 
	C294.522705,152.271027 297.864807,150.186050 301.477844,148.067413 
	C302.175293,147.720078 302.601807,147.406418 303.371979,147.039856 
	C305.782776,145.999908 307.849915,145.012833 309.917053,144.025772 
	C309.652527,144.811874 309.387970,145.597977 308.821045,146.844116 
	C308.290802,147.826492 308.062958,148.348816 307.835114,148.871140 
	C307.835114,148.871140 307.957886,148.998871 307.607788,149.072998 
	C305.420227,152.058578 303.582764,154.970062 301.745300,157.881531 
	C301.429840,157.978546 301.203308,158.177063 300.735901,158.851059 
	C299.915985,160.136703 299.425842,161.048370 298.935730,161.960022 
	C298.935730,161.960022 299.001312,161.993286 298.687500,162.128891 
	C297.208130,164.147552 296.042542,166.030594 294.876953,167.913651 
	C294.876953,167.913651 294.973358,167.994934 294.652863,168.076599 
	C293.832764,169.064636 293.333130,169.971008 292.833527,170.877380 
	C292.833527,170.877380 292.935486,171.001266 292.622559,171.087830 
	C291.536438,172.446716 290.763245,173.719025 289.990082,174.991348 
	C289.990082,174.991348 290.000000,175.000000 289.727356,175.130737 
	C289.224945,175.799301 288.995148,176.337112 288.765320,176.874924 
	C288.765320,176.874924 288.893646,176.921326 288.562195,177.038788 
	C284.776245,182.404953 281.321747,187.653656 277.867249,192.902374 
	C277.867249,192.902374 277.983551,192.963730 277.631531,192.983490 
	C276.293732,194.030319 275.307922,195.057358 274.322144,196.084412 
z"/>
<path fill="#5788CB" opacity="1.000000" stroke="none" 
	d="
M168.515732,13.454760 
	C167.974152,16.205164 166.284317,18.767944 166.123688,21.423233 
	C165.485123,31.978813 165.323837,42.563267 164.587860,53.586319 
	C159.790024,51.707062 155.390091,49.378506 150.843719,46.798416 
	C150.125504,46.044647 149.553741,45.542408 149.146942,44.709877 
	C150.207947,42.023537 151.652481,39.719261 151.880783,37.300201 
	C152.299255,32.866066 151.937714,28.363058 152.019104,23.890907 
	C152.087784,20.117666 152.414551,16.320995 149.014145,13.581079 
	C155.366180,13.490602 161.718216,13.400124 168.515732,13.454760 
z"/>
<path fill="#83C3DA" opacity="1.000000" stroke="none" 
	d="
M258.886597,110.051880 
	C259.279846,103.162308 259.641235,96.270721 260.078979,89.383980 
	C260.319519,85.599213 261.162354,81.783302 260.852844,78.054558 
	C260.596893,74.971115 258.947571,72.021408 258.142273,68.952965 
	C257.937317,68.171974 258.593750,67.164909 259.040802,65.959099 
	C263.158020,71.183090 267.088806,76.709702 270.819885,82.757431 
	C271.816406,84.863647 273.012604,86.448738 274.208832,88.033829 
	C274.208832,88.033821 274.434570,88.326981 274.159119,88.694122 
	C275.719025,98.854172 276.126587,108.600677 272.699036,118.162666 
	C272.462189,118.095062 271.990265,117.954483 271.856445,117.731850 
	C271.412201,117.368935 271.101807,117.228653 270.453308,117.027725 
	C266.372345,114.662018 262.629456,112.356949 258.886597,110.051880 
z"/>
<path fill="#7AAED4" opacity="1.000000" stroke="none" 
	d="
M245.982422,45.639137 
	C245.863708,45.988140 245.687393,45.993874 244.908630,45.951908 
	C240.892242,41.180084 237.497757,36.441730 234.057281,31.736996 
	C231.896088,28.781656 229.665894,25.876785 227.466660,22.949268 
	C227.060501,23.252851 226.654327,23.556433 226.248169,23.860014 
	C226.664459,25.250223 227.320206,26.618326 227.450989,28.034893 
	C227.806549,31.886518 228.261398,35.774384 228.073318,39.618351 
	C227.875031,43.670952 226.324585,47.722557 226.526917,51.715721 
	C226.919693,59.467426 228.408539,67.160255 228.892715,74.911873 
	C229.199966,79.830765 228.185028,84.928276 234.432236,87.488808 
	C230.334366,90.232925 229.598511,92.123726 234.269470,93.743294 
	C235.409851,94.138695 236.073044,95.910408 236.643585,97.027847 
	C235.918518,96.948151 235.505478,96.889908 234.877899,96.585281 
	C233.125259,95.515610 231.587128,94.692314 229.878906,93.590164 
	C228.165054,92.507347 226.621292,91.703400 225.034760,90.918701 
	C224.991974,90.937950 225.081299,90.920219 224.927643,90.643166 
	C223.488251,89.702301 222.202499,89.038498 220.664230,88.209953 
	C219.915466,87.708275 219.419220,87.371323 218.863159,86.778008 
	C218.530945,86.306770 218.258530,86.091911 217.986115,85.877045 
	C217.905838,80.998055 220.712891,84.823082 222.765854,84.450233 
	C222.841553,82.814323 222.988937,81.089119 222.990753,79.363777 
	C223.008255,62.773983 223.001190,46.184166 223.001266,29.594357 
	C223.001266,28.598969 222.976273,27.602797 223.006500,26.608315 
	C223.301682,16.895212 222.674454,16.180658 212.927643,14.939450 
	C212.338882,14.864473 211.800934,14.390226 211.114395,13.778563 
	C214.638321,13.335333 218.301147,12.988544 221.928925,13.211575 
	C223.299240,13.295818 225.041458,14.384502 225.843643,15.547000 
	C232.638290,25.393641 239.254822,35.363201 245.982422,45.639137 
z"/>
<path fill="#517FCA" opacity="1.000000" stroke="none" 
	d="
M148.564636,13.440336 
	C152.414551,16.320995 152.087784,20.117666 152.019104,23.890907 
	C151.937714,28.363058 152.299255,32.866066 151.880783,37.300201 
	C151.652481,39.719261 150.207947,42.023537 148.795959,44.660591 
	C145.188812,43.288353 142.097610,41.635105 138.831909,39.728462 
	C137.771408,38.649536 136.885406,37.824009 135.853165,36.658897 
	C135.878250,34.448586 135.915115,32.553722 136.245819,30.711605 
	C137.290039,24.895214 138.114075,19.121878 135.015335,13.614579 
	C139.381927,13.509584 143.748520,13.404590 148.564636,13.440336 
z"/>
<path fill="#4661C2" opacity="1.000000" stroke="none" 
	d="
M45.323727,197.757507 
	C33.148582,180.256302 20.973438,162.755112 8.913034,144.547943 
	C10.006671,143.174576 10.985567,142.507187 12.432906,141.895905 
	C17.935640,141.991913 22.969929,142.031815 27.958637,142.433914 
	C24.897253,149.349365 21.527205,155.994400 25.936678,163.122269 
	C29.716463,169.232269 33.962994,175.053513 38.007271,181.375366 
	C40.678814,186.827805 43.346195,191.907288 45.828133,197.167847 
	C45.536369,197.485107 45.430046,197.621307 45.323727,197.757507 
z"/>
<path fill="#175080" opacity="1.000000" stroke="none" 
	d="
M98.416504,270.821564 
	C103.505264,267.102966 109.011330,263.444336 114.519096,259.788300 
	C115.602928,259.068848 116.693474,258.359467 118.241531,257.205994 
	C119.745659,256.487061 120.789177,256.207611 122.212181,255.921387 
	C125.138283,254.751663 127.649475,253.501236 130.241852,252.451263 
	C132.665604,251.469604 134.040115,252.154633 133.990143,255.059433 
	C133.910324,259.698730 133.991272,264.340790 133.535355,268.986450 
	C124.595772,268.994446 116.123573,268.916504 107.655754,269.074036 
	C106.088821,269.103149 104.539574,270.082794 102.982162,270.623718 
	C101.599579,270.709991 100.216980,270.796234 98.416504,270.821564 
z"/>
<path fill="#89C9DA" opacity="1.000000" stroke="none" 
	d="
M272.935913,118.230270 
	C276.126587,108.600677 275.719025,98.854172 274.185638,88.877213 
	C278.997894,94.872116 283.508148,101.051079 287.766327,107.844643 
	C286.716278,112.054642 285.755005,115.625549 285.210480,119.258919 
	C285.024261,120.501373 285.752777,121.956902 286.296387,123.214325 
	C287.045776,124.947769 288.016205,126.585655 288.568359,128.184814 
	C287.220856,127.698547 286.196991,127.291954 284.997742,126.612350 
	C283.879608,125.897469 282.936829,125.455582 281.825989,124.742218 
	C280.747131,123.993500 279.836304,123.516258 278.795166,122.735924 
	C276.755219,121.031982 274.845581,119.631126 272.935913,118.230270 
z"/>
<path fill="#4B77C7" opacity="1.000000" stroke="none" 
	d="
M134.674484,13.489981 
	C138.114075,19.121878 137.290039,24.895214 136.245819,30.711605 
	C135.915115,32.553722 135.878250,34.448586 135.494278,36.655251 
	C133.182648,35.698170 131.083633,34.405151 128.644257,33.050163 
	C126.540527,31.971941 124.777176,30.955685 122.965332,29.624531 
	C122.270775,28.879377 121.624702,28.449121 120.984314,28.012194 
	C120.989983,28.005520 120.979156,28.022926 120.975365,27.630798 
	C120.673363,26.503931 120.447418,25.729071 120.065399,25.040852 
	C117.229675,19.932308 119.962021,15.144097 125.659950,14.941286 
	C128.101959,14.854365 130.521149,14.125553 132.950699,13.688393 
	C133.411682,13.580725 133.872650,13.473053 134.674484,13.489981 
z"/>
<path fill="#8ECFDC" opacity="1.000000" stroke="none" 
	d="
M288.891937,128.264481 
	C288.016205,126.585655 287.045776,124.947769 286.296387,123.214325 
	C285.752777,121.956902 285.024261,120.501373 285.210480,119.258919 
	C285.755005,115.625549 286.716278,112.054642 287.827820,108.191116 
	C288.465057,108.314178 288.788696,108.705368 289.122925,109.723763 
	C289.783569,110.888969 290.433563,111.426979 291.083588,111.964981 
	C292.375061,113.713364 293.666504,115.461754 294.989929,117.905472 
	C295.730469,119.695374 296.438995,120.789955 297.147522,121.884529 
	C297.147522,121.884529 297.126373,121.842613 297.119629,122.203224 
	C298.079376,123.375786 299.045807,124.187737 300.012268,124.999687 
	C300.012268,124.999687 300.139221,125.329208 300.121033,125.890099 
	C301.422302,127.958405 302.741730,129.465820 304.061188,130.973236 
	C304.442352,131.658859 304.823517,132.344482 305.042786,133.622742 
	C303.578033,134.532898 302.275146,134.850464 300.680298,135.117523 
	C299.901306,134.764236 299.414307,134.461456 298.917786,133.777176 
	C297.524841,132.649780 296.141388,131.903870 294.416748,131.100159 
	C292.378021,130.373383 290.680481,129.704422 288.949646,128.843948 
	C288.916351,128.652451 288.891937,128.264481 288.891937,128.264481 
z"/>
<path fill="#456DBE" opacity="1.000000" stroke="none" 
	d="
M132.510529,13.528894 
	C130.521149,14.125553 128.101959,14.854365 125.659950,14.941286 
	C119.962021,15.144097 117.229675,19.932308 120.065399,25.040852 
	C120.447418,25.729071 120.673363,26.503931 120.608643,27.624550 
	C118.832779,27.668449 117.419846,27.326471 115.854210,26.681282 
	C113.138397,24.908665 110.575287,23.439255 107.855743,21.670643 
	C105.090797,19.565052 102.482285,17.758665 99.972870,15.728449 
	C100.333488,14.920672 100.595001,14.336722 100.856522,13.752774 
	C101.345329,13.613094 101.834137,13.473413 102.789993,13.516383 
	C103.257050,13.699033 103.621902,13.736351 103.621902,13.736351 
	C103.621902,13.736351 103.920486,13.514367 103.920486,13.514368 
	C113.303780,13.466044 122.687065,13.417721 132.510529,13.528894 
z"/>
<path fill="#275573" opacity="1.000000" stroke="none" 
	d="
M103.437141,270.750092 
	C104.539574,270.082794 106.088821,269.103149 107.655754,269.074036 
	C116.123573,268.916504 124.595772,268.994446 134.003418,268.991638 
	C141.960526,268.988190 148.980652,268.984283 156.469208,268.986053 
	C163.623856,268.991211 170.310104,268.990723 177.462662,268.993835 
	C182.617294,268.997864 187.305588,268.998322 191.993896,268.998779 
	C193.169327,269.137482 194.344772,269.276154 195.735458,269.866516 
	C195.950714,270.318237 196.024597,270.719543 196.024597,270.719543 
	C165.313766,270.771851 134.602951,270.824158 103.437141,270.750092 
z"/>
<path fill="#2B3D7E" opacity="1.000000" stroke="none" 
	d="
M64.855415,59.846462 
	C65.342934,58.520565 65.578278,57.019863 66.357292,55.896030 
	C73.523186,45.558277 80.783234,35.285786 88.401337,24.903259 
	C88.786804,24.812225 89.040085,25.030298 88.991409,25.387264 
	C87.290070,29.489075 85.637398,33.233921 83.632370,37.023308 
	C82.187698,38.711334 81.095375,40.354828 79.893394,42.256142 
	C79.520836,43.007362 79.257927,43.500767 78.686813,44.147263 
	C75.587509,48.197880 72.796410,52.095398 69.692215,56.131863 
	C67.951462,57.543232 66.523819,58.815651 65.035500,60.028152 
	C64.974831,59.968227 64.855415,59.846462 64.855415,59.846462 
z"/>
<path fill="#1E2379" opacity="1.000000" stroke="none" 
	d="
M11.964462,141.839798 
	C10.985567,142.507187 10.006671,143.174576 8.993144,144.216721 
	C6.001886,142.773712 7.359886,140.903015 8.773186,138.870285 
	C14.959741,129.972275 21.082146,121.029663 27.585199,112.049225 
	C27.942577,111.995216 28.084194,112.174026 28.056324,112.546844 
	C26.983330,115.271500 26.132158,117.734688 24.857555,119.954773 
	C20.642183,127.297043 16.274000,134.551590 11.964462,141.839798 
z"/>
<path fill="#2B3D7E" opacity="1.000000" stroke="none" 
	d="
M43.893047,88.881927 
	C50.644257,79.214890 57.395466,69.547852 64.501045,59.863636 
	C64.855415,59.846462 64.974831,59.968227 64.999832,60.390583 
	C63.346684,64.204323 61.668537,67.595703 59.673988,71.150368 
	C57.232986,74.537605 55.108391,77.761559 52.832024,81.286850 
	C49.835625,84.123291 46.990993,86.658401 44.079460,89.118523 
	C44.012558,89.043533 43.893047,88.881927 43.893047,88.881927 
z"/>
<path fill="#28327D" opacity="1.000000" stroke="none" 
	d="
M31.958971,105.964401 
	C35.327816,100.989075 38.696663,96.013741 42.451218,90.947372 
	C42.836922,90.856339 43.062920,91.082916 42.921677,91.352264 
	C42.848545,92.751572 42.916656,93.881516 42.983925,95.380737 
	C42.983063,96.488541 42.983044,97.227074 42.618107,97.979599 
	C40.786030,99.122841 39.288170,100.214783 37.859264,101.390518 
	C35.950752,102.960884 34.095760,104.596283 32.153183,106.143799 
	C32.088589,106.083847 31.958971,105.964401 31.958971,105.964401 
z"/>
<path fill="#E3F7F9" opacity="1.000000" stroke="none" 
	d="
M310.267639,143.990891 
	C307.849915,145.012833 305.782776,145.999908 303.390869,146.683594 
	C304.354980,143.993866 305.643890,141.607529 307.194458,139.006607 
	C307.373505,137.507538 307.290894,136.223068 307.208282,134.938583 
	C311.576477,136.629105 313.383423,141.407471 310.267639,143.990891 
z"/>
<path fill="#E1F5F6" opacity="1.000000" stroke="none" 
	d="
M278.224121,192.908264 
	C281.321747,187.653656 284.776245,182.404953 288.520142,176.985062 
	C287.546143,183.544098 284.860718,189.370865 278.224121,192.908264 
z"/>
<path fill="#E1F5F6" opacity="1.000000" stroke="none" 
	d="
M274.167450,196.402496 
	C275.307922,195.057358 276.293732,194.030319 277.587708,192.934479 
	C276.647644,195.486313 275.637970,198.260208 274.081787,200.683121 
	C272.618774,202.961029 270.578949,204.868469 268.462769,207.001190 
	C270.092712,203.615829 272.052734,200.168198 274.167450,196.402496 
z"/>
<path fill="#2B3D7E" opacity="1.000000" stroke="none" 
	d="
M100.518196,13.624464 
	C100.595001,14.336722 100.333488,14.920672 99.748505,15.733883 
	C99.425041,15.963143 98.973679,15.987810 98.679596,16.004887 
	C97.921616,16.337616 97.457710,16.653267 96.735252,17.165218 
	C95.978592,18.563770 95.480476,19.766020 94.646461,21.006279 
	C92.553734,22.372957 90.796906,23.701628 89.040085,25.030298 
	C89.040085,25.030298 88.786804,24.812225 88.660492,24.702488 
	C90.414131,21.714745 91.981110,18.544092 94.293823,16.070726 
	C95.637169,14.634057 98.177933,14.317011 100.518196,13.624464 
z"/>
<path fill="#E1F5F6" opacity="1.000000" stroke="none" 
	d="
M302.125061,157.886246 
	C303.582764,154.970062 305.420227,152.058578 307.559692,148.998627 
	C307.657959,152.801025 307.212769,156.608856 302.125061,157.886246 
z"/>
<path fill="#9DD5DA" opacity="1.000000" stroke="none" 
	d="
M307.012085,134.712250 
	C307.290894,136.223068 307.373505,137.507538 306.867767,138.909210 
	C304.510376,137.740265 302.741333,136.454147 300.972290,135.168030 
	C302.275146,134.850464 303.578033,134.532898 305.072021,133.929138 
	C305.780731,133.923935 306.298309,134.204926 307.012085,134.712250 
z"/>
<path fill="#4661C2" opacity="1.000000" stroke="none" 
	d="
M50.987686,202.005249 
	C52.310398,204.781006 53.633110,207.556778 54.936085,210.715927 
	C52.922131,208.338303 50.927917,205.577286 48.954948,202.418533 
	C48.976192,202.020798 49.064091,201.936035 49.384300,201.956970 
	C50.132236,201.987030 50.559959,201.996140 50.987686,202.005249 
z"/>
<path fill="#E1F5F6" opacity="1.000000" stroke="none" 
	d="
M263.214264,214.891251 
	C264.392365,212.400848 265.936676,209.912659 267.779541,207.282776 
	C267.981689,210.539062 267.278778,213.585159 263.214264,214.891251 
z"/>
<path fill="#E1F5F6" opacity="1.000000" stroke="none" 
	d="
M259.169556,220.900635 
	C259.963043,218.997787 261.127319,217.089859 262.584106,215.021698 
	C261.764526,216.872818 260.652466,218.884186 259.169556,220.900635 
z"/>
<path fill="#4191C7" opacity="1.000000" stroke="none" 
	d="
M76.732590,242.638702 
	C80.441963,242.094101 80.527130,244.883331 80.805511,247.828674 
	C79.403099,246.466354 78.089439,244.716888 76.732590,242.638702 
z"/>
<path fill="#28327D" opacity="1.000000" stroke="none" 
	d="
M27.888855,111.894608 
	C29.019646,109.956627 30.204159,108.119240 31.673820,106.123131 
	C31.958971,105.964401 32.088589,106.083847 32.086197,106.482422 
	C32.050102,107.573456 32.016396,108.265915 31.718334,109.150497 
	C30.330719,110.286423 29.207457,111.230225 28.084194,112.174026 
	C28.084194,112.174026 27.942577,111.995216 27.888855,111.894608 
z"/>
<path fill="#E1F5F6" opacity="1.000000" stroke="none" 
	d="
M295.243164,167.911011 
	C296.042542,166.030594 297.208130,164.147552 298.663208,162.101257 
	C297.838257,163.928116 296.723816,165.918228 295.243164,167.911011 
z"/>
<path fill="#89C9DA" opacity="1.000000" stroke="none" 
	d="
M274.190765,87.677505 
	C273.012604,86.448738 271.816406,84.863647 270.887878,83.102501 
	C272.161255,84.391357 273.166992,85.856270 274.190765,87.677505 
z"/>
<path fill="#9DD5DA" opacity="1.000000" stroke="none" 
	d="
M304.010040,130.633087 
	C302.741730,129.465820 301.422302,127.958405 300.130798,126.066399 
	C301.425476,127.218842 302.692169,128.755875 304.010040,130.633087 
z"/>
<path fill="#4661C2" opacity="1.000000" stroke="none" 
	d="
M48.931976,202.062897 
	C47.788887,200.841690 46.690014,199.578400 45.457432,198.036316 
	C45.430046,197.621307 45.536369,197.485107 46.172935,197.227631 
	C47.490150,198.716248 48.277119,200.326141 49.064091,201.936035 
	C49.064091,201.936035 48.976192,202.020798 48.931976,202.062897 
z"/>
<path fill="#E1F5F6" opacity="1.000000" stroke="none" 
	d="
M290.379639,174.989563 
	C290.763245,173.719025 291.536438,172.446716 292.588379,171.015259 
	C292.167847,172.233337 291.468536,173.610565 290.379639,174.989563 
z"/>
<path fill="#4661C2" opacity="1.000000" stroke="none" 
	d="
M58.992104,217.364288 
	C59.921356,218.199173 60.915993,219.355026 61.909981,220.879730 
	C60.958714,220.060822 60.008099,218.873032 58.992104,217.364288 
z"/>
<path fill="#9DD5DA" opacity="1.000000" stroke="none" 
	d="
M299.974243,124.667206 
	C299.045807,124.187737 298.079376,123.375786 297.142456,122.209221 
	C298.093445,122.681313 299.014832,123.508018 299.974243,124.667206 
z"/>
<path fill="#E3F7F9" opacity="1.000000" stroke="none" 
	d="
M308.178528,148.910706 
	C308.062958,148.348816 308.290802,147.826492 308.770630,147.156540 
	C309.508331,147.416183 309.994019,147.823441 310.479706,148.230713 
	C309.827118,148.470566 309.174500,148.710419 308.178528,148.910706 
z"/>
<path fill="#9DD5DA" opacity="1.000000" stroke="none" 
	d="
M297.157257,121.542267 
	C296.438995,120.789955 295.730469,119.695374 295.044556,118.235176 
	C295.767090,118.979698 296.467041,120.089844 297.157257,121.542267 
z"/>
<path fill="#E1F5F6" opacity="1.000000" stroke="none" 
	d="
M299.291016,161.922638 
	C299.425842,161.048370 299.915985,160.136703 300.686157,159.077164 
	C300.526276,159.914612 300.086304,160.899933 299.291016,161.922638 
z"/>
<path fill="#E1F5F6" opacity="1.000000" stroke="none" 
	d="
M293.200256,170.869659 
	C293.333130,169.971008 293.832764,169.064636 294.619232,168.023285 
	C294.459717,168.879517 294.013336,169.870728 293.200256,170.869659 
z"/>
<path fill="#4661C2" opacity="1.000000" stroke="none" 
	d="
M54.930550,211.392166 
	C55.575390,211.832291 56.269588,212.582733 56.960266,213.698456 
	C56.297798,213.276672 55.638855,212.489578 54.930550,211.392166 
z"/>
<path fill="#83C3DA" opacity="1.000000" stroke="none" 
	d="
M258.980988,64.675934 
	C258.386749,64.437370 257.756775,63.878876 257.156281,62.954811 
	C257.772217,63.178162 258.358734,63.767078 258.980988,64.675934 
z"/>
<path fill="#9DD5DA" opacity="1.000000" stroke="none" 
	d="
M291.027832,111.648422 
	C290.433563,111.426979 289.783569,110.888969 289.163269,109.983521 
	C289.786011,110.188011 290.379059,110.759933 291.027832,111.648422 
z"/>
<path fill="#4191C7" opacity="1.000000" stroke="none" 
	d="
M196.321136,270.856079 
	C196.024597,270.719543 195.950714,270.318237 195.987640,270.116852 
	C196.535034,270.053894 197.045502,270.192291 197.713348,270.540283 
	C197.453049,270.830750 197.035370,270.911682 196.321136,270.856079 
z"/>
<path fill="#28327D" opacity="1.000000" stroke="none" 
	d="
M42.716469,90.751022 
	C42.868687,90.157516 43.141357,89.669334 43.653542,89.031540 
	C43.893047,88.881927 44.012558,89.043533 44.036697,89.417648 
	C44.047676,90.197159 44.034519,90.602554 43.781120,91.018600 
	C43.540874,91.029251 43.062920,91.082916 43.062920,91.082916 
	C43.062920,91.082916 42.836922,90.856339 42.716469,90.751022 
z"/>
<path fill="#4661C2" opacity="1.000000" stroke="none" 
	d="
M56.963928,214.298859 
	C57.266457,214.419495 57.603020,214.815201 57.995724,215.477463 
	C57.700562,215.353989 57.349262,214.963943 56.963928,214.298859 
z"/>
<path fill="#E1F5F6" opacity="1.000000" stroke="none" 
	d="
M289.062500,176.773987 
	C288.995148,176.337112 289.224945,175.799301 289.722839,175.125885 
	C289.780487,175.551208 289.570099,176.112122 289.062500,176.773987 
z"/>
<path fill="#4191C7" opacity="1.000000" stroke="none" 
	d="
M222.275787,270.852539 
	C222.093994,270.755157 221.988358,270.452026 221.970474,270.293762 
	C222.230042,270.136353 222.471069,270.230377 222.753571,270.596619 
	C222.831497,270.775696 222.457596,270.949890 222.275787,270.852539 
z"/>
<path fill="#517FCA" opacity="1.000000" stroke="none" 
	d="
M103.710770,13.418763 
	C103.920486,13.514367 103.621902,13.736351 103.621902,13.736351 
	C103.621902,13.736351 103.257050,13.699033 103.169556,13.607174 
	C103.082062,13.515315 103.501060,13.323159 103.710770,13.418763 
z"/>
<path fill="#4191C7" opacity="1.000000" stroke="none" 
	d="
M75.830505,241.427277 
	C76.084709,241.333847 76.395309,241.514816 76.750046,241.975159 
	C76.491753,242.070236 76.189323,241.885956 75.830505,241.427277 
z"/>
<path fill="#4191C7" opacity="1.000000" stroke="none" 
	d="
M74.856651,240.243866 
	C75.093567,240.179062 75.401703,240.406647 75.786613,240.917328 
	C75.551544,240.979034 75.239708,240.757660 74.856651,240.243866 
z"/>
<path fill="#4191C7" opacity="1.000000" stroke="none" 
	d="
M72.842789,237.255127 
	C73.046448,237.199112 73.280693,237.422852 73.396797,237.786011 
	C73.143562,237.795258 73.008476,237.665070 72.842789,237.255127 
z"/>
<path fill="#214D93" opacity="1.000000" stroke="none" 
	d="
M88.991409,25.387264 
	C90.796906,23.701628 92.553734,22.372957 94.651855,21.410316 
	C94.767212,23.560328 94.174675,25.388107 94.381622,27.120369 
	C95.105194,33.176884 96.833473,39.195080 96.877792,45.237381 
	C97.113853,77.419304 96.954575,109.604141 96.932114,141.787964 
	C96.932114,141.787964 96.961136,141.917389 96.988441,141.978241 
	C95.944763,142.017395 94.873772,141.995682 93.146896,141.709839 
	C90.328308,141.646439 88.165604,141.847153 86.002899,142.047882 
	C85.245918,142.002045 84.488945,141.956192 83.361954,141.431335 
	C82.994629,134.563629 82.999313,128.174942 82.999626,121.786247 
	C83.000626,101.532974 82.831779,81.277473 83.101257,61.027782 
	C83.183395,54.854874 82.386032,49.188137 78.995018,43.994167 
	C79.257927,43.500767 79.520836,43.007362 80.262878,42.249153 
	C81.822922,40.315823 82.903824,38.647293 83.984726,36.978767 
	C85.637398,33.233921 87.290070,29.489075 88.991409,25.387264 
z"/>
<path fill="#3F7FCC" opacity="1.000000" stroke="none" 
	d="
M74.399261,233.992950 
	C67.877670,227.599808 64.943062,219.775848 64.264244,211.116333 
	C63.636051,203.102631 63.064320,195.057037 63.080318,187.026718 
	C63.104073,175.107681 63.711781,163.190689 63.977707,151.270737 
	C64.067650,147.238983 65.807098,145.200287 69.948837,144.901260 
	C71.309204,144.803024 72.584854,143.531479 74.388870,142.393524 
	C76.920090,142.010788 78.961670,142.030991 81.003258,142.051178 
	C76.668991,153.275009 80.492554,164.737000 80.079254,176.079361 
	C79.444221,193.506714 79.305466,210.952728 79.025253,228.391922 
	C78.976738,231.411636 78.230469,233.654678 74.399261,233.992950 
z"/>
<path fill="#1F4492" opacity="1.000000" stroke="none" 
	d="
M81.333832,142.014771 
	C78.961670,142.030991 76.920090,142.010788 74.442024,142.017853 
	C73.834564,141.999237 73.663589,141.953339 73.242142,141.396210 
	C72.994453,115.228966 73.084488,89.572212 72.868927,63.918018 
	C72.846657,61.268482 71.003548,58.634251 70.005318,55.992920 
	C72.796410,52.095398 75.587509,48.197880 78.686813,44.147263 
	C82.386032,49.188137 83.183395,54.854874 83.101257,61.027782 
	C82.831779,81.277473 83.000626,101.532974 82.999626,121.786247 
	C82.999313,128.174942 82.994629,134.563629 82.986725,141.377014 
	C82.542473,141.860611 82.103439,141.919495 81.333832,142.014771 
z"/>
<path fill="#2D6FA6" opacity="1.000000" stroke="none" 
	d="
M86.257156,142.328979 
	C88.165604,141.847153 90.328308,141.646439 92.745728,141.728973 
	C90.837433,142.211533 88.674423,142.410797 86.257156,142.328979 
z"/>
<path fill="#3D99CA" opacity="1.000000" stroke="none" 
	d="
M121.832703,255.928192 
	C120.789177,256.207611 119.745659,256.487061 118.404396,256.900879 
	C113.267761,258.544006 108.428879,260.052734 103.589996,261.561432 
	C108.356117,256.327881 104.893715,250.486694 104.922821,245.041000 
	C105.083527,214.970688 104.999481,184.899078 104.999825,154.827911 
	C104.999916,146.481232 105.207527,146.257782 113.431854,144.306030 
	C114.941940,143.947678 116.378624,143.280045 118.325668,142.367142 
	C119.869095,142.000687 120.936043,142.022247 121.992661,142.424850 
	C120.990936,144.775497 119.388924,146.667480 119.126770,148.729797 
	C118.439461,154.136810 118.069832,159.616974 118.046585,165.070007 
	C117.941566,189.711258 117.915337,214.353745 118.078835,238.994354 
	C118.108200,243.419250 121.898315,247.992493 116.168999,251.926666 
	C118.689484,253.264435 120.285164,254.111359 121.883736,255.201508 
	C121.886627,255.444717 121.832703,255.928192 121.832703,255.928192 
z"/>
<path fill="#266499" opacity="1.000000" stroke="none" 
	d="
M122.002998,142.043793 
	C120.936043,142.022247 119.869095,142.000687 118.402176,141.994904 
	C117.551430,141.974167 117.100647,141.937653 116.320755,141.408295 
	C115.996727,102.938461 116.001816,64.961479 116.006912,26.984491 
	C117.419846,27.326471 118.832779,27.668449 120.612434,28.016678 
	C120.979156,28.022926 120.989983,28.005520 121.033066,28.329170 
	C121.722038,29.081690 122.367935,29.510557 123.013824,29.939428 
	C124.777176,30.955685 126.540527,31.971941 128.634872,33.437195 
	C128.310577,37.020298 127.106644,40.154678 127.108246,43.288441 
	C127.112228,51.065639 127.915855,58.841331 127.953835,66.619797 
	C128.074860,91.409279 127.993416,116.199753 127.696846,141.011826 
	C126.939117,141.343475 126.474716,141.653152 125.609421,141.964218 
	C124.140007,141.991669 123.071503,142.017731 122.002998,142.043793 
z"/>
<path fill="#255C97" opacity="1.000000" stroke="none" 
	d="
M115.854210,26.681282 
	C116.001816,64.961479 115.996727,102.938461 115.984535,141.363876 
	C112.617516,141.845459 109.257607,141.878616 105.446701,141.478790 
	C105.329971,136.834534 105.940849,132.624100 105.953758,128.411819 
	C106.039551,100.423294 106.278450,72.429710 105.813408,44.448635 
	C105.685570,36.756828 103.763321,29.141003 108.012177,21.969849 
	C110.575287,23.439255 113.138397,24.908665 115.854210,26.681282 
z"/>
<path fill="#235596" opacity="1.000000" stroke="none" 
	d="
M107.855743,21.670643 
	C103.763321,29.141003 105.685570,36.756828 105.813408,44.448635 
	C106.278450,72.429710 106.039551,100.423294 105.953758,128.411819 
	C105.940849,132.624100 105.329971,136.834534 104.990425,141.430252 
	C102.599266,141.850815 100.213394,141.886948 97.379814,141.855530 
	C96.954575,109.604141 97.113853,77.419304 96.877792,45.237381 
	C96.833473,39.195080 95.105194,33.176884 94.381622,27.120369 
	C94.174675,25.388107 94.767212,23.560328 94.987762,21.372307 
	C95.480476,19.766020 95.978592,18.563770 96.903839,17.399445 
	C97.878548,16.954184 98.426117,16.470997 98.973679,15.987810 
	C98.973679,15.987810 99.425041,15.963143 99.649406,15.957710 
	C102.482285,17.758665 105.090797,19.565052 107.855743,21.670643 
z"/>
<path fill="#FEFFFE" opacity="1.000000" stroke="none" 
	d="
M300.680298,135.117523 
	C302.741333,136.454147 304.510376,137.740265 306.606110,139.123795 
	C305.643890,141.607529 304.354980,143.993866 303.047211,146.736481 
	C302.601807,147.406418 302.175293,147.720078 301.059204,148.027817 
	C295.561737,147.835114 292.290131,149.998642 290.520386,154.459839 
	C290.520386,154.459839 290.429901,154.445007 290.067871,154.342072 
	C289.138123,154.825928 288.570343,155.412735 288.002594,155.999542 
	C288.002594,155.999542 288.000000,156.000000 287.632904,155.981476 
	C285.724457,155.997543 283.869110,155.482849 282.692566,156.155502 
	C274.845917,160.641479 267.009338,165.175690 259.459473,170.135574 
	C256.281494,172.223343 253.808456,175.384064 250.844666,178.291504 
	C250.142334,178.743698 249.610291,178.961395 248.904221,178.920502 
	C248.240784,179.209396 247.751358,179.756882 247.261932,180.304352 
	C247.261932,180.304352 247.203674,180.173553 246.979095,180.213547 
	C246.511612,180.529617 246.268723,180.805710 245.832642,181.323853 
	C244.725906,182.030731 243.812332,182.495544 242.607544,182.973587 
	C241.879700,183.323166 241.443100,183.659515 241.006500,183.995880 
	C240.564804,184.316940 240.123108,184.637985 239.032898,184.987381 
	C236.579300,186.273956 234.774200,187.532181 232.767090,188.890717 
	C232.565079,188.991028 232.117355,189.045792 231.709549,189.025513 
	C227.361221,189.210251 219.985382,193.987778 218.838074,197.237885 
	C218.129913,197.662888 217.571014,197.831604 216.797791,198.063568 
	C216.309219,198.275131 216.114548,198.494156 215.789627,198.877197 
	C215.579788,198.970490 215.128525,199.056000 214.737244,199.041290 
	C211.437592,198.880829 209.396622,199.876282 208.879486,203.292328 
	C208.247543,203.716965 207.762436,203.919067 206.908905,204.076599 
	C202.567154,203.619705 196.363098,207.569504 195.103729,211.220978 
	C195.001160,211.194000 195.212006,211.214752 194.815735,211.147415 
	C192.983765,211.333298 191.548080,211.586517 189.690125,211.914215 
	C188.352509,206.651535 180.176865,205.007324 182.617111,198.103363 
	C180.688278,198.010864 178.933029,197.926666 177.120728,197.461090 
	C175.335999,193.647827 174.044281,189.887405 171.768951,186.868271 
	C168.998703,183.192413 165.400604,180.140457 162.117111,176.432159 
	C161.341125,174.141998 160.896332,172.053421 159.816528,170.372864 
	C157.540649,166.830826 155.073700,163.387573 152.419922,160.119141 
	C149.817780,156.914291 146.886688,153.976532 144.067337,150.523865 
	C143.481598,148.484329 143.404648,146.299637 142.278122,145.311371 
	C139.781738,143.121353 139.967896,141.040009 141.630829,138.798584 
	C145.016083,134.235641 148.824509,129.962982 151.932022,125.225342 
	C154.303467,121.609894 155.864090,117.462601 157.817764,113.389481 
	C157.850128,113.227058 158.109634,113.021210 158.460907,112.981560 
	C160.382645,111.603806 162.108582,110.407852 163.489960,108.896904 
	C166.069366,106.075546 168.448654,103.071243 170.911224,100.143066 
	C171.789795,98.919342 171.410019,96.629700 172.368683,95.318977 
	C177.290863,88.589241 182.600632,82.144554 187.679184,75.526772 
	C189.391739,73.295189 190.816406,72.899475 193.452972,74.496758 
	C195.700775,75.858543 198.654938,76.054436 201.476257,76.817429 
	C201.655884,76.868767 201.988235,77.039551 201.998322,77.397552 
	C202.831863,80.474472 204.164612,82.003540 207.256409,79.835831 
	C207.465805,79.759415 207.877823,79.589111 207.877823,79.589111 
	C208.175812,79.951202 208.473785,80.313293 208.917267,81.234604 
	C212.349487,83.540672 215.636230,85.287529 218.922974,87.034378 
	C219.419220,87.371323 219.915466,87.708275 220.703232,88.562744 
	C222.356934,89.693588 223.719116,90.306908 225.081299,90.920219 
	C225.081299,90.920219 224.991974,90.937950 225.040314,91.278145 
	C226.198288,93.567131 226.923050,96.364113 230.049011,93.869026 
	C231.587128,94.692314 233.125259,95.515610 234.854706,96.967422 
	C238.507706,103.133461 244.328751,104.447235 250.034058,105.968170 
	C250.034058,105.968170 249.997787,105.995949 250.050446,106.356194 
	C252.077972,107.468437 254.052841,108.220444 256.027710,108.972443 
	C256.027710,108.972443 256.000000,108.997368 256.007385,109.352859 
	C256.324188,110.426765 256.429565,111.461517 256.975311,111.813492 
	C261.318878,114.614967 265.636108,117.493004 270.189087,119.920624 
	C272.888123,121.359734 275.999512,122.025505 278.925476,123.039009 
	C279.836304,123.516258 280.747131,123.993500 281.887054,125.094376 
	C283.135132,126.107124 284.154114,126.496239 285.173096,126.885361 
	C286.196991,127.291954 287.220856,127.698547 288.568359,128.184814 
	C288.891937,128.264481 288.916351,128.652451 288.996948,129.210938 
	C290.202789,134.117722 294.041016,133.263458 297.387817,133.976852 
	C298.106354,134.060471 298.516815,134.109573 298.927307,134.158661 
	C299.414307,134.461456 299.901306,134.764236 300.680298,135.117523 
z"/>
<path fill="#E3F7F9" opacity="1.000000" stroke="none" 
	d="
M251.014954,178.057037 
	C253.808456,175.384064 256.281494,172.223343 259.459473,170.135574 
	C267.009338,165.175690 274.845917,160.641479 282.692566,156.155502 
	C283.869110,155.482849 285.724457,155.997543 287.632202,155.982574 
	C280.794250,160.470963 273.589874,164.939728 265.927124,169.724319 
	C265.330536,170.154724 265.192352,170.269287 265.054169,170.383850 
	C264.732056,170.333374 264.463959,170.431107 263.859497,170.875641 
	C263.251923,171.350937 263.034729,171.627625 262.817566,171.904312 
	C262.817566,171.904312 262.921906,171.884857 262.563721,171.895432 
	C260.757111,172.903290 259.308685,173.900574 257.860260,174.897858 
	C257.860260,174.897858 257.959290,174.923676 257.597778,174.927948 
	C255.765533,175.907242 254.294830,176.882263 252.824127,177.857285 
	C252.824127,177.857285 252.934387,177.862183 252.586578,177.854507 
	C251.830826,177.916901 251.422897,177.986969 251.014954,178.057037 
z"/>
<path fill="#357182" opacity="1.000000" stroke="none" 
	d="
M242.898773,182.960358 
	C243.812332,182.495544 244.725906,182.030731 246.146515,181.328400 
	C246.861969,181.071808 247.070374,181.052734 247.278763,181.033676 
	C247.327972,184.223618 246.483398,184.894989 243.033768,183.802475 
	C242.869385,183.327545 242.898773,182.960358 242.898773,182.960358 
z"/>
<path fill="#E3F7F9" opacity="1.000000" stroke="none" 
	d="
M232.969086,188.790421 
	C234.774200,187.532181 236.579300,186.273956 238.757507,185.038605 
	C239.130615,185.061508 239.081604,185.484695 238.737915,185.752350 
	C238.130402,186.296616 237.866577,186.573212 237.602753,186.849823 
	C236.776459,187.295914 235.950165,187.742004 234.699585,188.526169 
	C233.839890,188.839645 233.404495,188.815033 232.969086,188.790421 
z"/>
<path fill="#357182" opacity="1.000000" stroke="none" 
	d="
M258.243896,174.928009 
	C259.308685,173.900574 260.757111,172.903290 262.536804,171.849701 
	C261.454559,172.848312 260.041077,173.903229 258.243896,174.928009 
z"/>
<path fill="#357182" opacity="1.000000" stroke="none" 
	d="
M253.208862,177.899109 
	C254.294830,176.882263 255.765533,175.907242 257.571228,174.884186 
	C256.468689,175.871078 255.031143,176.906006 253.208862,177.899109 
z"/>
<path fill="#357182" opacity="1.000000" stroke="none" 
	d="
M250.844666,178.291519 
	C251.422897,177.986969 251.830826,177.916901 252.548721,177.814346 
	C252.838699,180.041916 252.141418,181.399567 249.299454,179.923264 
	C249.033707,179.592804 249.078232,179.179092 249.078232,179.179108 
	C249.610291,178.961395 250.142334,178.743698 250.844666,178.291519 
z"/>
<path fill="#E3F7F9" opacity="1.000000" stroke="none" 
	d="
M248.904221,178.920502 
	C249.078232,179.179092 249.033707,179.592804 248.990631,179.796570 
	C248.575989,180.087006 248.204407,180.173691 247.547379,180.282349 
	C247.751358,179.756882 248.240784,179.209396 248.904221,178.920502 
z"/>
<path fill="#E3F7F9" opacity="1.000000" stroke="none" 
	d="
M242.607544,182.973587 
	C242.898773,182.960358 242.869385,183.327545 242.847778,183.510559 
	C242.425629,183.786957 242.025101,183.880341 241.315536,183.984802 
	C241.443100,183.659515 241.879700,183.323166 242.607544,182.973587 
z"/>
<path fill="#357182" opacity="1.000000" stroke="none" 
	d="
M237.955261,186.899902 
	C237.866577,186.573212 238.130402,186.296616 238.680542,185.957489 
	C238.977356,186.077515 238.987854,186.260071 239.008545,186.716553 
	C238.781723,186.976959 238.544754,186.963470 237.955261,186.899902 
z"/>
<path fill="#E3F7F9" opacity="1.000000" stroke="none" 
	d="
M247.298798,180.836487 
	C247.070374,181.052734 246.861969,181.071808 246.339706,181.086334 
	C246.268723,180.805710 246.511612,180.529617 247.041687,180.248306 
	C247.328857,180.243073 247.318848,180.639313 247.298798,180.836487 
z"/>
<path fill="#357182" opacity="1.000000" stroke="none" 
	d="
M263.070190,171.848175 
	C263.034729,171.627625 263.251923,171.350937 263.745087,171.066132 
	C263.788330,171.302689 263.555573,171.547363 263.070190,171.848175 
z"/>
<path fill="#357182" opacity="1.000000" stroke="none" 
	d="
M265.182495,170.530380 
	C265.192352,170.269287 265.330536,170.154724 265.735596,170.003555 
	C266.001648,170.139664 266.000793,170.312393 266.005554,170.744156 
	C265.748474,170.957123 265.515045,170.848358 265.182495,170.530380 
z"/>
<path fill="#357182" opacity="1.000000" stroke="none" 
	d="
M207.277313,204.121185 
	C207.762436,203.919067 208.247543,203.716965 209.187714,203.274078 
	C210.216934,202.808319 210.791092,202.583313 211.529343,202.524109 
	C211.693436,202.689911 212.021744,203.021362 212.021729,203.021362 
	C211.751724,203.508865 211.481720,203.996368 211.103027,204.740952 
	C205.538223,208.559753 200.082077,212.121506 193.903625,215.840195 
	C191.536224,216.015442 189.891113,216.033752 188.187897,215.831375 
	C188.129791,215.610703 188.037308,215.165390 188.395905,215.138489 
	C190.907013,213.812637 193.059509,212.513687 195.212006,211.214752 
	C195.212006,211.214752 195.001160,211.194000 195.447891,211.155487 
	C199.688858,208.785034 203.483078,206.453110 207.277313,204.121185 
z"/>
<path fill="#357182" opacity="1.000000" stroke="none" 
	d="
M232.767090,188.890717 
	C233.404495,188.815033 233.839890,188.839645 234.598419,188.800842 
	C230.725449,191.946503 226.529343,195.155579 222.166046,198.679016 
	C218.910721,200.306366 215.822617,201.619370 212.378113,202.976868 
	C212.021744,203.021362 211.693436,202.689911 211.713501,202.262436 
	C212.865204,200.908646 213.996872,199.982315 215.128525,199.056000 
	C215.128525,199.056000 215.579788,198.970490 216.035889,198.895660 
	C216.766403,198.611389 216.939789,198.337891 217.012115,198.000305 
	C217.571014,197.831604 218.129913,197.662888 219.193909,197.203644 
	C223.838470,194.290665 227.977905,191.668228 232.117355,189.045792 
	C232.117355,189.045792 232.565079,188.991028 232.767090,188.890717 
z"/>
<path fill="#22728A" opacity="1.000000" stroke="none" 
	d="
M227.009109,243.560379 
	C226.727844,242.121918 226.797302,240.733261 226.866776,239.344589 
	C227.582428,239.505569 228.298080,239.666550 229.013733,239.827545 
	C228.462433,241.088409 227.911133,242.349289 227.009109,243.560379 
z"/>
<path fill="#1E6887" opacity="1.000000" stroke="none" 
	d="
M188.246002,216.052063 
	C189.891113,216.033752 191.536224,216.015442 193.593414,215.998260 
	C195.211105,218.510941 195.613083,220.737061 194.165237,223.613098 
	C190.858948,230.180786 193.892563,236.951355 194.229431,243.669662 
	C194.476944,248.605682 193.433334,253.609421 192.917465,258.578033 
	C192.820831,259.508698 192.016602,260.936401 192.357040,261.251892 
	C195.129684,263.821259 192.553909,265.966980 192.003937,268.628052 
	C187.305588,268.998322 182.617294,268.997864 177.464981,268.584747 
	C177.000671,264.430725 177.000046,260.689362 177.000076,256.947998 
	C177.000183,245.645798 177.000565,234.343582 177.188080,222.755798 
	C180.998886,220.330841 184.622452,218.191452 188.246002,216.052063 
z"/>
<path fill="#3286A3" opacity="1.000000" stroke="none" 
	d="
M165.054550,55.910133 
	C169.793686,58.262398 174.532806,60.614670 179.627838,63.006210 
	C182.625351,64.928207 185.266968,66.810936 187.974396,69.316818 
	C181.790695,78.658508 175.541168,87.377037 168.878052,96.064362 
	C162.162781,94.779411 160.768372,93.871201 162.796967,87.505280 
	C163.348434,85.774666 162.346924,83.608444 162.417847,81.655205 
	C162.731415,73.019653 159.256058,63.981850 165.054550,55.910133 
z"/>
<path fill="#DFF4F7" opacity="1.000000" stroke="none" 
	d="
M169.291641,96.095558 
	C175.541168,87.377037 181.790695,78.658508 188.172913,69.632614 
	C188.670502,69.276855 189.035400,69.228470 189.889252,69.437881 
	C192.546478,70.844284 194.714737,71.992897 196.883011,73.141510 
	C196.883011,73.141510 196.921005,73.142586 197.072754,73.403053 
	C198.581863,74.697708 199.939240,75.731903 201.296616,76.766090 
	C198.654938,76.054436 195.700775,75.858543 193.452972,74.496758 
	C190.816406,72.899475 189.391739,73.295189 187.679184,75.526772 
	C182.600632,82.144554 177.290863,88.589241 172.368683,95.318977 
	C171.410019,96.629700 171.789795,98.919342 170.911224,100.143066 
	C168.448654,103.071243 166.069366,106.075546 163.489960,108.896904 
	C162.108582,110.407852 160.382645,111.603806 158.498962,112.641830 
	C161.887695,106.926346 165.589661,101.510948 169.291641,96.095558 
z"/>
<path fill="#81A8C7" opacity="1.000000" stroke="none" 
	d="
M196.885223,72.806267 
	C194.714737,71.992897 192.546478,70.844284 190.165573,69.448547 
	C191.094025,69.049545 192.235123,68.897659 193.685928,68.881927 
	C194.959579,70.169060 195.923492,71.320038 196.885223,72.806267 
z"/>
<path fill="#E3F7F9" opacity="1.000000" stroke="none" 
	d="
M218.863159,86.778015 
	C215.636230,85.287529 212.349487,83.540672 209.009644,81.452682 
	C211.746094,82.658813 214.535660,84.206085 217.655670,85.815201 
	C218.258530,86.091911 218.530945,86.306770 218.863159,86.778015 
z"/>
<path fill="#81A8C7" opacity="1.000000" stroke="none" 
	d="
M201.476257,76.817429 
	C199.939240,75.731903 198.581863,74.697708 197.062347,73.387787 
	C200.359833,74.721207 203.819473,76.330376 207.628571,77.979591 
	C207.971573,78.280289 207.965134,78.540939 207.918243,79.195351 
	C207.877823,79.589111 207.465805,79.759415 206.988770,79.563873 
	C205.003906,78.592072 203.496078,77.815811 201.988235,77.039551 
	C201.988235,77.039551 201.655884,76.868767 201.476257,76.817429 
z"/>
<path fill="#1C3C90" opacity="1.000000" stroke="none" 
	d="
M69.692215,56.131866 
	C71.003548,58.634251 72.846657,61.268482 72.868927,63.918018 
	C73.084488,89.572212 72.994453,115.228966 72.985054,141.329742 
	C70.277870,141.809814 67.577301,141.845123 64.434959,141.398438 
	C63.662121,136.138977 63.148430,131.365936 63.032810,126.583290 
	C62.615948,109.339027 62.374882,92.090431 61.916344,74.847481 
	C61.881695,73.544533 60.660191,72.273140 59.990391,70.987083 
	C61.668537,67.595703 63.346684,64.204323 65.060501,60.450508 
	C66.523819,58.815651 67.951462,57.543232 69.692215,56.131866 
z"/>
<path fill="#416FC8" opacity="1.000000" stroke="none" 
	d="
M49.384300,201.956970 
	C48.277119,200.326141 47.490150,198.716248 46.358376,197.046570 
	C43.346195,191.907288 40.678814,186.827805 38.282471,181.144150 
	C39.356300,178.042358 40.785000,175.561462 40.852390,173.044144 
	C41.128685,162.723557 40.990166,152.391861 41.401817,142.026031 
	C42.860386,141.917923 43.921448,141.848022 45.433456,141.840179 
	C48.917618,141.852936 51.950844,141.803635 55.318512,141.814423 
	C56.103142,141.926636 56.553326,141.978745 57.003510,142.030869 
	C51.677979,147.322189 53.175968,154.084946 52.990387,160.499893 
	C52.716358,169.972351 51.665997,179.496872 52.377819,188.890732 
	C52.714638,193.335663 53.746143,197.420151 51.264793,201.775970 
	C50.559959,201.996140 50.132236,201.987030 49.384300,201.956970 
z"/>
<path fill="#1A358F" opacity="1.000000" stroke="none" 
	d="
M57.439644,142.002182 
	C56.553326,141.978745 56.103142,141.926636 55.323212,141.381271 
	C55.034412,136.166687 55.100994,131.445389 55.110683,126.723976 
	C55.127991,118.290611 55.022160,109.855835 55.148731,101.424370 
	C55.205292,97.656708 56.181938,93.852058 55.846973,90.144974 
	C55.565609,87.031006 53.987698,84.034195 52.983795,80.985512 
	C55.108391,77.761559 57.232986,74.537605 59.673988,71.150368 
	C60.660191,72.273140 61.881695,73.544533 61.916344,74.847481 
	C62.374882,92.090431 62.615948,109.339027 63.032810,126.583290 
	C63.148430,131.365936 63.662121,136.138977 63.988533,141.336212 
	C61.947849,141.828491 59.911816,141.901001 57.439644,142.002182 
z"/>
<path fill="#76B3D5" opacity="1.000000" stroke="none" 
	d="
M236.955627,97.049316 
	C236.073044,95.910408 235.409851,94.138695 234.269470,93.743294 
	C229.598511,92.123726 230.334366,90.232925 234.432236,87.488808 
	C228.185028,84.928276 229.199966,79.830765 228.892715,74.911873 
	C228.408539,67.160255 226.919693,59.467426 226.526917,51.715721 
	C226.324585,47.722557 227.875031,43.670952 228.073318,39.618351 
	C228.261398,35.774384 227.806549,31.886518 227.450989,28.034893 
	C227.320206,26.618326 226.664459,25.250223 226.248169,23.860014 
	C226.654327,23.556433 227.060501,23.252851 227.466660,22.949268 
	C229.665894,25.876785 231.896088,28.781656 234.057281,31.736996 
	C237.497757,36.441730 240.892242,41.180084 244.644226,45.962616 
	C244.875412,60.595219 244.940567,75.174301 244.526871,89.739792 
	C244.436401,92.925636 243.970459,96.873428 239.271500,98.068916 
	C238.909790,98.127533 238.957657,98.100914 238.811020,97.832253 
	C238.097885,97.387260 237.531387,97.210922 236.970490,97.027557 
	C236.976089,97.020531 236.955627,97.049316 236.955627,97.049316 
z"/>
<path fill="#E3F7F9" opacity="1.000000" stroke="none" 
	d="
M278.795166,122.735916 
	C275.999512,122.025505 272.888123,121.359734 270.189087,119.920624 
	C265.636108,117.493004 261.318878,114.614967 256.975311,111.813492 
	C256.429565,111.461517 256.324188,110.426765 256.021301,109.338028 
	C256.793365,109.239792 257.558929,109.511879 258.605530,109.917923 
	C262.629456,112.356949 266.372345,114.662018 270.598419,117.241104 
	C271.384521,117.661575 271.687378,117.808029 271.990265,117.954483 
	C271.990265,117.954483 272.462189,118.095062 272.699036,118.162666 
	C274.845581,119.631126 276.755219,121.031982 278.795166,122.735916 
z"/>
<path fill="#E3F7F9" opacity="1.000000" stroke="none" 
	d="
M249.876999,105.668228 
	C244.328751,104.447235 238.507706,103.133461 235.069244,97.213806 
	C235.505478,96.889908 235.918518,96.948151 236.643585,97.027847 
	C236.955627,97.049316 236.976089,97.020531 237.142456,97.271118 
	C237.858429,97.714775 238.408035,97.907845 238.957657,98.100914 
	C238.957657,98.100914 238.909790,98.127533 238.904083,98.155792 
	C242.505585,100.578804 246.112762,102.973549 249.876999,105.668228 
z"/>
<path fill="#E3F7F9" opacity="1.000000" stroke="none" 
	d="
M255.892426,108.646919 
	C254.052841,108.220444 252.077972,107.468437 250.066452,106.338318 
	C251.938919,106.747261 253.848022,107.534325 255.892426,108.646919 
z"/>
<path fill="#2E7C9F" opacity="1.000000" stroke="none" 
	d="
M168.878052,96.064346 
	C165.589661,101.510948 161.887695,106.926346 158.147675,112.681473 
	C158.109634,113.021210 157.850128,113.227058 157.536255,113.532410 
	C156.251648,114.926971 155.280899,116.016174 154.030151,117.176544 
	C153.521957,117.545517 153.293747,117.843330 153.059479,118.096817 
	C153.053421,118.052483 153.142242,118.063484 152.872681,118.194122 
	C152.438004,118.678619 152.272873,119.032478 152.075500,119.586189 
	C151.887894,120.047325 151.658844,120.164673 150.958710,120.101257 
	C149.508743,119.856110 148.456161,119.647789 148.320221,119.620888 
	C148.320221,116.355408 148.332733,113.677322 148.317062,110.999413 
	C148.297134,107.592644 148.058167,104.174126 148.263870,100.781906 
	C148.644913,94.498177 149.723282,88.229202 149.713852,81.955284 
	C149.696350,70.294518 146.362701,58.541824 150.990158,47.049950 
	C155.390091,49.378506 159.790024,51.707062 164.575806,54.050949 
	C164.982025,54.476452 165.002396,54.886616 165.038666,55.603455 
	C159.256058,63.981850 162.731415,73.019653 162.417847,81.655205 
	C162.346924,83.608444 163.348434,85.774666 162.796967,87.505280 
	C160.768372,93.871201 162.162781,94.779411 168.878052,96.064346 
z"/>
<path fill="#E3F7F9" opacity="1.000000" stroke="none" 
	d="
M290.850464,154.407928 
	C292.290131,149.998642 295.561737,147.835114 300.788269,148.061462 
	C297.864807,150.186050 294.522705,152.271027 290.850464,154.407928 
z"/>
<path fill="#E3F7F9" opacity="1.000000" stroke="none" 
	d="
M288.301331,155.971954 
	C288.570343,155.412735 289.138123,154.825928 290.043091,154.380646 
	C289.786896,154.996216 289.193512,155.470306 288.301331,155.971954 
z"/>
<path fill="#2C749D" opacity="1.000000" stroke="none" 
	d="
M150.843719,46.798420 
	C146.362701,58.541824 149.696350,70.294518 149.713852,81.955284 
	C149.723282,88.229202 148.644913,94.498177 148.263870,100.781906 
	C148.058167,104.174126 148.297134,107.592644 148.317062,110.999413 
	C148.332733,113.677322 148.320221,116.355408 148.320221,119.620888 
	C148.456161,119.647789 149.508743,119.856110 150.865036,120.447052 
	C146.901703,127.085709 142.634674,133.341736 138.258331,139.205734 
	C137.651245,136.860397 136.761444,134.907486 136.759613,132.953751 
	C136.757523,130.741867 137.887711,128.536911 137.938293,126.315575 
	C138.103088,119.078438 137.999725,111.835205 138.000076,104.594315 
	C138.000961,86.550095 137.987274,68.505836 138.034622,50.461742 
	C138.038010,49.172657 138.600739,47.893921 138.708160,46.594234 
	C138.889816,44.396908 138.915283,42.186668 139.006409,39.981861 
	C142.097610,41.635105 145.188812,43.288353 148.630997,44.990883 
	C149.553741,45.542408 150.125504,46.044647 150.843719,46.798420 
z"/>
<path fill="#89C9DA" opacity="1.000000" stroke="none" 
	d="
M271.856445,117.731850 
	C271.687378,117.808029 271.384521,117.661575 270.936523,117.301750 
	C271.101807,117.228653 271.412201,117.368935 271.856445,117.731850 
z"/>
<path fill="#E3F7F9" opacity="1.000000" stroke="none" 
	d="
M229.878906,93.590164 
	C226.923050,96.364113 226.198288,93.567131 225.083099,91.258896 
	C226.621292,91.703400 228.165054,92.507347 229.878906,93.590164 
z"/>
<path fill="#E3F7F9" opacity="1.000000" stroke="none" 
	d="
M224.927643,90.643166 
	C223.719116,90.306908 222.356934,89.693588 220.955750,88.727478 
	C222.202499,89.038498 223.488251,89.702301 224.927643,90.643166 
z"/>
<path fill="#286D9C" opacity="1.000000" stroke="none" 
	d="
M138.831909,39.728462 
	C138.915283,42.186668 138.889816,44.396908 138.708160,46.594234 
	C138.600739,47.893921 138.038010,49.172657 138.034622,50.461742 
	C137.987274,68.505836 138.000961,86.550095 138.000076,104.594315 
	C137.999725,111.835205 138.103088,119.078438 137.938293,126.315575 
	C137.887711,128.536911 136.757523,130.741867 136.759613,132.953751 
	C136.761444,134.907486 137.651245,136.860397 138.169067,139.469086 
	C137.787735,140.757462 137.386292,141.390442 136.547882,142.003784 
	C134.068985,141.978348 132.027069,141.972565 129.816818,141.726273 
	C129.095734,141.320450 128.542953,141.155136 127.990181,140.989838 
	C127.993416,116.199753 128.074860,91.409279 127.953835,66.619797 
	C127.915855,58.841331 127.112228,51.065639 127.108246,43.288441 
	C127.106644,40.154678 128.310577,37.020298 128.975250,33.499165 
	C131.083633,34.405151 133.182648,35.698170 135.640533,36.994835 
	C136.885406,37.824009 137.771408,38.649536 138.831909,39.728462 
z"/>
<path fill="#3F66C9" opacity="1.000000" stroke="none" 
	d="
M41.004311,142.064270 
	C40.990166,152.391861 41.128685,162.723557 40.852390,173.044144 
	C40.785000,175.561462 39.356300,178.042358 38.278313,180.771210 
	C33.962994,175.053513 29.716463,169.232269 25.936678,163.122269 
	C21.527205,155.994400 24.897253,149.349365 28.371948,142.391098 
	C30.210926,141.911758 31.591011,141.837448 33.413681,141.839890 
	C36.238949,141.965866 38.621628,142.015060 41.004311,142.064270 
z"/>
<path fill="#101B89" opacity="1.000000" stroke="none" 
	d="
M32.971096,141.763123 
	C31.591011,141.837448 30.210926,141.911758 28.417530,142.028900 
	C22.969929,142.031815 17.935640,141.991913 12.432907,141.895905 
	C16.274000,134.551590 20.642183,127.297043 24.857555,119.954773 
	C26.132158,117.734688 26.983330,115.271500 28.056324,112.546844 
	C29.207457,111.230225 30.330719,110.286423 31.879322,109.478470 
	C32.548450,112.040817 32.981606,114.465759 33.001602,116.894104 
	C33.069862,125.183128 32.992741,133.473358 32.971096,141.763123 
z"/>
<path fill="#1A5883" opacity="1.000000" stroke="none" 
	d="
M122.212181,255.921387 
	C121.832703,255.928192 121.886627,255.444717 122.087715,254.915604 
	C123.625389,253.548416 124.929214,252.651581 126.305336,251.884399 
	C129.246490,250.244751 132.225067,248.672195 135.481354,246.916260 
	C141.177505,243.826202 146.580643,240.892029 152.050995,238.320114 
	C156.411270,240.079346 157.391144,242.904449 156.078796,247.073318 
	C155.607727,248.569717 156.000198,250.338226 156.000153,251.982559 
	C155.999969,257.648499 156.000519,263.314453 156.000778,268.980408 
	C148.980652,268.984283 141.960526,268.988190 134.472321,268.986877 
	C133.991272,264.340790 133.910324,259.698730 133.990143,255.059433 
	C134.040115,252.154633 132.665604,251.469604 130.241852,252.451263 
	C127.649475,253.501236 125.138283,254.751663 122.212181,255.921387 
z"/>
<path fill="#E3F7F9" opacity="1.000000" stroke="none" 
	d="
M284.997742,126.612350 
	C284.154114,126.496239 283.135132,126.107124 282.055115,125.365845 
	C282.936829,125.455582 283.879608,125.897469 284.997742,126.612350 
z"/>
<path fill="#456DBE" opacity="1.000000" stroke="none" 
	d="
M122.965332,29.624531 
	C122.367935,29.510557 121.722038,29.081690 121.027390,28.335844 
	C121.624702,28.449121 122.270775,28.879377 122.965332,29.624531 
z"/>
<path fill="#E3F7F9" opacity="1.000000" stroke="none" 
	d="
M297.079742,133.942322 
	C294.041016,133.263458 290.202789,134.117722 289.030273,129.402435 
	C290.680481,129.704422 292.378021,130.373383 294.592651,131.350113 
	C295.766449,132.419357 296.423096,133.180847 297.079742,133.942322 
z"/>
<path fill="#9DD5DA" opacity="1.000000" stroke="none" 
	d="
M297.387817,133.976852 
	C296.423096,133.180847 295.766449,132.419357 294.933868,131.407913 
	C296.141388,131.903870 297.524841,132.649780 298.917786,133.777176 
	C298.516815,134.109573 298.106354,134.060471 297.387817,133.976852 
z"/>
<path fill="#1B6085" opacity="1.000000" stroke="none" 
	d="
M156.469208,268.986053 
	C156.000519,263.314453 155.999969,257.648499 156.000153,251.982559 
	C156.000198,250.338226 155.607727,248.569717 156.078796,247.073318 
	C157.391144,242.904449 156.411270,240.079346 152.064728,238.085724 
	C152.011261,237.489090 152.052979,237.020737 152.387589,236.981308 
	C154.187912,235.977371 155.653625,235.012863 157.436859,233.916718 
	C162.501938,231.189331 167.249466,228.593567 172.174759,226.228806 
	C172.885635,225.933884 173.418762,225.407959 174.118317,224.616669 
	C175.190109,223.914642 176.095459,223.478012 177.000824,223.041382 
	C177.000565,234.343582 177.000183,245.645798 177.000076,256.947998 
	C177.000046,260.689362 177.000671,264.430725 176.998657,268.581177 
	C170.310104,268.990723 163.623856,268.991211 156.469208,268.986053 
z"/>
<path fill="#1F4492" opacity="1.000000" stroke="none" 
	d="
M83.632378,37.023308 
	C82.903824,38.647293 81.822922,40.315823 80.372536,41.991337 
	C81.095375,40.354828 82.187698,38.711334 83.632378,37.023308 
z"/>
<path fill="#172E8D" opacity="1.000000" stroke="none" 
	d="
M52.832024,81.286850 
	C53.987698,84.034195 55.565609,87.031006 55.846973,90.144974 
	C56.181938,93.852058 55.205292,97.656708 55.148731,101.424370 
	C55.022160,109.855835 55.127991,118.290611 55.110683,126.723976 
	C55.100994,131.445389 55.034412,136.166687 54.988762,141.321167 
	C51.950844,141.803635 48.917618,141.852936 45.451347,141.440277 
	C45.340511,139.536713 46.017162,138.073212 45.929634,136.656967 
	C45.131779,123.746742 48.435272,110.516182 42.983025,97.965614 
	C42.983044,97.227074 42.983063,96.488541 43.328255,95.372192 
	C47.635201,94.001244 44.803318,92.415138 44.021362,91.007957 
	C44.034519,90.602554 44.047676,90.197159 44.103600,89.492630 
	C46.990993,86.658401 49.835625,84.123291 52.832024,81.286850 
M45.412418,101.483246 
	C45.412418,101.483246 45.523163,101.417168 45.412418,101.483246 
z"/>
<path fill="#15258B" opacity="1.000000" stroke="none" 
	d="
M42.618107,97.979599 
	C48.435272,110.516182 45.131779,123.746742 45.929634,136.656967 
	C46.017162,138.073212 45.340511,139.536713 45.000404,141.378204 
	C43.921448,141.848022 42.860386,141.917923 41.401817,142.026047 
	C38.621628,142.015060 36.238949,141.965866 33.413681,141.839890 
	C32.992741,133.473358 33.069862,125.183128 33.001602,116.894104 
	C32.981606,114.465759 32.548450,112.040817 32.143677,109.286339 
	C32.016396,108.265915 32.050102,107.573456 32.150795,106.542374 
	C34.095760,104.596283 35.950752,102.960884 37.859264,101.390518 
	C39.288170,100.214783 40.786030,99.122841 42.618107,97.979599 
z"/>
<path fill="#15258B" opacity="1.000000" stroke="none" 
	d="
M43.781120,91.018600 
	C44.803318,92.415138 47.635201,94.001244 43.329094,95.002930 
	C42.916656,93.881516 42.848545,92.751572 42.921677,91.352264 
	C43.062920,91.082916 43.540874,91.029251 43.781120,91.018600 
z"/>
<path fill="#214D93" opacity="1.000000" stroke="none" 
	d="
M98.679596,16.004887 
	C98.426117,16.470997 97.878548,16.954184 97.162399,17.203144 
	C97.457710,16.653267 97.921616,16.337616 98.679596,16.004887 
z"/>
<path fill="#3DA0CA" opacity="1.000000" stroke="none" 
	d="
M135.188309,247.072144 
	C132.225067,248.672195 129.246490,250.244751 126.305336,251.884399 
	C124.929214,252.651581 123.625389,253.548416 122.084824,254.672394 
	C120.285164,254.111359 118.689484,253.264435 116.168999,251.926666 
	C121.898315,247.992493 118.108200,243.419250 118.078835,238.994354 
	C117.915337,214.353745 117.941566,189.711258 118.046585,165.070007 
	C118.069832,159.616974 118.439461,154.136810 119.126770,148.729797 
	C119.388924,146.667480 120.990936,144.775497 121.992661,142.424835 
	C123.071503,142.017731 124.140007,141.991669 125.804611,142.240997 
	C127.595520,142.333176 128.790329,142.149979 129.985138,141.966797 
	C132.027069,141.972565 134.068985,141.978348 136.627686,142.270752 
	C137.174057,142.926498 137.203690,143.295609 136.972351,143.999130 
	C134.247665,145.720825 129.690964,143.779465 129.909790,149.403610 
	C130.258774,158.372528 130.000397,167.365036 130.000153,176.347580 
	C129.999634,194.601379 130.000000,212.855179 130.000000,231.108978 
	C130.000000,236.176819 130.000000,241.244675 130.000000,246.329300 
	C131.407242,246.530792 133.297775,246.801468 135.188309,247.072144 
z"/>
<path fill="#2D6FA6" opacity="1.000000" stroke="none" 
	d="
M129.816818,141.726288 
	C128.790329,142.149979 127.595520,142.333176 126.205521,142.239594 
	C126.474716,141.653152 126.939117,141.343475 127.696846,141.011826 
	C128.542953,141.155136 129.095734,141.320450 129.816818,141.726288 
z"/>
<path fill="#DFF4F7" opacity="1.000000" stroke="none" 
	d="
M137.233322,143.664734 
	C137.203690,143.295609 137.174057,142.926498 137.064636,142.290405 
	C137.386292,141.390442 137.787735,140.757462 138.278412,139.861145 
	C142.634674,133.341736 146.901703,127.085709 151.262405,120.483887 
	C151.658844,120.164673 151.887894,120.047325 152.337585,119.445541 
	C152.802048,118.757858 152.972153,118.410675 153.142242,118.063484 
	C153.142242,118.063484 153.053421,118.052483 153.336975,118.020096 
	C153.850388,117.693596 154.080261,117.399490 154.310135,117.105385 
	C155.280899,116.016174 156.251648,114.926971 157.503906,113.694832 
	C155.864090,117.462601 154.303467,121.609894 151.932022,125.225342 
	C148.824509,129.962982 145.016083,134.235641 141.630829,138.798584 
	C139.967896,141.040009 139.781738,143.121353 142.278122,145.311371 
	C143.404648,146.299637 143.481598,148.484329 143.959290,150.610992 
	C143.883850,151.095795 143.662964,151.263916 143.424377,151.084198 
	C142.009705,149.843155 140.833588,148.781830 139.650543,147.523010 
	C139.643600,147.325531 139.448715,146.981720 139.423340,146.634766 
	C138.676407,145.413452 137.954865,144.539093 137.233322,143.664734 
z"/>
<path fill="#E3F7F9" opacity="1.000000" stroke="none" 
	d="
M143.991898,151.008667 
	C146.886688,153.976532 149.817780,156.914291 152.419922,160.119141 
	C155.073700,163.387573 157.540649,166.830826 159.816528,170.372864 
	C160.896332,172.053421 161.341125,174.141998 162.055984,176.497818 
	C162.038345,176.949921 161.908676,177.073898 161.626480,176.901215 
	C159.327835,174.113403 157.311401,171.498276 155.203613,168.570892 
	C154.442200,167.430054 153.772095,166.601486 153.058487,165.572571 
	C152.889359,165.107285 152.685211,164.935913 152.307373,164.545624 
	C151.510498,163.456604 150.808777,162.680084 150.119995,161.908234 
	C150.132904,161.912872 150.134659,161.884003 150.108414,161.556335 
	C149.107666,160.104187 148.133163,158.979691 147.180359,157.830078 
	C147.202057,157.804947 147.225159,157.742706 147.157013,157.411682 
	C145.946915,155.141754 144.804932,153.202835 143.662964,151.263916 
	C143.662964,151.263916 143.883850,151.095795 143.991898,151.008667 
z"/>
<path fill="#E3F7F9" opacity="1.000000" stroke="none" 
	d="
M194.815735,211.147400 
	C193.059509,212.513687 190.907013,213.812637 188.268021,214.811996 
	C184.533386,210.000259 181.285233,205.488113 177.971710,200.719894 
	C177.620697,200.284821 177.335068,200.105820 177.058975,199.961090 
	C177.068497,199.995361 177.089996,199.927521 177.087311,199.617477 
	C177.023026,198.898911 176.961456,198.490402 176.969162,198.021790 
	C177.038437,197.961700 177.177780,197.842468 177.177780,197.842468 
	C178.933029,197.926666 180.688278,198.010864 182.617111,198.103363 
	C180.176865,205.007324 188.352509,206.651535 189.690125,211.914215 
	C191.548080,211.586517 192.983765,211.333298 194.815735,211.147400 
z"/>
<path fill="#E3F7F9" opacity="1.000000" stroke="none" 
	d="
M162.099472,176.884277 
	C165.400604,180.140457 168.998703,183.192413 171.768951,186.868271 
	C174.044281,189.887405 175.335999,193.647827 177.120728,197.461075 
	C177.177780,197.842468 177.038437,197.961700 176.724731,197.900482 
	C175.961105,197.541870 175.511200,197.244476 175.035751,196.963226 
	C175.010208,196.979355 175.056763,196.955948 174.987701,196.704758 
	C174.623932,196.282852 174.329208,196.112152 174.029739,195.973801 
	C174.024994,196.006149 174.058334,195.948975 174.001297,195.717987 
	C173.806885,195.177551 173.577606,194.969254 173.219147,194.566193 
	C172.819077,193.838348 172.456268,193.406464 172.002594,192.714966 
	C171.626724,192.234039 171.341721,192.012711 171.041473,191.577789 
	C171.026245,191.364212 170.852997,190.972565 170.836243,190.731873 
	C170.628296,190.209152 170.365768,190.034042 170.015961,189.982941 
	C170.000000,190.000000 170.035172,189.968781 169.961761,189.719788 
	C169.607391,189.285858 169.326416,189.100891 169.051620,188.955444 
	C169.057785,188.994949 169.097473,188.925537 169.065948,188.574402 
	C166.659164,184.506821 164.283920,180.790359 161.908676,177.073898 
	C161.908676,177.073898 162.038345,176.949921 162.099472,176.884277 
z"/>
<path fill="#E3F7F9" opacity="1.000000" stroke="none" 
	d="
M231.709549,189.025513 
	C227.977905,191.668228 223.838470,194.290665 219.343170,196.947357 
	C219.985382,193.987778 227.361221,189.210251 231.709549,189.025513 
z"/>
<path fill="#E3F7F9" opacity="1.000000" stroke="none" 
	d="
M206.908905,204.076599 
	C203.483078,206.453110 199.688858,208.785034 195.550461,211.182449 
	C196.363098,207.569504 202.567154,203.619705 206.908905,204.076599 
z"/>
<path fill="#E3F7F9" opacity="1.000000" stroke="none" 
	d="
M214.737244,199.041290 
	C213.996872,199.982315 212.865204,200.908646 211.549408,202.096634 
	C210.791092,202.583313 210.216934,202.808319 209.334534,203.051575 
	C209.396622,199.876282 211.437592,198.880829 214.737244,199.041290 
z"/>
<path fill="#DFF4F7" opacity="1.000000" stroke="none" 
	d="
M201.998322,77.397552 
	C203.496078,77.815811 205.003906,78.592072 206.779373,79.640289 
	C204.164612,82.003540 202.831863,80.474472 201.998322,77.397552 
z"/>
<path fill="#E3F7F9" opacity="1.000000" stroke="none" 
	d="
M216.797791,198.063568 
	C216.939789,198.337891 216.766403,198.611389 216.245728,198.802368 
	C216.114548,198.494156 216.309219,198.275131 216.797791,198.063568 
z"/>
<path fill="#3BBCC9" opacity="1.000000" stroke="none" 
	d="
M170.852997,190.972565 
	C170.852997,190.972565 171.026245,191.364212 171.125732,191.843262 
	C171.514618,192.539734 171.804047,192.757141 172.093460,192.974564 
	C172.456268,193.406464 172.819077,193.838348 173.015701,194.699524 
	C173.252441,195.402206 173.655396,195.675598 174.058334,195.948975 
	C174.058334,195.948975 174.024994,196.006149 174.128281,196.206711 
	C174.506638,196.590164 174.781693,196.773056 175.056763,196.955948 
	C175.056763,196.955948 175.010208,196.979355 175.020401,197.326202 
	C175.717056,198.424545 176.403534,199.176025 177.089996,199.927521 
	C177.089996,199.927521 177.068497,199.995361 177.149750,200.197189 
	C177.499710,200.591339 177.768387,200.783661 178.037079,200.975983 
	C181.285233,205.488113 184.533386,210.000259 187.909424,214.838898 
	C188.037308,215.165390 188.129791,215.610703 188.187897,215.831390 
	C184.622452,218.191452 180.998886,220.330841 177.188080,222.755798 
	C176.095459,223.478012 175.190109,223.914642 173.798645,224.643005 
	C172.888458,224.992035 172.464371,225.049316 171.986511,224.781036 
	C171.449463,224.164551 170.830444,223.513321 170.503204,223.636597 
	C165.384415,225.564987 163.866577,224.973862 163.205002,219.870560 
	C162.521683,214.599594 162.327560,209.261246 162.033310,203.946060 
	C161.936035,202.189148 162.633148,200.299118 162.211761,198.664673 
	C160.354996,191.462570 161.594055,189.577194 169.097473,188.925537 
	C169.097473,188.925537 169.057785,188.994949 169.142487,189.192535 
	C169.496521,189.582993 169.765839,189.775894 170.035172,189.968781 
	C170.035172,189.968781 170.000000,190.000000 170.092346,190.195007 
	C170.340805,190.660675 170.563568,190.854858 170.852997,190.972565 
z"/>
<path fill="#7AAED4" opacity="1.000000" stroke="none" 
	d="
M238.811020,97.832253 
	C238.408035,97.907845 237.858429,97.714775 237.136841,97.278152 
	C237.531387,97.210922 238.097885,97.387260 238.811020,97.832253 
z"/>
<path fill="#2C749D" opacity="1.000000" stroke="none" 
	d="
M154.030151,117.176544 
	C154.080261,117.399490 153.850388,117.693596 153.343033,118.064423 
	C153.293747,117.843330 153.521957,117.545517 154.030151,117.176544 
z"/>
<path fill="#2C749D" opacity="1.000000" stroke="none" 
	d="
M152.872681,118.194122 
	C152.972153,118.410675 152.802048,118.757858 152.369843,119.245697 
	C152.272873,119.032478 152.438004,118.678619 152.872681,118.194122 
z"/>
<path fill="#3DA7CB" opacity="1.000000" stroke="none" 
	d="
M143.424377,151.084198 
	C144.804932,153.202835 145.946915,155.141754 146.752075,157.457825 
	C139.889252,156.184357 137.034561,158.906906 138.272873,165.489441 
	C138.666611,167.582474 138.961258,169.730209 138.968872,171.854095 
	C139.026031,187.786301 139.106873,203.720215 138.898117,219.649872 
	C138.861984,222.406525 137.330460,225.115479 136.798111,227.905304 
	C136.521042,229.357208 136.401688,231.243576 137.093887,232.409668 
	C141.228043,239.374237 141.310089,239.307144 149.572647,237.089172 
	C150.349564,236.880630 151.223892,237.034912 152.052979,237.020737 
	C152.052979,237.020737 152.011261,237.489090 151.997528,237.723480 
	C146.580643,240.892029 141.177505,243.826202 135.481354,246.916260 
	C133.297775,246.801468 131.407242,246.530792 130.000000,246.329300 
	C130.000000,241.244675 130.000000,236.176819 130.000000,231.108978 
	C130.000000,212.855179 129.999634,194.601379 130.000153,176.347580 
	C130.000397,167.365036 130.258774,158.372528 129.909790,149.403610 
	C129.690964,143.779465 134.247665,145.720825 136.972351,143.999130 
	C137.954865,144.539093 138.676407,145.413452 139.087433,146.653442 
	C138.286804,147.261963 137.796692,147.504868 137.306595,147.747772 
	C137.401505,147.982468 137.496429,148.217163 137.591354,148.451874 
	C138.280075,148.208069 138.968781,147.964279 139.657486,147.720490 
	C140.833588,148.781830 142.009705,149.843155 143.424377,151.084198 
z"/>
<path fill="#3BADCA" opacity="1.000000" stroke="none" 
	d="
M152.387589,236.981308 
	C151.223892,237.034912 150.349564,236.880630 149.572647,237.089172 
	C141.310089,239.307144 141.228043,239.374237 137.093887,232.409668 
	C136.401688,231.243576 136.521042,229.357208 136.798111,227.905304 
	C137.330460,225.115479 138.861984,222.406525 138.898117,219.649872 
	C139.106873,203.720215 139.026031,187.786301 138.968872,171.854095 
	C138.961258,169.730209 138.666611,167.582474 138.272873,165.489441 
	C137.034561,158.906906 139.889252,156.184357 146.820206,157.788849 
	C147.225159,157.742706 147.202057,157.804947 147.130646,158.210480 
	C148.084381,159.705353 149.109528,160.794678 150.134659,161.884003 
	C150.134659,161.884003 150.132904,161.912872 150.091949,162.293900 
	C150.834854,163.402664 151.618683,164.130386 152.402527,164.858124 
	C152.685211,164.935913 152.889359,165.107285 153.025299,165.976593 
	C153.025681,167.386734 153.015747,168.192490 153.006805,169.346588 
	C152.698761,173.852539 152.279694,178.005768 152.112823,182.169098 
	C151.957993,186.031281 152.023773,189.905167 152.096069,193.771957 
	C152.119965,195.050003 152.621628,196.319656 152.641068,197.597153 
	C152.803680,208.287292 152.745819,218.985153 153.204315,229.661392 
	C153.269409,231.176956 155.754364,232.588608 157.119324,234.048355 
	C155.653625,235.012863 154.187912,235.977371 152.387589,236.981308 
z"/>
<path fill="#3DB4CA" opacity="1.000000" stroke="none" 
	d="
M157.436859,233.916718 
	C155.754364,232.588608 153.269409,231.176956 153.204315,229.661392 
	C152.745819,218.985153 152.803680,208.287292 152.641068,197.597153 
	C152.621628,196.319656 152.119965,195.050003 152.096069,193.771957 
	C152.023773,189.905167 151.957993,186.031281 152.112823,182.169098 
	C152.279694,178.005768 152.698761,173.852539 153.388245,169.342392 
	C154.277451,168.954315 154.786194,168.918747 155.294952,168.883163 
	C157.311401,171.498276 159.327835,174.113403 161.626480,176.901215 
	C164.283920,180.790359 166.659164,184.506821 169.065948,188.574402 
	C161.594055,189.577194 160.354996,191.462570 162.211761,198.664673 
	C162.633148,200.299118 161.936035,202.189148 162.033310,203.946060 
	C162.327560,209.261246 162.521683,214.599594 163.205002,219.870560 
	C163.866577,224.973862 165.384415,225.564987 170.503204,223.636597 
	C170.830444,223.513321 171.449463,224.164551 171.979401,225.003616 
	C172.026077,225.551758 171.996994,225.997787 171.996994,225.997803 
	C167.249466,228.593567 162.501938,231.189331 157.436859,233.916718 
z"/>
<path fill="#1E6887" opacity="1.000000" stroke="none" 
	d="
M172.174759,226.228790 
	C171.996994,225.997787 172.026077,225.551758 172.033173,225.329193 
	C172.464371,225.049316 172.888458,224.992035 173.632217,224.908401 
	C173.418762,225.407959 172.885635,225.933884 172.174759,226.228790 
z"/>
<path fill="#15258B" opacity="1.000000" stroke="none" 
	d="
M45.467789,101.450211 
	C45.523163,101.417168 45.412418,101.483246 45.467789,101.450211 
z"/>
<path fill="#3DA0CA" opacity="1.000000" stroke="none" 
	d="
M139.650543,147.523010 
	C138.968781,147.964279 138.280075,148.208069 137.591354,148.451874 
	C137.496429,148.217163 137.401505,147.982468 137.306595,147.747772 
	C137.796692,147.504868 138.286804,147.261963 139.112808,147.000397 
	C139.448715,146.981720 139.643600,147.325531 139.650543,147.523010 
z"/>
<path fill="#3DA7CB" opacity="1.000000" stroke="none" 
	d="
M150.108414,161.556335 
	C149.109528,160.794678 148.084381,159.705353 147.108948,158.235626 
	C148.133163,158.979691 149.107666,160.104187 150.108414,161.556335 
z"/>
<path fill="#3DA7CB" opacity="1.000000" stroke="none" 
	d="
M152.307373,164.545624 
	C151.618683,164.130386 150.834854,163.402664 150.079041,162.289246 
	C150.808777,162.680084 151.510498,163.456604 152.307373,164.545624 
z"/>
<path fill="#3DA7CB" opacity="1.000000" stroke="none" 
	d="
M155.203613,168.570892 
	C154.786194,168.918747 154.277451,168.954315 153.387253,168.994080 
	C153.015747,168.192490 153.025681,167.386734 153.068817,166.176941 
	C153.772095,166.601486 154.442200,167.430054 155.203613,168.570892 
z"/>
<path fill="#3DB4CA" opacity="1.000000" stroke="none" 
	d="
M177.087311,199.617477 
	C176.403534,199.176025 175.717056,198.424545 175.045944,197.310059 
	C175.511200,197.244476 175.961105,197.541870 176.655457,197.960571 
	C176.961456,198.490402 177.023026,198.898911 177.087311,199.617477 
z"/>
<path fill="#3DB4CA" opacity="1.000000" stroke="none" 
	d="
M177.971710,200.719894 
	C177.768387,200.783661 177.499710,200.591339 177.140228,200.162918 
	C177.335068,200.105820 177.620697,200.284821 177.971710,200.719894 
z"/>
<path fill="#3DB4CA" opacity="1.000000" stroke="none" 
	d="
M174.001297,195.717987 
	C173.655396,195.675598 173.252441,195.402206 173.052948,194.995483 
	C173.577606,194.969254 173.806885,195.177551 174.001297,195.717987 
z"/>
<path fill="#3DB4CA" opacity="1.000000" stroke="none" 
	d="
M174.987701,196.704758 
	C174.781693,196.773056 174.506638,196.590164 174.133026,196.174362 
	C174.329208,196.112152 174.623932,196.282852 174.987701,196.704758 
z"/>
<path fill="#3DB4CA" opacity="1.000000" stroke="none" 
	d="
M172.002594,192.714966 
	C171.804047,192.757141 171.514618,192.539734 171.140961,192.056854 
	C171.341721,192.012711 171.626724,192.234039 172.002594,192.714966 
z"/>
<path fill="#3DB4CA" opacity="1.000000" stroke="none" 
	d="
M170.836243,190.731873 
	C170.563568,190.854858 170.340805,190.660675 170.108307,190.177948 
	C170.365768,190.034042 170.628296,190.209152 170.836243,190.731873 
z"/>
<path fill="#3DB4CA" opacity="1.000000" stroke="none" 
	d="
M169.961761,189.719788 
	C169.765839,189.775894 169.496521,189.582993 169.136322,189.153015 
	C169.326416,189.100891 169.607391,189.285858 169.961761,189.719788 
z"/>
</svg>