<svg version="1.1" id="Layer_1" xmlns="http://www.w3.org/2000/svg" xmlns:xlink="http://www.w3.org/1999/xlink" x="0px" y="0px"
	 width="100%" viewBox="0 0 1667 1667" enable-background="new 0 0 1667 1667" xml:space="preserve">
<path fill="#F37137" opacity="1.000000" stroke="none" 
	d="
M2.000000,1.000000 
	C557.267395,1.000000 1112.534790,1.000000 1668.000000,1.000000 
	C1668.000000,556.034912 1668.000000,1111.069824 1667.537354,1666.552368 
	C1115.255127,1667.000000 563.435425,1667.000000 11.615828,1667.000000 
	C10.115865,1667.000000 8.600065,1666.859131 7.119023,1667.026489 
	C3.237572,1667.464722 1.497115,1665.955688 1.969120,1661.954834 
	C2.163017,1660.311157 2.000189,1658.625366 2.000188,1656.958740 
	C2.000081,1104.972534 2.000046,552.986267 2.000000,1.000000 
M908.971375,545.043396 
	C908.971375,545.043396 908.923096,545.109131 908.938660,544.461731 
	C908.635986,543.686157 908.333313,542.910583 908.030579,542.135071 
	C907.648499,542.532532 907.266357,542.929932 906.261169,543.032593 
	C898.514343,536.667542 890.767517,530.302551 882.955933,523.376648 
	C882.251465,523.005249 881.546936,522.633911 880.227966,522.010315 
	C878.817261,520.938660 877.406555,519.867004 875.936279,518.261475 
	C875.249695,517.912170 874.563171,517.562805 873.238098,516.956482 
	C863.118164,510.453125 852.998169,503.949768 842.791626,496.901855 
	C842.152466,496.675354 841.513306,496.448883 840.195435,496.019409 
	C824.440247,488.421204 808.685059,480.822998 792.765747,472.649231 
	C791.834229,472.451141 790.902649,472.253082 789.227295,471.956726 
	C776.151550,467.639587 763.075745,463.322449 749.833130,458.363312 
	C748.372986,454.283752 745.959961,455.633667 742.729370,457.251251 
	C718.778015,451.728729 694.558777,448.039612 670.001404,445.887665 
	C669.767273,444.436279 669.533203,442.984924 669.299072,441.533539 
	C668.818787,441.419006 668.338440,441.304504 667.858154,441.189972 
	C666.894165,442.843048 665.930115,444.496155 664.037964,446.264679 
	C642.093140,447.278473 620.148376,448.292267 597.565369,448.829987 
	C594.588318,448.954376 590.367310,443.653290 588.180847,450.982910 
	C560.549255,455.509064 533.674500,462.803284 507.610565,473.048981 
	C500.206757,475.959442 492.828644,478.935303 485.061493,481.159363 
	C483.794098,480.423584 482.526703,479.687836 481.259308,478.952057 
	C481.259003,480.700043 481.258667,482.447998 480.733612,484.649323 
	C478.204590,485.849670 475.675568,487.049988 472.619537,487.890198 
	C469.031342,487.834747 466.114594,488.841736 464.421600,493.097778 
	C462.355560,494.182556 460.289551,495.267365 457.716431,495.946259 
	C456.824249,496.668640 455.932068,497.391022 454.579132,498.604340 
	C449.765381,501.480347 444.951660,504.356354 439.722534,506.950073 
	C439.148956,507.529510 438.575348,508.108978 437.478516,509.148071 
	C434.759216,510.931152 432.039917,512.714233 428.808044,514.053223 
	C427.872833,514.980469 426.937622,515.907715 425.502502,517.301025 
	C421.811920,519.909912 418.121338,522.518860 413.684845,525.154724 
	C412.781708,526.077698 411.878571,527.000671 410.554352,528.441895 
	C402.958221,534.909485 395.185425,541.182373 387.801300,547.883545 
	C370.272583,563.790955 354.532104,581.373901 339.356049,600.039490 
	C338.983612,600.739990 338.611145,601.440491 337.970428,602.773804 
	C330.309448,614.181152 322.648499,625.588501 314.333282,637.016357 
	C313.502838,637.403015 312.672424,637.789612 311.842010,638.176270 
	C312.288361,638.812073 312.734711,639.447937 312.990814,640.768005 
	C310.562805,645.171753 308.134796,649.575562 305.084625,653.839600 
	C303.630554,654.155212 302.176483,654.470825 300.722412,654.786438 
	C301.609375,655.915649 302.496368,657.044800 303.162842,658.866211 
	C291.449463,682.716370 281.775848,707.347961 274.086151,733.031921 
	C269.913025,733.906189 271.197021,735.500793 273.418304,738.028320 
	C270.848358,751.199158 268.066315,764.332947 265.756775,777.549255 
	C262.032227,798.863098 261.396881,820.407898 260.867462,841.998413 
	C259.121796,842.824585 257.376129,843.650818 255.630447,844.476990 
	C257.009308,845.876160 258.333374,847.337341 259.801971,848.634949 
	C260.218109,849.002625 261.056000,848.893005 261.873535,849.918640 
	C262.992126,863.258301 264.110718,876.598022 264.586212,890.168030 
	C260.921722,892.976318 262.165283,894.361816 266.239838,895.752625 
	C266.591156,898.142700 266.942474,900.532776 266.659546,903.086243 
	C266.090546,903.713379 265.521576,904.340576 264.952576,904.967712 
	C265.931641,905.311768 266.910706,905.655884 268.165771,906.744263 
	C268.957764,910.729370 269.749725,914.714478 270.163361,919.087036 
	C270.435120,919.723999 270.706848,920.360901 271.284271,921.701782 
	C275.204956,935.459656 279.125641,949.217529 282.722382,963.456604 
	C283.186646,964.309204 283.650940,965.161865 284.534882,966.588867 
	C284.920319,967.510559 285.331482,968.422485 285.687500,969.355408 
	C319.009308,1056.667114 375.909119,1124.109131 456.713989,1171.024536 
	C510.195709,1202.076050 568.107971,1218.937256 629.896606,1221.848267 
	C651.824646,1222.881348 673.789246,1222.614868 695.661377,1219.801392 
	C767.956543,1210.501831 832.661133,1183.266846 889.724792,1137.934448 
	C897.792053,1131.525635 905.567383,1124.749390 913.498169,1119.065186 
	C913.498169,1151.684570 913.498169,1184.303955 913.498169,1217.184570 
	C950.730469,1217.184570 987.306946,1217.184570 1024.527832,1217.184570 
	C1024.527832,1089.467163 1024.527832,962.076294 1024.527832,834.103760 
	C1152.557251,834.103760 1279.943237,834.103760 1407.394775,834.103760 
	C1407.394775,796.828369 1407.394775,760.138611 1407.394775,723.365234 
	C1404.303345,723.208740 1401.651611,723.074524 1398.968872,722.150940 
	C1398.640015,716.870483 1394.590088,718.039368 1391.492310,718.037598 
	C1310.223755,717.990662 1228.955200,718.001221 1147.686646,717.998047 
	C1140.012451,717.997742 1140.001831,717.985474 1140.001587,710.213562 
	C1139.998901,629.611145 1140.000366,549.008789 1139.998779,468.406372 
	C1139.998779,466.741150 1139.961304,465.075806 1139.971680,463.410736 
	C1139.989136,460.614532 1138.783813,458.981659 1135.584351,458.199524 
	C1135.479614,455.927399 1135.374878,453.655273 1135.266602,451.305298 
	C1098.091064,451.305298 1061.300293,451.305298 1024.428833,451.305298 
	C1024.246338,453.065063 1024.093994,454.532776 1023.311768,456.261658 
	C1019.170227,459.100189 1018.971130,463.348480 1018.975281,467.807037 
	C1019.043640,541.507874 1019.053833,615.208801 1019.141846,688.909607 
	C1019.145996,692.380737 1019.417419,695.933472 1020.237183,699.283569 
	C1020.592957,700.737610 1022.656189,701.773926 1024.117188,703.923340 
	C1024.059082,712.282227 1024.000854,720.641113 1023.426514,728.993225 
	C1023.254700,728.984009 1023.082947,728.974731 1022.884888,728.470825 
	C1022.884888,728.470825 1022.762390,727.990479 1022.706787,727.242065 
	C1020.455627,719.836243 1018.204529,712.430481 1016.277344,704.543152 
	C1015.811401,703.690369 1015.345459,702.837646 1014.464172,701.418335 
	C1005.413574,677.615723 994.933167,654.473083 981.285767,632.932800 
	C973.208008,620.183411 964.366394,607.918030 955.897339,594.591553 
	C956.057129,591.574707 954.739136,589.978638 951.136353,589.769287 
	C950.428040,588.834595 949.719788,587.899902 948.908630,586.291931 
	C948.155762,585.562012 947.402893,584.832092 946.131165,583.728149 
	C944.050354,581.260315 941.969604,578.792419 939.872192,575.555237 
	C938.578430,574.371155 937.284607,573.187073 935.414490,571.670044 
	C927.610657,563.776794 919.806824,555.883545 911.899414,547.304932 
	C910.897766,546.560120 909.896118,545.815308 908.971375,545.043396 
M649.319214,439.004944 
	C647.449951,439.269501 645.580688,439.534058 643.711487,439.798615 
	C643.775208,440.289917 643.838867,440.781219 643.902588,441.272522 
	C647.253723,441.272522 650.604797,441.272522 653.955933,441.272522 
	C654.002319,440.817444 654.048706,440.362366 654.095093,439.907288 
	C652.775513,439.609802 651.455872,439.312317 649.319214,439.004944 
M372.521332,554.369507 
	C371.643463,554.635132 370.765594,554.900757 369.887726,555.166443 
	C370.180176,555.653076 370.472656,556.139709 370.765137,556.626343 
	C371.400330,556.056519 372.035522,555.486633 372.521332,554.369507 
M268.114471,930.073425 
	C267.558136,929.550537 267.001801,929.027588 266.445465,928.504700 
	C266.248779,928.866272 266.052063,929.227905 265.855377,929.589478 
	C266.490295,929.869995 267.125214,930.150513 268.114471,930.073425 
M288.343323,665.247864 
	C288.573944,664.764771 288.804535,664.281677 289.035156,663.798584 
	C288.739227,663.727173 288.443298,663.655823 288.147369,663.584473 
	C288.065857,664.105408 287.984344,664.626404 288.343323,665.247864 
M970.243408,600.143860 
	C970.096436,600.037231 969.949463,599.930542 969.802551,599.823853 
	C969.895020,599.979553 969.987488,600.135193 970.243408,600.143860 
M255.756500,816.856262 
	C255.903503,816.962952 256.050507,817.069580 256.197510,817.176208 
	C256.105011,817.020569 256.012482,816.864929 255.756500,816.856262 
M342.725403,586.076599 
	C342.903717,586.045715 343.082062,586.014771 343.260376,585.983826 
	C343.085144,585.940674 342.909882,585.897522 342.725403,586.076599 
z"/>
<path fill="#F69369" opacity="1.000000" stroke="none" 
	d="
M1.500000,1.000000 
	C2.000046,552.986267 2.000081,1104.972534 2.000188,1656.958740 
	C2.000189,1658.625366 2.163017,1660.311157 1.969120,1661.954834 
	C1.497115,1665.955688 3.237572,1667.464722 7.119023,1667.026489 
	C8.600065,1666.859131 10.115865,1667.000000 11.615828,1667.000000 
	C563.435425,1667.000000 1115.255127,1667.000000 1667.537354,1667.000000 
	C1667.833374,1667.333374 1667.684204,1667.943848 1667.497314,1667.955566 
	C1666.169067,1668.038940 1664.833374,1668.000000 1663.500000,1668.000000 
	C1109.333374,1668.000000 555.166809,1668.000000 1.000099,1668.000000 
	C1.000000,1112.333374 1.000000,556.666687 1.500000,1.000000 
z"/>
<path fill="#F37137" opacity="1.000000" stroke="none" 
	d="
M1022.911194,728.965515 
	C1023.082947,728.974731 1023.254700,728.984009 1023.771179,729.458313 
	C1024.115845,764.496521 1024.115845,799.069641 1024.115845,834.202209 
	C896.145874,834.202209 768.824158,834.202209 641.585938,834.202209 
	C641.585938,871.463318 641.585938,908.158936 641.585938,945.164795 
	C644.163086,945.164795 646.318054,945.164185 648.473022,945.164856 
	C732.262695,945.189636 816.052429,945.214661 899.843994,945.598755 
	C899.023376,948.119690 898.339111,950.346558 897.357727,952.433716 
	C880.979004,987.270386 858.753967,1017.808289 829.594910,1043.022339 
	C766.951782,1097.190308 694.188477,1119.371094 612.273315,1108.515137 
	C542.476990,1099.265381 484.318878,1066.869995 439.363770,1012.669067 
	C385.540466,947.775879 366.010437,872.842957 379.720428,789.817078 
	C389.357269,731.457336 416.293671,681.591003 458.845276,640.471313 
	C509.379547,591.637756 570.056396,565.959290 640.205627,563.171204 
	C654.108582,562.618591 668.194641,563.391479 682.030151,564.990662 
	C743.782043,572.128540 796.769165,598.074402 841.337830,641.191833 
	C866.158081,665.203979 885.478027,693.204163 899.671692,724.697510 
	C900.888000,727.396484 902.194946,728.941345 905.499268,728.929810 
	C944.328125,728.793945 983.157471,728.795715 1022.213501,728.831787 
	C1022.440308,728.902466 1022.911194,728.965515 1022.911194,728.965515 
z"/>
<path fill="#F8B79B" opacity="1.000000" stroke="none" 
	d="
M1021.986694,728.761169 
	C983.157471,728.795715 944.328125,728.793945 905.499268,728.929810 
	C902.194946,728.941345 900.888000,727.396484 899.671692,724.697510 
	C885.478027,693.204163 866.158081,665.203979 841.337830,641.191833 
	C796.769165,598.074402 743.782043,572.128540 682.030151,564.990662 
	C668.194641,563.391479 654.108582,562.618591 640.205627,563.171204 
	C570.056396,565.959290 509.379547,591.637756 458.845276,640.471313 
	C416.293671,681.591003 389.357269,731.457336 379.720428,789.817078 
	C366.010437,872.842957 385.540466,947.775879 439.363770,1012.669067 
	C484.318878,1066.869995 542.476990,1099.265381 612.273315,1108.515137 
	C694.188477,1119.371094 766.951782,1097.190308 829.594910,1043.022339 
	C858.753967,1017.808289 880.979004,987.270386 897.357727,952.433716 
	C898.339111,950.346558 899.023376,948.119690 900.315430,945.541504 
	C903.447998,945.127136 906.135620,945.359497 908.768616,945.078796 
	C913.012634,944.626465 913.932678,946.715210 913.648499,950.393433 
	C913.366943,954.038025 913.329224,957.708130 913.331604,961.366943 
	C913.365662,1013.625732 913.424744,1065.884521 913.477783,1118.143311 
	C905.567383,1124.749390 897.792053,1131.525635 889.724792,1137.934448 
	C832.661133,1183.266846 767.956543,1210.501831 695.661377,1219.801392 
	C673.789246,1222.614868 651.824646,1222.881348 629.896606,1221.848267 
	C568.107971,1218.937256 510.195709,1202.076050 456.713989,1171.024536 
	C375.909119,1124.109131 319.009308,1056.667114 285.687500,969.355408 
	C285.331482,968.422485 284.920319,967.510559 284.302063,965.971191 
	C283.728241,964.560791 283.387299,963.768066 283.046356,962.975403 
	C279.125641,949.217529 275.204956,935.459656 271.137512,921.054443 
	C270.841095,919.837952 270.691406,919.268799 270.541718,918.699585 
	C269.749725,914.714478 268.957764,910.729370 268.054016,906.051147 
	C267.726105,904.546326 267.509949,903.734619 267.293823,902.922852 
	C266.942474,900.532776 266.591156,898.142700 266.132812,895.002808 
	C265.760345,892.814575 265.494843,891.376099 265.229340,889.937683 
	C264.110718,876.598022 262.992126,863.258301 261.835266,849.023804 
	C261.735931,846.083374 261.674835,844.037781 261.613708,841.992188 
	C261.396881,820.407898 262.032227,798.863098 265.756775,777.549255 
	C268.066315,764.332947 270.848358,751.199158 273.612244,737.346802 
	C274.124878,735.443054 274.443604,734.220825 274.762329,732.998657 
	C281.775848,707.347961 291.449463,682.716370 303.464783,658.288757 
	C304.413422,656.467285 305.060089,655.223328 305.706757,653.979309 
	C308.134796,649.575562 310.562805,645.171753 313.313477,640.225708 
	C314.086609,638.787598 314.537079,637.891724 314.987549,636.995911 
	C322.648499,625.588501 330.309448,614.181152 338.332977,602.296143 
	C339.100952,601.202820 339.506409,600.587158 339.911865,599.971497 
	C354.532104,581.373901 370.272583,563.790955 387.801300,547.883545 
	C395.185425,541.182373 402.958221,534.909485 411.058960,528.063843 
	C412.519318,526.833130 413.475037,525.980469 414.430756,525.127747 
	C418.121338,522.518860 421.811920,519.909912 426.025146,516.966553 
	C427.472046,515.920471 428.396301,515.208862 429.320587,514.497314 
	C432.039917,512.714233 434.759216,510.931152 437.986694,508.828857 
	C439.042572,508.083893 439.590240,507.658142 440.137939,507.232361 
	C444.951660,504.356354 449.765381,501.480347 455.107269,498.285095 
	C456.498108,497.427917 457.360809,496.890015 458.223511,496.352142 
	C460.289551,495.267365 462.355560,494.182556 465.019379,492.793915 
	C468.126953,491.076813 470.636749,489.663574 473.146545,488.250336 
	C475.675568,487.049988 478.204590,485.849670 481.305847,484.360718 
	C483.064941,483.341797 484.251862,482.611481 485.438782,481.881165 
	C492.828644,478.935303 500.206757,475.959442 507.610565,473.048981 
	C533.674500,462.803284 560.549255,455.509064 588.983459,450.904602 
	C592.591919,450.319519 595.397705,449.812805 598.203552,449.306091 
	C620.148376,448.292267 642.093140,447.278473 664.836853,446.350952 
	C667.092896,446.499603 668.550049,446.561981 670.007202,446.624329 
	C694.558777,448.039612 718.778015,451.728729 743.435303,457.461914 
	C746.094177,458.116821 748.047119,458.561096 750.000000,459.005371 
	C763.075745,463.322449 776.151550,467.639587 789.847290,472.214417 
	C791.288147,472.722992 792.109009,472.973877 792.929871,473.224762 
	C808.685059,480.822998 824.440247,488.421204 840.739258,496.335754 
	C841.814819,496.916870 842.346558,497.181671 842.878235,497.446472 
	C852.998169,503.949768 863.118164,510.453125 873.714233,517.304565 
	C874.792236,518.033508 875.394043,518.414429 875.995850,518.795349 
	C877.406555,519.867004 878.817261,520.938660 880.703247,522.359802 
	C881.792480,523.118713 882.406555,523.528137 883.020630,523.937561 
	C890.767517,530.302551 898.514343,536.667542 906.717285,543.414185 
	C907.756592,544.233643 908.339844,544.671387 908.923096,545.109131 
	C908.923096,545.109131 908.971375,545.043396 909.077393,545.331360 
	C910.123352,546.409607 911.063171,547.199951 912.002991,547.990295 
	C919.806824,555.883545 927.610657,563.776794 935.849487,572.124023 
	C937.485901,573.826782 938.687378,575.075684 939.888794,576.324585 
	C941.969604,578.792419 944.050354,581.260315 946.524170,584.203247 
	C947.615295,585.440613 948.313416,586.202942 949.011475,586.965210 
	C949.719788,587.899902 950.428040,588.834595 951.524841,590.253662 
	C953.231689,592.303650 954.549988,593.869324 955.868286,595.434998 
	C964.366394,607.918030 973.208008,620.183411 981.285767,632.932800 
	C994.933167,654.473083 1005.413574,677.615723 1014.695435,702.032593 
	C1015.268921,703.439453 1015.611145,704.232056 1015.953369,705.024658 
	C1018.204529,712.430481 1020.455627,719.836243 1022.593994,727.732300 
	C1022.299377,728.386475 1022.134521,728.566040 1021.986694,728.761169 
z"/>
<path fill="#FFFFFF" opacity="1.000000" stroke="none" 
	d="
M913.487976,1118.604248 
	C913.424744,1065.884521 913.365662,1013.625732 913.331604,961.366943 
	C913.329224,957.708130 913.366943,954.038025 913.648499,950.393433 
	C913.932678,946.715210 913.012634,944.626465 908.768616,945.078796 
	C906.135620,945.359497 903.447998,945.127136 900.313477,945.182373 
	C816.052429,945.214661 732.262695,945.189636 648.473022,945.164856 
	C646.318054,945.164185 644.163086,945.164795 641.585938,945.164795 
	C641.585938,908.158936 641.585938,871.463318 641.585938,834.202209 
	C768.824158,834.202209 896.145874,834.202209 1024.115845,834.202209 
	C1024.115845,799.069641 1024.115845,764.496521 1024.029297,729.461670 
	C1024.000854,720.641113 1024.059082,712.282227 1024.117065,702.999939 
	C1024.131104,620.877502 1024.145874,539.678467 1024.150269,458.479431 
	C1024.150391,457.653107 1024.014282,456.826813 1023.941772,456.000488 
	C1024.093994,454.532776 1024.246338,453.065063 1024.428833,451.305298 
	C1061.300293,451.305298 1098.091064,451.305298 1135.266602,451.305298 
	C1135.374878,453.655273 1135.479614,455.927399 1135.584229,459.041565 
	C1135.556763,460.382690 1135.505859,460.881714 1135.505737,461.380768 
	C1135.498169,547.037537 1135.492554,632.694275 1135.501709,718.351013 
	C1135.501831,719.813599 1135.679932,721.276123 1135.802246,723.159424 
	C1138.093872,723.159424 1140.070068,723.159424 1142.046265,723.159424 
	C1225.869873,723.159424 1309.693604,723.160767 1393.517212,723.150269 
	C1395.344849,723.150024 1397.172363,723.013428 1399.000000,722.940369 
	C1401.651611,723.074524 1404.303345,723.208740 1407.394775,723.365234 
	C1407.394775,760.138611 1407.394775,796.828369 1407.394775,834.103760 
	C1279.943237,834.103760 1152.557251,834.103760 1024.527832,834.103760 
	C1024.527832,962.076294 1024.527832,1089.467163 1024.527832,1217.184570 
	C987.306946,1217.184570 950.730469,1217.184570 913.498169,1217.184570 
	C913.498169,1184.303955 913.498169,1151.684570 913.487976,1118.604248 
z"/>
<path fill="#F37137" opacity="1.000000" stroke="none" 
	d="
M1398.984375,722.545654 
	C1397.172363,723.013428 1395.344849,723.150024 1393.517212,723.150269 
	C1309.693604,723.160767 1225.869873,723.159424 1142.046265,723.159424 
	C1140.070068,723.159424 1138.093872,723.159424 1135.802246,723.159424 
	C1135.679932,721.276123 1135.501831,719.813599 1135.501709,718.351013 
	C1135.492554,632.694275 1135.498169,547.037537 1135.505737,461.380768 
	C1135.505859,460.881714 1135.556763,460.382690 1135.706055,459.427612 
	C1138.783813,458.981659 1139.989136,460.614532 1139.971680,463.410736 
	C1139.961304,465.075806 1139.998779,466.741150 1139.998779,468.406372 
	C1140.000366,549.008789 1139.998901,629.611145 1140.001587,710.213562 
	C1140.001831,717.985474 1140.012451,717.997742 1147.686646,717.998047 
	C1228.955200,718.001221 1310.223755,717.990662 1391.492310,718.037598 
	C1394.590088,718.039368 1398.640015,716.870483 1398.984375,722.545654 
z"/>
<path fill="#F37137" opacity="1.000000" stroke="none" 
	d="
M1023.626770,456.131073 
	C1024.014282,456.826813 1024.150391,457.653107 1024.150269,458.479431 
	C1024.145874,539.678467 1024.131104,620.877502 1024.030396,702.538269 
	C1022.656189,701.773926 1020.592957,700.737610 1020.237183,699.283569 
	C1019.417419,695.933472 1019.145996,692.380737 1019.141846,688.909607 
	C1019.053833,615.208801 1019.043640,541.507874 1018.975281,467.807037 
	C1018.971130,463.348480 1019.170227,459.100189 1023.626770,456.131073 
z"/>
<path fill="#F37137" opacity="1.000000" stroke="none" 
	d="
M261.240601,841.995300 
	C261.674835,844.037781 261.735931,846.083374 261.748718,848.565613 
	C261.056000,848.893005 260.218109,849.002625 259.801971,848.634949 
	C258.333374,847.337341 257.009308,845.876160 255.630447,844.476990 
	C257.376129,843.650818 259.121796,842.824585 261.240601,841.995300 
z"/>
<path fill="#F37137" opacity="1.000000" stroke="none" 
	d="
M649.727783,439.009888 
	C651.455872,439.312317 652.775513,439.609802 654.095093,439.907288 
	C654.048706,440.362366 654.002319,440.817444 653.955933,441.272522 
	C650.604797,441.272522 647.253723,441.272522 643.902588,441.272522 
	C643.838867,440.781219 643.775208,440.289917 643.711487,439.798615 
	C645.580688,439.534058 647.449951,439.269501 649.727783,439.009888 
z"/>
<path fill="#F37137" opacity="1.000000" stroke="none" 
	d="
M597.884460,449.068054 
	C595.397705,449.812805 592.591919,450.319519 589.392456,450.810150 
	C590.367310,443.653290 594.588318,448.954376 597.884460,449.068054 
z"/>
<path fill="#F37137" opacity="1.000000" stroke="none" 
	d="
M670.004272,446.255981 
	C668.550049,446.561981 667.092896,446.499603 665.300903,446.293243 
	C665.930115,444.496155 666.894165,442.843048 667.858154,441.189972 
	C668.338440,441.304504 668.818787,441.419006 669.299072,441.533539 
	C669.533203,442.984924 669.767273,444.436279 670.004272,446.255981 
z"/>
<path fill="#F37137" opacity="1.000000" stroke="none" 
	d="
M485.250122,481.520264 
	C484.251862,482.611481 483.064941,483.341797 481.568176,484.134033 
	C481.258667,482.447998 481.259003,480.700043 481.259308,478.952057 
	C482.526703,479.687836 483.794098,480.423584 485.250122,481.520264 
z"/>
<path fill="#F37137" opacity="1.000000" stroke="none" 
	d="
M305.395691,653.909424 
	C305.060089,655.223328 304.413422,656.467285 303.575043,657.942627 
	C302.496368,657.044800 301.609375,655.915649 300.722412,654.786377 
	C302.176483,654.470825 303.630554,654.155212 305.395691,653.909424 
z"/>
<path fill="#F37137" opacity="1.000000" stroke="none" 
	d="
M472.883057,488.070251 
	C470.636749,489.663574 468.126953,491.076813 465.309906,492.597168 
	C466.114594,488.841736 469.031342,487.834747 472.883057,488.070251 
z"/>
<path fill="#F37137" opacity="1.000000" stroke="none" 
	d="
M264.907776,890.052856 
	C265.494843,891.376099 265.760345,892.814575 266.006348,894.626465 
	C262.165283,894.361816 260.921722,892.976318 264.907776,890.052856 
z"/>
<path fill="#F37137" opacity="1.000000" stroke="none" 
	d="
M749.916565,458.684326 
	C748.047119,458.561096 746.094177,458.116821 743.820557,457.462158 
	C745.959961,455.633667 748.372986,454.283752 749.916565,458.684326 
z"/>
<path fill="#F37137" opacity="1.000000" stroke="none" 
	d="
M955.882812,595.013306 
	C954.549988,593.869324 953.231689,592.303650 951.759583,590.432922 
	C954.739136,589.978638 956.057129,591.574707 955.882812,595.013306 
z"/>
<path fill="#F37137" opacity="1.000000" stroke="none" 
	d="
M372.596039,554.643127 
	C372.035522,555.486633 371.400330,556.056519 370.765137,556.626343 
	C370.472656,556.139709 370.180176,555.653076 369.887726,555.166443 
	C370.765594,554.900757 371.643463,554.635132 372.596039,554.643127 
z"/>
<path fill="#F37137" opacity="1.000000" stroke="none" 
	d="
M274.424255,733.015259 
	C274.443604,734.220825 274.124878,735.443054 273.668823,736.949646 
	C271.197021,735.500793 269.913025,733.906189 274.424255,733.015259 
z"/>
<path fill="#F37137" opacity="1.000000" stroke="none" 
	d="
M266.976685,903.004517 
	C267.509949,903.734619 267.726105,904.546326 267.916016,905.679077 
	C266.910706,905.655884 265.931641,905.311768 264.952576,904.967712 
	C265.521576,904.340576 266.090546,903.713379 266.976685,903.004517 
z"/>
<path fill="#F37137" opacity="1.000000" stroke="none" 
	d="
M267.937317,930.252197 
	C267.125214,930.150513 266.490295,929.869995 265.855377,929.589478 
	C266.052063,929.227905 266.248779,928.866272 266.445465,928.504700 
	C267.001801,929.027588 267.558136,929.550537 267.937317,930.252197 
z"/>
<path fill="#F37137" opacity="1.000000" stroke="none" 
	d="
M939.880493,575.939941 
	C938.687378,575.075684 937.485901,573.826782 936.137573,572.290466 
	C937.284607,573.187073 938.578430,574.371155 939.880493,575.939941 
z"/>
<path fill="#F37137" opacity="1.000000" stroke="none" 
	d="
M429.064331,514.275269 
	C428.396301,515.208862 427.472046,515.920471 426.275116,516.733521 
	C426.937622,515.907715 427.872833,514.980469 429.064331,514.275269 
z"/>
<path fill="#F37137" opacity="1.000000" stroke="none" 
	d="
M314.660400,637.006104 
	C314.537079,637.891724 314.086609,638.787598 313.408600,639.883606 
	C312.734711,639.447937 312.288361,638.812073 311.841980,638.176270 
	C312.672424,637.789612 313.502838,637.403015 314.660400,637.006104 
z"/>
<path fill="#F37137" opacity="1.000000" stroke="none" 
	d="
M457.969971,496.149200 
	C457.360809,496.890015 456.498108,497.427917 455.337646,498.039612 
	C455.932068,497.391022 456.824249,496.668640 457.969971,496.149200 
z"/>
<path fill="#F37137" opacity="1.000000" stroke="none" 
	d="
M288.123077,665.197632 
	C287.984344,664.626404 288.065857,664.105408 288.147369,663.584473 
	C288.443298,663.655823 288.739227,663.727173 289.035156,663.798584 
	C288.804535,664.281677 288.573944,664.764771 288.123077,665.197632 
z"/>
<path fill="#F37137" opacity="1.000000" stroke="none" 
	d="
M908.930908,544.785400 
	C908.339844,544.671387 907.756592,544.233643 907.028809,543.561646 
	C907.266357,542.929932 907.648499,542.532532 908.030640,542.135071 
	C908.333313,542.910583 908.635986,543.686157 908.930908,544.785400 
z"/>
<path fill="#F37137" opacity="1.000000" stroke="none" 
	d="
M282.884369,963.216003 
	C283.387299,963.768066 283.728241,964.560791 284.092224,965.683960 
	C283.650940,965.161865 283.186646,964.309204 282.884369,963.216003 
z"/>
<path fill="#F37137" opacity="1.000000" stroke="none" 
	d="
M414.057800,525.141235 
	C413.475037,525.980469 412.519318,526.833130 411.269531,527.804688 
	C411.878571,527.000671 412.781708,526.077698 414.057800,525.141235 
z"/>
<path fill="#F37137" opacity="1.000000" stroke="none" 
	d="
M792.847778,472.937012 
	C792.109009,472.973877 791.288147,472.722992 790.219238,472.263550 
	C790.902649,472.253082 791.834229,472.451141 792.847778,472.937012 
z"/>
<path fill="#F37137" opacity="1.000000" stroke="none" 
	d="
M1016.115356,704.783936 
	C1015.611145,704.232056 1015.268921,703.439453 1014.903076,702.315857 
	C1015.345459,702.837646 1015.811401,703.690369 1016.115356,704.783936 
z"/>
<path fill="#F37137" opacity="1.000000" stroke="none" 
	d="
M911.951172,547.647583 
	C911.063171,547.199951 910.123352,546.409607 909.038940,545.344971 
	C909.896118,545.815308 910.897766,546.560120 911.951172,547.647583 
z"/>
<path fill="#F37137" opacity="1.000000" stroke="none" 
	d="
M439.930237,507.091248 
	C439.590240,507.658142 439.042572,508.083893 438.248322,508.599030 
	C438.575348,508.108978 439.148956,507.529510 439.930237,507.091248 
z"/>
<path fill="#F37137" opacity="1.000000" stroke="none" 
	d="
M339.633972,600.005493 
	C339.506409,600.587158 339.100952,601.202820 338.467102,601.979736 
	C338.611145,601.440491 338.983612,600.739990 339.633972,600.005493 
z"/>
<path fill="#F37137" opacity="1.000000" stroke="none" 
	d="
M948.960083,586.628540 
	C948.313416,586.202942 947.615295,585.440613 946.783691,584.390259 
	C947.402893,584.832092 948.155762,585.562012 948.960083,586.628540 
z"/>
<path fill="#F37137" opacity="1.000000" stroke="none" 
	d="
M875.966064,518.528442 
	C875.394043,518.414429 874.792236,518.033508 874.033508,517.433044 
	C874.563171,517.562805 875.249695,517.912170 875.966064,518.528442 
z"/>
<path fill="#F37137" opacity="1.000000" stroke="none" 
	d="
M882.988281,523.657104 
	C882.406555,523.528137 881.792480,523.118713 881.010498,522.485901 
	C881.546936,522.633911 882.251465,523.005249 882.988281,523.657104 
z"/>
<path fill="#F37137" opacity="1.000000" stroke="none" 
	d="
M970.161743,600.217346 
	C969.987488,600.135193 969.895020,599.979553 969.802551,599.823853 
	C969.949463,599.930542 970.096436,600.037231 970.161743,600.217346 
z"/>
<path fill="#F37137" opacity="1.000000" stroke="none" 
	d="
M255.838242,816.782776 
	C256.012482,816.864929 256.105011,817.020569 256.197510,817.176208 
	C256.050507,817.069580 255.903503,816.962952 255.838242,816.782776 
z"/>
<path fill="#F37137" opacity="1.000000" stroke="none" 
	d="
M842.834961,497.174164 
	C842.346558,497.181671 841.814819,496.916870 841.078613,496.437256 
	C841.513306,496.448883 842.152466,496.675354 842.834961,497.174164 
z"/>
<path fill="#F37137" opacity="1.000000" stroke="none" 
	d="
M342.730042,585.965454 
	C342.909882,585.897522 343.085144,585.940674 343.260376,585.983826 
	C343.082062,586.014771 342.903717,586.045715 342.730042,585.965454 
z"/>
<path fill="#F37137" opacity="1.000000" stroke="none" 
	d="
M270.352539,918.893311 
	C270.691406,919.268799 270.841095,919.837952 270.984680,920.702515 
	C270.706848,920.360901 270.435120,919.723999 270.352539,918.893311 
z"/>
<path fill="#F7A482" opacity="1.000000" stroke="none" 
	d="
M1022.213501,728.831787 
	C1022.134521,728.566040 1022.299377,728.386475 1022.621765,728.106445 
	C1022.762390,727.990479 1022.884888,728.470825 1022.898071,728.718140 
	C1022.911194,728.965515 1022.440308,728.902466 1022.213501,728.831787 
z"/>
</svg>