<svg version="1.1" id="Layer_1" xmlns="http://www.w3.org/2000/svg" xmlns:xlink="http://www.w3.org/1999/xlink" x="0px" y="0px"
	 width="100%" viewBox="0 0 2390 728" enable-background="new 0 0 2390 728" xml:space="preserve">
<path fill="#FFFFFF" opacity="1.000000" stroke="none" 
	d="
M2063.000000,729.000000 
	C1539.970581,729.000000 1016.941284,729.000000 493.620728,728.593262 
	C498.241364,727.791626 503.194214,727.673096 508.057281,726.950134 
	C522.797058,724.758667 537.678894,723.113464 552.182007,719.828064 
	C578.238037,713.925476 602.413391,703.135742 624.849670,688.610535 
	C642.383789,677.258972 658.063232,663.800415 671.745300,647.901917 
	C682.996643,634.827881 692.721985,620.806213 701.022705,605.739868 
	C713.582825,582.942505 722.013245,558.618713 727.917236,533.155396 
	C671.313171,533.155396 614.847717,533.155396 558.504761,533.155396 
	C553.739441,545.889465 547.810486,557.817749 538.631836,567.840637 
	C527.788330,579.681458 514.441528,586.768127 498.664276,590.257935 
	C482.993622,593.724121 467.479950,593.647766 452.290802,589.516113 
	C428.014984,582.912842 410.599213,567.327698 399.035828,545.162231 
	C387.829102,523.680420 383.648621,500.340118 382.171021,476.523224 
	C381.497589,465.668030 382.685150,454.699158 382.994202,443.780853 
	C383.507721,425.637390 387.397491,408.174377 394.059723,391.368011 
	C400.147522,376.010925 408.937592,362.217987 421.866577,351.818756 
	C444.536957,333.584229 470.755463,329.351288 498.590820,335.381012 
	C527.615540,341.668427 545.767822,360.919769 556.625549,387.595154 
	C558.140686,391.317535 559.638367,392.060974 563.107483,392.055420 
	C613.436340,391.974579 663.765442,392.000000 714.094421,392.000000 
	C717.913818,392.000000 721.733276,392.000000 725.855042,392.000000 
	C725.855042,389.003662 726.439453,386.097839 725.764221,383.522247 
	C719.396484,359.233002 711.029907,335.750702 698.482605,313.815521 
	C689.322571,297.801849 678.692566,282.910034 665.944885,269.694519 
	C657.875671,261.329102 648.961060,253.671387 639.807007,246.484131 
	C624.044312,234.108200 606.732117,224.245255 587.993591,216.963348 
	C570.410217,210.130341 552.574951,204.233749 533.742188,201.967316 
	C519.503113,200.253677 505.280945,197.724442 490.995605,197.256271 
	C476.197968,196.771332 461.292725,197.865265 446.510834,199.147690 
	C434.736206,200.169235 422.936890,201.876953 411.395294,204.406082 
	C389.066010,209.299118 367.784760,217.302704 347.553253,228.046997 
	C330.589020,237.056107 314.731567,247.769043 300.847198,260.949951 
	C290.852753,270.437988 281.727295,280.949799 273.016052,291.657257 
	C257.540436,310.679108 246.626633,332.395020 238.056641,355.257507 
	C226.754776,385.408020 221.840317,416.883179 220.146103,448.858154 
	C219.561340,459.894440 220.839401,471.018341 220.957428,482.105530 
	C221.133698,498.663635 223.803223,514.867126 226.932755,531.068665 
	C230.823471,551.210632 237.272812,570.506592 245.687347,589.119263 
	C254.028702,607.570007 264.035309,625.190002 277.811859,640.148376 
	C289.478638,652.815918 301.363098,665.489868 314.528381,676.516663 
	C329.973785,689.453247 347.837830,699.038696 366.485687,706.839233 
	C393.327484,718.067444 421.192261,725.157471 450.314209,727.054138 
	C454.566986,727.331177 458.772583,728.333374 463.000000,729.000000 
	C309.058746,729.000000 155.117508,729.000000 1.000000,729.000000 
	C1.000000,523.304016 1.000000,317.607941 1.359266,111.592964 
	C2.108085,111.794373 2.751112,112.270477 2.850768,112.841423 
	C7.395263,138.877518 21.059912,159.265686 42.734051,173.731186 
	C63.536095,187.614655 86.718285,192.651093 111.685959,188.044022 
	C141.464890,182.549179 163.909363,166.868179 178.341888,140.165268 
	C187.541245,123.144730 191.297333,105.074745 189.151230,85.600151 
	C187.556122,71.125664 183.511078,57.651535 175.711716,45.496765 
	C162.626175,25.103872 144.666565,10.911624 121.001717,4.531206 
	C116.044174,3.194571 111.002762,2.168941 106.000000,0.999999 
	C867.546326,1.000000 1629.092651,1.000000 2391.000000,1.000000 
	C2391.000000,107.695763 2391.000000,214.391937 2390.641357,321.439331 
	C2389.927979,321.067352 2389.478027,320.375031 2389.232178,319.616547 
	C2382.210693,297.967010 2362.005127,289.647217 2342.852295,294.327423 
	C2319.363281,300.067383 2310.702393,319.721802 2314.527588,341.555573 
	C2317.484619,358.437195 2327.928223,369.154877 2346.016846,372.254974 
	C2361.850342,374.968567 2380.037842,367.076050 2386.991943,352.339783 
	C2388.179688,349.823242 2389.656738,347.443176 2391.000000,345.000031 
	C2391.000000,472.921722 2391.000000,600.843445 2391.000000,729.000000 
	C2294.637451,729.000000 2198.274658,729.000000 2101.621582,728.592529 
	C2116.730957,726.458618 2132.201904,725.206116 2147.513428,722.897888 
	C2172.339111,719.155457 2195.744141,710.919128 2217.723145,698.719116 
	C2236.842041,688.106445 2253.549072,674.691833 2267.170166,657.415894 
	C2286.607666,632.762634 2295.785156,604.521667 2296.858398,573.514526 
	C2297.134033,565.547729 2295.794922,557.507324 2294.971191,549.524109 
	C2293.606445,536.300720 2290.174805,523.566895 2284.765137,511.449280 
	C2271.900146,482.630157 2249.947754,462.386261 2222.815186,447.449219 
	C2195.612305,432.473358 2166.021484,423.797821 2136.162842,416.014862 
	C2111.597900,409.611664 2086.879150,403.760071 2062.464111,396.833832 
	C2048.029053,392.738770 2034.006104,387.120056 2023.269531,375.773163 
	C2009.808594,361.547150 2013.587646,339.794373 2025.719360,329.007599 
	C2038.978271,317.218536 2055.871826,315.732544 2072.603516,315.368469 
	C2079.821533,315.211395 2087.155762,316.685638 2094.310791,318.070953 
	C2114.430176,321.966400 2130.103271,332.625061 2139.788574,350.779663 
	C2143.561523,357.852295 2145.329834,365.994537 2148.042725,373.739075 
	C2196.358398,373.739075 2245.126221,373.739075 2294.385986,373.739075 
	C2293.219727,367.029083 2292.018066,360.664673 2291.020996,354.268402 
	C2288.556641,338.454407 2283.841797,323.315247 2277.283447,308.760468 
	C2266.737305,285.355621 2252.275146,264.881989 2232.682373,247.995483 
	C2221.932129,238.730286 2210.436523,230.684311 2197.989258,224.085861 
	C2179.886230,214.489166 2160.647705,208.044403 2140.561768,203.671341 
	C2122.781982,199.800385 2104.821777,197.476471 2086.785156,197.264755 
	C2068.882080,197.054565 2050.911133,198.535126 2033.052002,200.169922 
	C2022.147705,201.168076 2011.187988,203.089493 2000.632690,205.981537 
	C1987.688110,209.528351 1975.055908,214.294037 1962.440552,218.944992 
	C1944.958862,225.390106 1929.689575,235.733063 1915.814209,247.885452 
	C1899.480103,262.191284 1886.550171,279.159637 1877.845703,299.352295 
	C1870.905518,315.452087 1866.939087,332.118073 1866.125366,349.490387 
	C1865.732666,357.872925 1866.246338,366.361389 1867.118164,374.721771 
	C1867.988281,383.064545 1869.194824,391.472931 1871.344727,399.562653 
	C1877.916504,424.291595 1891.550903,444.658325 1911.347290,460.776184 
	C1929.907959,475.888123 1951.033936,486.536682 1973.661499,493.857056 
	C1993.341064,500.223663 2013.351562,505.621979 2033.360229,510.900421 
	C2051.396484,515.658447 2069.726074,519.308289 2087.744141,524.128662 
	C2102.946289,528.195740 2117.747559,533.401062 2131.015869,542.403076 
	C2153.148682,557.419250 2151.269531,584.753479 2130.493164,599.278992 
	C2119.552246,606.928406 2107.223145,609.744690 2094.613037,610.788696 
	C2075.208740,612.395081 2056.379395,609.419373 2039.058716,599.584473 
	C2020.192017,588.871521 2009.192261,572.976257 2006.514893,551.359497 
	C1954.095581,551.359497 1901.584717,551.359497 1849.077637,551.359497 
	C1850.090210,559.120178 1850.520508,566.645691 1852.117920,573.914612 
	C1858.416016,602.570190 1870.938477,628.356018 1890.183594,650.489014 
	C1907.041748,669.877014 1927.127319,685.510803 1949.955444,697.429504 
	C1965.210083,705.393982 1981.112671,711.723267 1997.721680,716.412292 
	C2013.790039,720.948608 2030.013794,724.350586 2046.625000,726.068787 
	C2052.125732,726.637756 2057.543945,728.000305 2063.000000,729.000000 
M954.000000,701.499634 
	C954.000000,707.931458 954.000000,714.363281 954.000000,720.710083 
	C1007.313538,720.710083 1060.050171,720.710083 1113.000000,720.710083 
	C1113.000000,718.609558 1113.000000,716.797424 1113.000000,714.985229 
	C1113.000000,622.490051 1113.005615,529.994873 1112.993774,437.499695 
	C1112.992188,424.387299 1115.073364,411.609680 1119.024292,399.130371 
	C1124.717407,381.149078 1134.689697,366.015045 1149.874268,354.729279 
	C1164.490723,343.865875 1181.488281,338.464447 1199.336914,337.214661 
	C1221.964966,335.630188 1244.130005,337.925934 1264.501953,349.743896 
	C1279.445923,358.413086 1290.495605,370.377136 1298.157593,385.641296 
	C1306.778564,402.816437 1309.805542,421.413940 1309.866333,440.269684 
	C1310.162109,531.930603 1310.000000,623.593018 1310.000000,715.254944 
	C1310.000000,717.042725 1310.000000,718.830505 1310.000000,720.795654 
	C1362.808228,720.795654 1415.211304,720.795654 1468.000000,720.795654 
	C1468.000000,718.807800 1468.000000,717.017639 1468.000000,715.227417 
	C1468.000000,624.565491 1467.939941,533.903381 1468.087646,443.241730 
	C1468.103394,433.579498 1468.730713,423.830750 1470.133179,414.277588 
	C1472.630371,397.267761 1479.131470,381.647461 1490.217773,368.431335 
	C1507.041016,348.375946 1529.630249,339.159729 1555.069214,337.253845 
	C1566.282959,336.413727 1577.774536,337.754639 1589.012695,339.139221 
	C1604.320923,341.025269 1618.340820,347.093597 1630.161987,356.881592 
	C1652.403931,375.297577 1663.470703,400.158844 1663.700928,428.299072 
	C1664.483398,523.954346 1664.000000,619.619995 1664.000000,715.281677 
	C1664.000000,717.067017 1664.000000,718.852417 1664.000000,720.786255 
	C1717.160522,720.786255 1769.896973,720.786255 1823.000000,720.786255 
	C1823.000000,718.785828 1823.000000,716.993225 1823.000000,715.200684 
	C1823.000000,646.370972 1823.104736,577.540955 1822.954956,508.711578 
	C1822.882324,475.293488 1822.178101,441.876892 1822.066772,408.458618 
	C1822.012573,392.179718 1820.119751,376.169128 1817.022827,360.235321 
	C1813.359375,341.388397 1807.753174,323.155518 1799.354858,305.894928 
	C1788.054688,282.670410 1773.082275,262.245483 1753.131592,245.503845 
	C1738.018799,232.821808 1721.477417,222.582001 1703.309204,215.187332 
	C1678.987305,205.288025 1653.367676,200.569595 1627.265259,199.136292 
	C1607.061157,198.026871 1586.878906,199.173004 1567.068359,203.993118 
	C1544.754517,209.422348 1523.473267,217.436203 1504.197388,230.062149 
	C1494.740967,236.256287 1485.321533,242.684692 1476.778931,250.044144 
	C1468.782227,256.933289 1461.747070,264.997528 1454.697632,272.908783 
	C1448.995117,279.308563 1443.900146,286.249878 1438.365234,293.163940 
	C1437.469727,291.894226 1436.739868,290.828247 1435.978882,289.784851 
	C1429.401855,280.767639 1423.458252,271.191437 1416.111450,262.851746 
	C1398.118652,242.427170 1376.421997,226.863846 1351.364136,215.998474 
	C1327.484131,205.643845 1302.356323,200.532043 1276.594849,199.244919 
	C1262.496704,198.540543 1248.244141,199.963913 1234.115234,201.099716 
	C1219.604126,202.266281 1205.644165,206.045883 1191.850830,210.864105 
	C1167.094604,219.511826 1145.569458,233.046814 1127.072266,251.491776 
	C1122.423950,256.126862 1118.169067,261.156464 1112.947021,266.864258 
	C1112.947021,245.578918 1112.947021,225.389786 1112.947021,205.293686 
	C1059.678955,205.293686 1006.942200,205.293686 954.000000,205.293686 
	C954.000000,370.558136 954.000000,535.528992 954.000000,701.499634 
M914.000000,714.423157 
	C914.000000,544.671570 914.000000,374.920044 914.000000,205.315948 
	C860.636536,205.315948 807.898560,205.315948 755.316589,205.315948 
	C755.316589,377.367859 755.316589,549.103699 755.316589,720.679443 
	C808.371094,720.679443 861.108459,720.679443 914.000000,720.679443 
	C914.000000,718.706421 914.000000,717.053284 914.000000,714.423157 
M16.000000,637.500000 
	C16.000000,665.258728 16.000000,693.017395 16.000000,720.722900 
	C69.298393,720.722900 122.029739,720.722900 174.817062,720.722900 
	C174.817062,550.716919 174.817062,380.988068 174.817062,210.548676 
	C121.888374,243.295395 69.144409,243.143158 16.000000,210.592468 
	C16.000000,353.000153 16.000000,494.750061 16.000000,637.500000 
z"/>
<path fill="#010101" opacity="1.000000" stroke="none" 
	d="
M463.468658,729.000000 
	C458.772583,728.333374 454.566986,727.331177 450.314209,727.054138 
	C421.192261,725.157471 393.327484,718.067444 366.485687,706.839233 
	C347.837830,699.038696 329.973785,689.453247 314.528381,676.516663 
	C301.363098,665.489868 289.478638,652.815918 277.811859,640.148376 
	C264.035309,625.190002 254.028702,607.570007 245.687347,589.119263 
	C237.272812,570.506592 230.823471,551.210632 226.932755,531.068665 
	C223.803223,514.867126 221.133698,498.663635 220.957428,482.105530 
	C220.839401,471.018341 219.561340,459.894440 220.146103,448.858154 
	C221.840317,416.883179 226.754776,385.408020 238.056641,355.257507 
	C246.626633,332.395020 257.540436,310.679108 273.016052,291.657257 
	C281.727295,280.949799 290.852753,270.437988 300.847198,260.949951 
	C314.731567,247.769043 330.589020,237.056107 347.553253,228.046997 
	C367.784760,217.302704 389.066010,209.299118 411.395294,204.406082 
	C422.936890,201.876953 434.736206,200.169235 446.510834,199.147690 
	C461.292725,197.865265 476.197968,196.771332 490.995605,197.256271 
	C505.280945,197.724442 519.503113,200.253677 533.742188,201.967316 
	C552.574951,204.233749 570.410217,210.130341 587.993591,216.963348 
	C606.732117,224.245255 624.044312,234.108200 639.807007,246.484131 
	C648.961060,253.671387 657.875671,261.329102 665.944885,269.694519 
	C678.692566,282.910034 689.322571,297.801849 698.482605,313.815521 
	C711.029907,335.750702 719.396484,359.233002 725.764221,383.522247 
	C726.439453,386.097839 725.855042,389.003662 725.855042,392.000000 
	C721.733276,392.000000 717.913818,392.000000 714.094421,392.000000 
	C663.765442,392.000000 613.436340,391.974579 563.107483,392.055420 
	C559.638367,392.060974 558.140686,391.317535 556.625549,387.595154 
	C545.767822,360.919769 527.615540,341.668427 498.590820,335.381012 
	C470.755463,329.351288 444.536957,333.584229 421.866577,351.818756 
	C408.937592,362.217987 400.147522,376.010925 394.059723,391.368011 
	C387.397491,408.174377 383.507721,425.637390 382.994202,443.780853 
	C382.685150,454.699158 381.497589,465.668030 382.171021,476.523224 
	C383.648621,500.340118 387.829102,523.680420 399.035828,545.162231 
	C410.599213,567.327698 428.014984,582.912842 452.290802,589.516113 
	C467.479950,593.647766 482.993622,593.724121 498.664276,590.257935 
	C514.441528,586.768127 527.788330,579.681458 538.631836,567.840637 
	C547.810486,557.817749 553.739441,545.889465 558.504761,533.155396 
	C614.847717,533.155396 671.313171,533.155396 727.917236,533.155396 
	C722.013245,558.618713 713.582825,582.942505 701.022705,605.739868 
	C692.721985,620.806213 682.996643,634.827881 671.745300,647.901917 
	C658.063232,663.800415 642.383789,677.258972 624.849670,688.610535 
	C602.413391,703.135742 578.238037,713.925476 552.182007,719.828064 
	C537.678894,723.113464 522.797058,724.758667 508.057281,726.950134 
	C503.194214,727.673096 498.241364,727.791626 493.164795,728.593262 
	C483.312439,729.000000 473.624878,729.000000 463.468658,729.000000 
z"/>
<path fill="#010101" opacity="1.000000" stroke="none" 
	d="
M2063.468750,729.000000 
	C2057.543945,728.000305 2052.125732,726.637756 2046.625000,726.068787 
	C2030.013794,724.350586 2013.790039,720.948608 1997.721680,716.412292 
	C1981.112671,711.723267 1965.210083,705.393982 1949.955444,697.429504 
	C1927.127319,685.510803 1907.041748,669.877014 1890.183594,650.489014 
	C1870.938477,628.356018 1858.416016,602.570190 1852.117920,573.914612 
	C1850.520508,566.645691 1850.090210,559.120178 1849.077637,551.359497 
	C1901.584717,551.359497 1954.095581,551.359497 2006.514893,551.359497 
	C2009.192261,572.976257 2020.192017,588.871521 2039.058716,599.584473 
	C2056.379395,609.419373 2075.208740,612.395081 2094.613037,610.788696 
	C2107.223145,609.744690 2119.552246,606.928406 2130.493164,599.278992 
	C2151.269531,584.753479 2153.148682,557.419250 2131.015869,542.403076 
	C2117.747559,533.401062 2102.946289,528.195740 2087.744141,524.128662 
	C2069.726074,519.308289 2051.396484,515.658447 2033.360229,510.900421 
	C2013.351562,505.621979 1993.341064,500.223663 1973.661499,493.857056 
	C1951.033936,486.536682 1929.907959,475.888123 1911.347290,460.776184 
	C1891.550903,444.658325 1877.916504,424.291595 1871.344727,399.562653 
	C1869.194824,391.472931 1867.988281,383.064545 1867.118164,374.721771 
	C1866.246338,366.361389 1865.732666,357.872925 1866.125366,349.490387 
	C1866.939087,332.118073 1870.905518,315.452087 1877.845703,299.352295 
	C1886.550171,279.159637 1899.480103,262.191284 1915.814209,247.885452 
	C1929.689575,235.733063 1944.958862,225.390106 1962.440552,218.944992 
	C1975.055908,214.294037 1987.688110,209.528351 2000.632690,205.981537 
	C2011.187988,203.089493 2022.147705,201.168076 2033.052002,200.169922 
	C2050.911133,198.535126 2068.882080,197.054565 2086.785156,197.264755 
	C2104.821777,197.476471 2122.781982,199.800385 2140.561768,203.671341 
	C2160.647705,208.044403 2179.886230,214.489166 2197.989258,224.085861 
	C2210.436523,230.684311 2221.932129,238.730286 2232.682373,247.995483 
	C2252.275146,264.881989 2266.737305,285.355621 2277.283447,308.760468 
	C2283.841797,323.315247 2288.556641,338.454407 2291.020996,354.268402 
	C2292.018066,360.664673 2293.219727,367.029083 2294.385986,373.739075 
	C2245.126221,373.739075 2196.358398,373.739075 2148.042725,373.739075 
	C2145.329834,365.994537 2143.561523,357.852295 2139.788574,350.779663 
	C2130.103271,332.625061 2114.430176,321.966400 2094.310791,318.070953 
	C2087.155762,316.685638 2079.821533,315.211395 2072.603516,315.368469 
	C2055.871826,315.732544 2038.978271,317.218536 2025.719360,329.007599 
	C2013.587646,339.794373 2009.808594,361.547150 2023.269531,375.773163 
	C2034.006104,387.120056 2048.029053,392.738770 2062.464111,396.833832 
	C2086.879150,403.760071 2111.597900,409.611664 2136.162842,416.014862 
	C2166.021484,423.797821 2195.612305,432.473358 2222.815186,447.449219 
	C2249.947754,462.386261 2271.900146,482.630157 2284.765137,511.449280 
	C2290.174805,523.566895 2293.606445,536.300720 2294.971191,549.524109 
	C2295.794922,557.507324 2297.134033,565.547729 2296.858398,573.514526 
	C2295.785156,604.521667 2286.607666,632.762634 2267.170166,657.415894 
	C2253.549072,674.691833 2236.842041,688.106445 2217.723145,698.719116 
	C2195.744141,710.919128 2172.339111,719.155457 2147.513428,722.897888 
	C2132.201904,725.206116 2116.730957,726.458618 2101.165771,728.592529 
	C2088.645752,729.000000 2076.291748,729.000000 2063.468750,729.000000 
z"/>
<path fill="#48A8AF" opacity="1.000000" stroke="none" 
	d="
M105.531464,0.999999 
	C111.002762,2.168941 116.044174,3.194571 121.001717,4.531206 
	C144.666565,10.911624 162.626175,25.103872 175.711716,45.496765 
	C183.511078,57.651535 187.556122,71.125664 189.151230,85.600151 
	C191.297333,105.074745 187.541245,123.144730 178.341888,140.165268 
	C163.909363,166.868179 141.464890,182.549179 111.685959,188.044022 
	C86.718285,192.651093 63.536095,187.614655 42.734051,173.731186 
	C21.059912,159.265686 7.395263,138.877518 2.850768,112.841423 
	C2.751112,112.270477 2.108085,111.794373 1.359266,111.137009 
	C1.000000,110.555557 1.000000,110.111107 1.312398,109.213943 
	C1.416531,107.840813 1.208266,106.920410 1.000000,106.000000 
	C1.000000,97.645767 1.000000,89.291534 1.359475,80.331467 
	C2.135317,79.042046 2.788651,78.405205 2.934038,77.668167 
	C9.966713,42.016094 31.243616,18.596506 64.869522,6.065404 
	C71.313934,3.663817 78.276489,2.652637 85.000000,1.000000 
	C91.687645,1.000000 98.375290,1.000000 105.531464,0.999999 
z"/>
<path fill="#FFFFFF" opacity="1.000000" stroke="none" 
	d="
M84.531342,1.000000 
	C78.276489,2.652637 71.313934,3.663817 64.869522,6.065404 
	C31.243616,18.596506 9.966713,42.016094 2.934038,77.668167 
	C2.788651,78.405205 2.135317,79.042046 1.359475,79.862816 
	C1.000000,53.737534 1.000000,27.475071 1.000000,1.000000 
	C28.687199,1.000000 56.374939,1.000000 84.531342,1.000000 
z"/>
<path fill="#010101" opacity="1.000000" stroke="none" 
	d="
M2391.000000,344.531403 
	C2389.656738,347.443176 2388.179688,349.823242 2386.991943,352.339783 
	C2380.037842,367.076050 2361.850342,374.968567 2346.016846,372.254974 
	C2327.928223,369.154877 2317.484619,358.437195 2314.527588,341.555573 
	C2310.702393,319.721802 2319.363281,300.067383 2342.852295,294.327423 
	C2362.005127,289.647217 2382.210693,297.967010 2389.232178,319.616547 
	C2389.478027,320.375031 2389.927979,321.067352 2390.641357,321.895264 
	C2391.000000,329.354248 2391.000000,336.708496 2391.000000,344.531403 
M2367.416260,363.091278 
	C2379.399902,357.977509 2387.243652,339.564117 2384.230469,326.492859 
	C2381.389893,314.170502 2375.001465,305.081177 2363.353760,301.423370 
	C2350.788818,297.477448 2338.250977,299.254974 2328.890381,309.772888 
	C2320.355469,319.362915 2318.144531,330.820587 2321.705566,343.205261 
	C2325.036621,354.790955 2332.491455,362.418091 2344.181152,365.644989 
	C2351.952881,367.790436 2359.478760,366.317627 2367.416260,363.091278 
z"/>
<path fill="#FFFFFF" opacity="1.000000" stroke="none" 
	d="
M1.000000,106.375000 
	C1.208266,106.920410 1.416531,107.840813 1.312398,108.880615 
	C1.000000,108.250000 1.000000,107.500000 1.000000,106.375000 
z"/>
<path fill="#010101" opacity="1.000000" stroke="none" 
	d="
M954.000000,700.999756 
	C954.000000,535.528992 954.000000,370.558136 954.000000,205.293686 
	C1006.942200,205.293686 1059.678955,205.293686 1112.947021,205.293686 
	C1112.947021,225.389786 1112.947021,245.578918 1112.947021,266.864258 
	C1118.169067,261.156464 1122.423950,256.126862 1127.072266,251.491776 
	C1145.569458,233.046814 1167.094604,219.511826 1191.850830,210.864105 
	C1205.644165,206.045883 1219.604126,202.266281 1234.115234,201.099716 
	C1248.244141,199.963913 1262.496704,198.540543 1276.594849,199.244919 
	C1302.356323,200.532043 1327.484131,205.643845 1351.364136,215.998474 
	C1376.421997,226.863846 1398.118652,242.427170 1416.111450,262.851746 
	C1423.458252,271.191437 1429.401855,280.767639 1435.978882,289.784851 
	C1436.739868,290.828247 1437.469727,291.894226 1438.365234,293.163940 
	C1443.900146,286.249878 1448.995117,279.308563 1454.697632,272.908783 
	C1461.747070,264.997528 1468.782227,256.933289 1476.778931,250.044144 
	C1485.321533,242.684692 1494.740967,236.256287 1504.197388,230.062149 
	C1523.473267,217.436203 1544.754517,209.422348 1567.068359,203.993118 
	C1586.878906,199.173004 1607.061157,198.026871 1627.265259,199.136292 
	C1653.367676,200.569595 1678.987305,205.288025 1703.309204,215.187332 
	C1721.477417,222.582001 1738.018799,232.821808 1753.131592,245.503845 
	C1773.082275,262.245483 1788.054688,282.670410 1799.354858,305.894928 
	C1807.753174,323.155518 1813.359375,341.388397 1817.022827,360.235321 
	C1820.119751,376.169128 1822.012573,392.179718 1822.066772,408.458618 
	C1822.178101,441.876892 1822.882324,475.293488 1822.954956,508.711578 
	C1823.104736,577.540955 1823.000000,646.370972 1823.000000,715.200684 
	C1823.000000,716.993225 1823.000000,718.785828 1823.000000,720.786255 
	C1769.896973,720.786255 1717.160522,720.786255 1664.000000,720.786255 
	C1664.000000,718.852417 1664.000000,717.067017 1664.000000,715.281677 
	C1664.000000,619.619995 1664.483398,523.954346 1663.700928,428.299072 
	C1663.470703,400.158844 1652.403931,375.297577 1630.161987,356.881592 
	C1618.340820,347.093597 1604.320923,341.025269 1589.012695,339.139221 
	C1577.774536,337.754639 1566.282959,336.413727 1555.069214,337.253845 
	C1529.630249,339.159729 1507.041016,348.375946 1490.217773,368.431335 
	C1479.131470,381.647461 1472.630371,397.267761 1470.133179,414.277588 
	C1468.730713,423.830750 1468.103394,433.579498 1468.087646,443.241730 
	C1467.939941,533.903381 1468.000000,624.565491 1468.000000,715.227417 
	C1468.000000,717.017639 1468.000000,718.807800 1468.000000,720.795654 
	C1415.211304,720.795654 1362.808228,720.795654 1310.000000,720.795654 
	C1310.000000,718.830505 1310.000000,717.042725 1310.000000,715.254944 
	C1310.000000,623.593018 1310.162109,531.930603 1309.866333,440.269684 
	C1309.805542,421.413940 1306.778564,402.816437 1298.157593,385.641296 
	C1290.495605,370.377136 1279.445923,358.413086 1264.501953,349.743896 
	C1244.130005,337.925934 1221.964966,335.630188 1199.336914,337.214661 
	C1181.488281,338.464447 1164.490723,343.865875 1149.874268,354.729279 
	C1134.689697,366.015045 1124.717407,381.149078 1119.024292,399.130371 
	C1115.073364,411.609680 1112.992188,424.387299 1112.993774,437.499695 
	C1113.005615,529.994873 1113.000000,622.490051 1113.000000,714.985229 
	C1113.000000,716.797424 1113.000000,718.609558 1113.000000,720.710083 
	C1060.050171,720.710083 1007.313538,720.710083 954.000000,720.710083 
	C954.000000,714.363281 954.000000,707.931458 954.000000,700.999756 
z"/>
<path fill="#010101" opacity="1.000000" stroke="none" 
	d="
M914.000000,714.911621 
	C914.000000,717.053284 914.000000,718.706421 914.000000,720.679443 
	C861.108459,720.679443 808.371094,720.679443 755.316589,720.679443 
	C755.316589,549.103699 755.316589,377.367859 755.316589,205.315948 
	C807.898560,205.315948 860.636536,205.315948 914.000000,205.315948 
	C914.000000,374.920044 914.000000,544.671570 914.000000,714.911621 
z"/>
<path fill="#010101" opacity="1.000000" stroke="none" 
	d="
M16.000000,637.000000 
	C16.000000,494.750061 16.000000,353.000153 16.000000,210.592468 
	C69.144409,243.143158 121.888374,243.295395 174.817062,210.548676 
	C174.817062,380.988068 174.817062,550.716919 174.817062,720.722900 
	C122.029739,720.722900 69.298393,720.722900 16.000000,720.722900 
	C16.000000,693.017395 16.000000,665.258728 16.000000,637.000000 
z"/>
<path fill="#FFFFFF" opacity="1.000000" stroke="none" 
	d="
M2367.141602,363.376495 
	C2359.478760,366.317627 2351.952881,367.790436 2344.181152,365.644989 
	C2332.491455,362.418091 2325.036621,354.790955 2321.705566,343.205261 
	C2318.144531,330.820587 2320.355469,319.362915 2328.890381,309.772888 
	C2338.250977,299.254974 2350.788818,297.477448 2363.353760,301.423370 
	C2375.001465,305.081177 2381.389893,314.170502 2384.230469,326.492859 
	C2387.243652,339.564117 2379.399902,357.977509 2367.141602,363.376495 
M2338.000000,326.503265 
	C2338.000000,335.932281 2338.000000,345.361328 2338.000000,354.736511 
	C2340.605225,354.736511 2342.674805,354.736511 2345.083008,354.736511 
	C2345.083008,348.714783 2345.083008,342.948486 2345.083008,337.210663 
	C2350.339600,336.917847 2350.341309,336.916718 2353.001221,341.049561 
	C2354.392822,343.211914 2355.659180,345.466705 2357.188721,347.526123 
	C2360.560303,352.065674 2363.437256,357.750214 2371.223389,354.214874 
	C2367.221924,348.513458 2363.247314,342.849976 2359.160400,337.026611 
	C2360.014160,336.589539 2360.549805,336.218658 2361.143066,336.026337 
	C2367.582275,333.939331 2370.087158,330.209808 2369.999756,322.780548 
	C2369.935791,317.332245 2366.583252,312.199768 2360.846191,311.557373 
	C2353.383301,310.721741 2345.755615,311.353119 2338.000000,311.353119 
	C2338.000000,316.226440 2338.000000,320.865570 2338.000000,326.503265 
z"/>
<path fill="#010101" opacity="1.000000" stroke="none" 
	d="
M2338.000000,326.003967 
	C2338.000000,320.865570 2338.000000,316.226440 2338.000000,311.353119 
	C2345.755615,311.353119 2353.383301,310.721741 2360.846191,311.557373 
	C2366.583252,312.199768 2369.935791,317.332245 2369.999756,322.780548 
	C2370.087158,330.209808 2367.582275,333.939331 2361.143066,336.026337 
	C2360.549805,336.218658 2360.014160,336.589539 2359.160400,337.026611 
	C2363.247314,342.849976 2367.221924,348.513458 2371.223389,354.214874 
	C2363.437256,357.750214 2360.560303,352.065674 2357.188721,347.526123 
	C2355.659180,345.466705 2354.392822,343.211914 2353.001221,341.049561 
	C2350.341309,336.916718 2350.339600,336.917847 2345.083008,337.210663 
	C2345.083008,342.948486 2345.083008,348.714783 2345.083008,354.736511 
	C2342.674805,354.736511 2340.605225,354.736511 2338.000000,354.736511 
	C2338.000000,345.361328 2338.000000,335.932281 2338.000000,326.003967 
M2361.460938,328.016693 
	C2364.425781,321.722961 2362.128418,318.067230 2355.146973,318.005005 
	C2351.869873,317.975800 2348.592529,318.000000 2345.220703,318.000000 
	C2345.220703,322.190399 2345.220703,325.923767 2345.220703,330.615845 
	C2350.656494,329.926392 2355.773682,329.277313 2361.460938,328.016693 
z"/>
<path fill="#FFFFFF" opacity="1.000000" stroke="none" 
	d="
M2361.175781,328.322449 
	C2355.773682,329.277313 2350.656494,329.926392 2345.220703,330.615845 
	C2345.220703,325.923767 2345.220703,322.190399 2345.220703,318.000000 
	C2348.592529,318.000000 2351.869873,317.975800 2355.146973,318.005005 
	C2362.128418,318.067230 2364.425781,321.722961 2361.175781,328.322449 
z"/>
</svg>