<svg version="1.1" id="Layer_1" xmlns="http://www.w3.org/2000/svg" xmlns:xlink="http://www.w3.org/1999/xlink" x="0px" y="0px"
	 width="100%" viewBox="0 0 771 665" enable-background="new 0 0 771 665" xml:space="preserve">
<path fill="#FFFFFF" opacity="1.000000" stroke="none" 
	d="
M552.000000,666.000000 
	C368.000000,666.000000 184.500000,666.000000 1.000000,666.000000 
	C1.000000,444.333344 1.000000,222.666672 1.000000,1.000000 
	C258.000000,1.000000 515.000000,1.000000 772.000000,1.000000 
	C772.000000,222.666672 772.000000,444.333344 772.000000,666.000000 
	C698.833313,666.000000 625.666687,666.000000 552.000000,666.000000 
M467.000000,239.500000 
	C467.000000,220.720993 467.000000,201.942001 467.000000,183.095276 
	C464.853149,183.095276 463.214325,183.095276 462.406586,183.095276 
	C460.292450,185.911377 458.760895,188.428482 456.773834,190.510971 
	C450.168091,197.433929 444.028809,205.007675 436.551117,210.847000 
	C423.853912,220.762253 408.881805,225.301605 392.792786,227.187729 
	C378.539581,228.858643 364.744690,227.787064 351.235474,223.569000 
	C331.168518,217.303345 314.295471,206.665085 303.685150,187.584167 
	C302.627502,185.682159 300.860352,180.953110 296.353241,183.373199 
	C296.353241,331.916077 296.353241,480.414856 296.353241,628.664673 
	C353.431000,628.664673 410.155243,628.664673 467.000000,628.664673 
	C467.000000,499.052917 467.000000,369.776459 467.000000,239.500000 
M294.453613,136.946686 
	C301.038147,148.555878 309.331329,158.857300 320.238953,166.505890 
	C341.982391,181.752670 366.012909,188.480118 392.772614,185.106430 
	C419.270599,181.765747 441.240692,170.553589 457.911041,149.558136 
	C472.146454,131.629257 478.171051,111.386444 475.089905,88.432938 
	C471.856476,64.344986 459.820892,45.351246 440.605042,31.519144 
	C412.962189,11.621057 382.169098,6.876045 349.465027,16.888971 
	C331.131287,22.502165 315.827484,32.678844 303.611023,47.730900 
	C292.584961,61.316273 286.581848,76.770805 285.118988,93.909637 
	C283.848816,108.791176 287.648743,122.890175 294.453613,136.946686 
z"/>
<path fill="#000000" opacity="1.000000" stroke="none" 
	d="
M467.000000,240.000000 
	C467.000000,369.776459 467.000000,499.052917 467.000000,628.664673 
	C410.155243,628.664673 353.431000,628.664673 296.353241,628.664673 
	C296.353241,480.414856 296.353241,331.916077 296.353241,183.373199 
	C300.860352,180.953110 302.627502,185.682159 303.685150,187.584167 
	C314.295471,206.665085 331.168518,217.303345 351.235474,223.569000 
	C364.744690,227.787064 378.539581,228.858643 392.792786,227.187729 
	C408.881805,225.301605 423.853912,220.762253 436.551117,210.847000 
	C444.028809,205.007675 450.168091,197.433929 456.773834,190.510971 
	C458.760895,188.428482 460.292450,185.911377 462.406586,183.095276 
	C463.214325,183.095276 464.853149,183.095276 467.000000,183.095276 
	C467.000000,201.942001 467.000000,220.720993 467.000000,240.000000 
z"/>
<path fill="#48A8AF" opacity="1.000000" stroke="none" 
	d="
M294.261871,136.620850 
	C287.648743,122.890175 283.848816,108.791176 285.118988,93.909637 
	C286.581848,76.770805 292.584961,61.316273 303.611023,47.730900 
	C315.827484,32.678844 331.131287,22.502165 349.465027,16.888971 
	C382.169098,6.876045 412.962189,11.621057 440.605042,31.519144 
	C459.820892,45.351246 471.856476,64.344986 475.089905,88.432938 
	C478.171051,111.386444 472.146454,131.629257 457.911041,149.558136 
	C441.240692,170.553589 419.270599,181.765747 392.772614,185.106430 
	C366.012909,188.480118 341.982391,181.752670 320.238953,166.505890 
	C309.331329,158.857300 301.038147,148.555878 294.261871,136.620850 
z"/>
</svg>